<svg xmlns="http://www.w3.org/2000/svg" width="36" height="36" viewBox="0 0 36 36">
    <g fill="#FFF" fill-rule="evenodd">
        <circle cx="18" cy="18" r="18" opacity=".2"/>
        <path fill-rule="nonzero" d="M15.232 25c.337 0 .609-.122.843-.365l5.522-5.585c.308-.327.454-.647.462-1.05 0-.396-.147-.73-.462-1.05l-5.522-5.592c-.234-.236-.513-.358-.843-.358-.682 0-1.232.563-1.232 1.263 0 .35.14.67.396.936l4.781 4.809-4.781 4.793c-.257.266-.396.586-.396.936 0 .692.55 1.263 1.232 1.263z"/>
    </g>
</svg>
