<svg xmlns="http://www.w3.org/2000/svg" width="28" height="28" viewBox="0 0 28 28">
    <g fill="none" fill-rule="evenodd">
        <g fill="#4F555D">
            <g>
                <g>
                    <g>
                        <path d="M2.47 13.994c-.012 4.77 1.25 9.4 3.834 12.012C7.664 27.382 9.038 28 11.023 28c2.334 0 3.695-1.274 3.308-3.546l-.787-4.378c-.224-1.237-.998-2.196-2.534-2.208H9.961c-.719 0-1.07-.383-1.192-1.244l-.019-.157c-.057-.388-.078-1.03-.084-1.777l-.003-.696c0-.937.01-1.8.07-2.326l.017-.135c.1-.971.45-1.4 1.211-1.4h1.05c1.535-.013 2.309-.972 2.533-2.221l.787-4.366C14.718 1.287 13.382 0 11.023 0c-1.985 0-3.359.618-4.72 1.994-2.584 2.612-3.845 7.243-3.832 12zm1.499 0c0-4.366 1.111-8.656 3.396-10.928.973-.959 2.085-1.476 3.47-1.476 1.349 0 2.233.47 2.037 1.702l-.838 4.266c-.1.556-.437.96-1.161.96H9.724c-1.423 0-2.047.82-2.284 2.081-.15.775-.214 1.868-.224 3.066l-.001.329c0 1.337.062 2.561.225 3.407.237 1.261.861 2.082 2.284 2.082h1.149c.724 0 1.061.403 1.16.959l.812 4.126c.275 1.325-.599 1.842-2.01 1.842-1.385 0-2.497-.517-3.47-1.489-2.285-2.259-3.396-6.549-3.396-10.927zm9.75.706c-.462 0-.724-.328-.724-.706 0-.366.275-.707.712-.707h6.891l2.822.088-2.735-2.549-1.635-1.665c-.137-.139-.212-.316-.212-.53 0-.391.287-.681.674-.681.187 0 .374.075.512.214l5.256 5.312c.162.164.25.354.25.518 0 .176-.088.353-.25.517l-5.256 5.3c-.138.139-.325.214-.512.214-.387 0-.674-.277-.674-.681 0-.202.075-.379.212-.518l1.635-1.665 2.735-2.549-2.81.088h-6.89z" transform="translate(-370 -7977) translate(0 7186) translate(370 790) translate(0 1)"/>
                    </g>
                </g>
            </g>
        </g>
    </g>
</svg>
