<svg xmlns="http://www.w3.org/2000/svg" width="36" height="36" viewBox="0 0 36 36">
    <g fill="#ff0a26" fill-rule="evenodd">
        <circle cx="18" cy="18" r="18"/>
        <path fill-rule="nonzero" fill="#fff" d="M20.777 25c.67 0 1.223-.57 1.223-1.263 0-.35-.146-.677-.393-.936l-4.753-4.809 4.753-4.793c.255-.266.393-.594.393-.936 0-.692-.553-1.263-1.223-1.263-.335 0-.611.114-.844.358l-5.474 5.592c-.313.32-.452.647-.459 1.05 0 .396.138.723.459 1.05l5.474 5.592c.24.236.51.358.844.358z"/>
    </g>
</svg>
