<svg xmlns="http://www.w3.org/2000/svg" width="180" height="180" viewBox="0 0 180 180">
  <g fill="none" fill-rule="evenodd">
    <path fill="#E30513" d="M101.371945,4.71041378 L175.289586,78.6280552 C181.570138,84.9086069 181.570138,95.0913931 175.289586,101.371945 L101.371945,175.289586 C95.0913931,181.570138 84.9086069,181.570138 78.6280552,175.289586 L4.71041378,101.371945 C-1.57013793,95.0913931 -1.57013793,84.9086069 4.71041378,78.6280552 L78.6280552,4.71041378 C84.9086069,-1.57013793 95.0913931,-1.57013793 101.371945,4.71041378 Z"/>
    <path fill="#FFF" fill-rule="nonzero" d="M75.4842197 131.244024C82.5981639 131.014542 86.8435823 122.064741 86.8435823 106.918924 86.8435823 91.6583665 83.9750564 82.8233068 76.6316301 82.2496016L74.5662914 82.2496016C71.9272476 82.7085657 69.97665 84.7739044 68.4850165 87.4129482L68.3702755 87.2982072C69.7471679 71.4639442 74.1073273 61.137251 81.1065305 59.8750996L81.1065305 50.9252988 76.6316301 50.9252988C67.2228651 53.6790837 60.6826261 70.5460159 60.6826261 101.181873 60.6826261 118.393028 62.1742596 130.78506 71.5830245 131.244024L75.4842197 131.244024zM74.2220683 122.179482L72.9599169 122.179482C69.4029448 121.605777 69.0587217 113.344422 69.0587217 106.918924 69.0587217 98.1986056 69.7471679 91.4288845 72.9599169 90.7404382L74.4515504 90.7404382C77.6642994 91.4288845 78.2380046 99.0017928 78.2380046 106.918924 78.2380046 114.14761 77.8937815 121.605777 74.2220683 122.179482zM106.234817 131.244024C113.807726 130.78506 116.676252 119.884661 116.676252 103.935657 116.676252 87.5276892 113.692985 80.299004 107.841192 79.2663347L105.661112 79.2663347C103.595774 79.4958167 101.874658 80.7579681 100.727248 82.0201195L101.530435 60.4488048 115.184618 60.4488048 115.4141 50.9252988 95.2196779 50.9252988 93.8427855 90.8551793 99.6945783 90.8551793C100.268283 89.7077689 101.300953 88.5603586 102.677845 88.3308765L104.398961 88.3308765C108.070674 89.1340637 108.529638 95.7890438 108.529638 104.394622 108.529638 112.770717 107.726451 122.179482 104.743184 122.523705L103.481032 122.523705C100.95673 122.064741 99.6945783 118.507769 100.383025 111.164343L100.383025 104.853586 93.4985624 104.853586C91.5479647 118.278287 91.7774468 130.78506 101.874658 131.244024L106.234817 131.244024zM133.11753 89.8565737C135.860558 89.8565737 138.119522 86.7370518 138.119522 81.5737052 138.119522 76.4103586 135.860558 73.3446215 133.11753 73.3446215 130.320717 73.3446215 128.115538 76.4103586 128.115538 81.5737052 128.115538 86.7370518 130.320717 89.8565737 133.11753 89.8565737zM130.428287 111.370518L148.876494 76.0876494 148.876494 73.7211155 147.262948 73.7211155 128.760956 109.165339 128.760956 111.370518 130.428287 111.370518zM133.11753 86.5219124C131.826693 86.5219124 130.966135 84.6394422 130.966135 81.5737052 130.966135 78.561753 131.826693 76.625498 133.11753 76.625498 134.408367 76.625498 135.268924 78.561753 135.268924 81.5737052 135.268924 84.6394422 134.408367 86.5219124 133.11753 86.5219124zM144.62749 111.639442C147.370518 111.639442 149.629482 108.51992 149.629482 103.356574 149.629482 98.1932271 147.370518 95.12749 144.62749 95.12749 141.830677 95.12749 139.625498 98.1932271 139.625498 103.356574 139.625498 108.51992 141.830677 111.639442 144.62749 111.639442zM144.62749 108.304781C143.336653 108.304781 142.476096 106.422311 142.476096 103.356574 142.476096 100.344622 143.336653 98.4083665 144.62749 98.4083665 145.918327 98.4083665 146.778884 100.344622 146.778884 103.356574 146.778884 106.422311 145.918327 108.304781 144.62749 108.304781zM38.3368094 104.12749L38.8029448 101.545817 36.8666898 101.545817 36.8666898 79.0278884 31.2372078 79.0278884C30.6635026 89.2828685 29.874658 99.5737052 27.9025464 101.545817L26.9702755 101.545817 26.9702755 104.12749 38.3368094 104.12749zM34.4642994 101.653386L30.7352157 101.653386C31.7750564 98.8924303 32.563901 93.5856574 33.3527456 81.7888446L34.5718691 81.7888446 34.4642994 101.653386zM46.1535424 104.12749C48.4483631 103.804781 49.3447775 99.0717131 49.3447775 91.3625498 49.3447775 83.5099602 48.37665 79.4581673 46.2252556 79.0278884L43.9662914 79.0278884C41.7073273 79.4581673 40.6674867 83.5099602 40.6674867 91.3625498 40.6674867 99.0717131 41.6356141 103.804781 43.9304349 104.12749L46.1535424 104.12749zM45.2929847 100.972112L44.7909926 100.972112C43.6499852 100.833808 43.3091648 96.7279098 43.2862759 91.9016055L43.2850165 91.3625498C43.2850165 86.1992032 43.6435823 82.2549801 44.8268492 82.0756972L45.2571281 82.0756972C46.4762516 82.2549801 46.7272476 86.1992032 46.7272476 91.3625498 46.7272476 96.4183267 46.440395 100.828685 45.2929847 100.972112z"/>
  </g>
</svg>
