<svg xmlns="http://www.w3.org/2000/svg" width="180" height="180" viewBox="0 0 180 180">
    <g fill="none" fill-rule="evenodd">
        <path fill="#864645" d="M47.977.535c.81.255 1.262 1.129 1.011 1.952-.251.822-1.11 1.282-1.92 1.027-.827-.261-1.693-.395-2.58-.395-.847 0-1.533-.698-1.533-1.56C42.955.7 43.64 0 44.489 0c1.195 0 2.368.182 3.488.535zm6.438 5.006c.455.726.245 1.69-.47 2.152-.714.463-1.663.25-2.118-.477-.47-.75-1.048-1.424-1.715-2-.646-.557-.725-1.541-.177-2.198.549-.656 1.517-.737 2.163-.18.9.778 1.682 1.69 2.317 2.703zm1.835 7.86c0 .86-.687 1.56-1.534 1.56s-1.534-.699-1.534-1.56v-1.47c-.001-.479-.04-.953-.115-1.418-.137-.85.43-1.652 1.266-1.791.836-.14 1.625.436 1.762 1.286.101.63.153 1.27.155 1.92V13.4zm0 7.277c0 .86-.687 1.559-1.534 1.559s-1.534-.698-1.534-1.56V17.56c0-.861.687-1.56 1.534-1.56s1.534.699 1.534 1.56v3.119zm0 7.277c0 .86-.687 1.559-1.534 1.559s-1.534-.698-1.534-1.56v-3.118c0-.861.687-1.56 1.534-1.56s1.534.699 1.534 1.56v3.119zm0 7.276c0 .862-.687 1.56-1.534 1.56s-1.534-.698-1.534-1.56v-3.118c0-.861.687-1.56 1.534-1.56s1.534.699 1.534 1.56v3.118zm0 7.277c0 .862-.687 1.56-1.534 1.56s-1.534-.698-1.534-1.56V39.39c0-.862.687-1.56 1.534-1.56s1.534.698 1.534 1.56v3.118zm0 7.277c0 .861-.687 1.56-1.534 1.56s-1.534-.699-1.534-1.56v-3.118c0-.862.687-1.56 1.534-1.56s1.534.698 1.534 1.56v3.118zm0 7.277c0 .861-.687 1.56-1.534 1.56s-1.534-.699-1.534-1.56v-3.119c0-.86.687-1.559 1.534-1.559s1.534.698 1.534 1.56v3.118zm0 7.277c0 .861-.687 1.56-1.534 1.56s-1.534-.699-1.534-1.56V61.22c0-.86.687-1.559 1.534-1.559s1.534.698 1.534 1.56v3.118zm-.112 7.488c-.117.853-.891 1.448-1.73 1.33-.84-.119-1.426-.906-1.31-1.76.056-.403.084-.813.084-1.227v-1.673c0-.86.687-1.559 1.534-1.559s1.534.698 1.534 1.56v1.672c0 .558-.038 1.11-.112 1.657zm-3.859 7.3c-.635.57-1.604.51-2.166-.135-.56-.645-.502-1.63.133-2.201.655-.59 1.22-1.276 1.675-2.035.44-.735 1.384-.969 2.108-.521.724.448.953 1.407.513 2.143-.614 1.026-1.378 1.953-2.263 2.749zm-7.488 2.994c-.847.022-1.551-.658-1.573-1.52-.021-.86.648-1.576 1.495-1.598.884-.022 1.747-.179 2.568-.462.802-.276 1.673.16 1.945.977.272.815-.158 1.7-.96 1.977-1.113.383-2.282.595-3.475.626zm-7.238.004c-.847 0-1.534-.698-1.534-1.56 0-.86.687-1.559 1.534-1.559h3.068c.847 0 1.534.698 1.534 1.56 0 .86-.687 1.559-1.534 1.559h-3.068zm-7.16 0c-.847 0-1.533-.698-1.533-1.56 0-.86.686-1.559 1.534-1.559h3.068c.847 0 1.534.698 1.534 1.56 0 .86-.687 1.559-1.534 1.559h-3.068zm-7.158 0c-.848 0-1.534-.698-1.534-1.56 0-.86.686-1.559 1.534-1.559h3.068c.847 0 1.534.698 1.534 1.56 0 .86-.687 1.559-1.534 1.559h-3.068zm-7.16 0c-.847 0-1.534-.698-1.534-1.56 0-.86.687-1.559 1.535-1.559h3.068c.847 0 1.534.698 1.534 1.56 0 .86-.687 1.559-1.534 1.559h-3.068zm-7.553-.46c-.814-.236-1.286-1.1-1.053-1.927.233-.828 1.082-1.308 1.897-1.071.771.224 1.575.34 2.395.34h.224c.847 0 1.534.697 1.534 1.559 0 .86-.687 1.559-1.534 1.559h-.224c-1.106 0-2.194-.156-3.239-.46zm-6.545-4.859c-.47-.716-.281-1.684.423-2.163.704-.478 1.657-.286 2.128.43.486.739 1.08 1.4 1.758 1.961.658.543.758 1.525.224 2.194-.534.668-1.5.77-2.158.227-.917-.757-1.718-1.65-2.375-2.649zM0 68.951c0-.861.687-1.56 1.534-1.56s1.534.699 1.534 1.56v1.245c.002.545.052 1.083.148 1.61.156.846-.393 1.66-1.226 1.818-.833.159-1.634-.4-1.79-1.246C.07 71.666.002 70.94 0 70.2v-1.249zm0-7.277c0-.86.687-1.56 1.534-1.56s1.534.7 1.534 1.56v3.119c0 .861-.687 1.56-1.534 1.56S0 65.653 0 64.792v-3.119zm0-7.277c0-.86.687-1.559 1.534-1.559s1.534.698 1.534 1.56v3.118c0 .861-.687 1.56-1.534 1.56S0 58.376 0 57.515v-3.119zm0-7.277c0-.86.687-1.559 1.534-1.559s1.534.698 1.534 1.56v3.118c0 .861-.687 1.56-1.534 1.56S0 51.1 0 50.238V47.12zm0-7.276c0-.862.687-1.56 1.534-1.56s1.534.698 1.534 1.56v3.118c0 .861-.687 1.56-1.534 1.56S0 43.823 0 42.962v-3.118zm0-7.277c0-.862.687-1.56 1.534-1.56s1.534.698 1.534 1.56v3.118c0 .862-.687 1.56-1.534 1.56S0 36.547 0 35.685v-3.118zm0-7.277c0-.861.687-1.56 1.534-1.56s1.534.699 1.534 1.56v3.118c0 .862-.687 1.56-1.534 1.56S0 29.27 0 28.408V25.29zm0-7.277c0-.861.687-1.56 1.534-1.56s1.534.699 1.534 1.56v3.119c0 .86-.687 1.559-1.534 1.559S0 21.993 0 21.13v-3.118zm.08-7.455C.178 9.702.94 9.09 1.78 9.189c.842.1 1.444.874 1.346 1.73-.039.342-.059.687-.059 1.036v1.9c0 .86-.687 1.559-1.534 1.559S0 14.716 0 13.854v-1.9c0-.468.027-.935.08-1.396zM3.774 3.18c.622-.585 1.592-.547 2.168.085.575.632.538 1.618-.084 2.203-.642.605-1.192 1.304-1.63 2.073-.423.745-1.362 1-2.095.57-.734-.431-.985-1.385-.56-2.13.59-1.041 1.334-1.985 2.2-2.801zM11.282.01c.847-.035 1.56.635 1.594 1.495.034.86-.624 1.586-1.47 1.62-.884.037-1.744.207-2.56.503-.799.288-1.676-.135-1.96-.946C6.6 1.87 7.018.978 7.816.69 8.924.289 10.09.058 11.282.01zM18.474 0c.847 0 1.534.698 1.534 1.56 0 .86-.687 1.559-1.534 1.559h-3.068c-.848 0-1.534-.698-1.534-1.56C13.872.7 14.558 0 15.406 0h3.068zm7.159 0c.847 0 1.534.698 1.534 1.56 0 .86-.687 1.559-1.534 1.559h-3.068c-.847 0-1.534-.698-1.534-1.56C21.03.7 21.718 0 22.565 0h3.068zm7.16 0c.846 0 1.533.698 1.533 1.56 0 .86-.687 1.559-1.534 1.559h-3.068c-.847 0-1.534-.698-1.534-1.56C28.19.7 28.877 0 29.724 0h3.068zm7.158 0c.847 0 1.534.698 1.534 1.56 0 .86-.687 1.559-1.534 1.559h-3.068c-.847 0-1.534-.698-1.534-1.56C35.349.7 36.036 0 36.883 0h3.068z"/>
        <path fill="#E30513" d="M10.748 0h19.54L56.25 25.934v45.443c0 5.936-4.812 10.748-10.748 10.748H10.748C4.812 82.125 0 77.313 0 71.377V10.748C0 4.812 4.812 0 10.748 0z"/>
        <path fill="#FFF" d="M29.615 42.278c2.503.053 5.03.39 7.376 1.3 2.95 1.094 5.459 3.26 7.06 5.955 1.816 3.065 2.564 6.686 2.452 10.225-.022.15.062.435-.175.433-1.5.269-3.023.397-4.548.382-3.08.051-6.223-.44-9.01-1.798-3.086-1.495-5.44-4.262-6.768-7.391-1.171-2.735-1.507-5.746-1.435-8.697 1.662-.308 3.36-.41 5.048-.41zm-7.76-20.403v38.104H9.737l-.001-38.104h12.119zm21.474-.2c1.058.076 2.121.157 3.157.395.189 3.698-.563 7.5-2.465 10.705-.921 1.545-2.125 2.905-3.547 4.008-1.223.926-2.59 1.646-4.045 2.132-2.127.731-4.38 1.034-6.623 1.088-1.754.016-3.519-.078-5.243-.416-.032-2.368.129-4.77.843-7.042 1.082-3.63 3.508-6.92 6.846-8.787 1.635-.9 3.43-1.469 5.266-1.783h-.007c1.914-.351 3.874-.387 5.818-.3z"/>
        <path fill="#B12E2C" d="M30.288 0L56.25 25.962H41.037c-5.936 0-10.749-4.813-10.749-10.749V0z"/>
        <g fill="#864645">
            <path d="M47.977.535c.81.255 1.262 1.129 1.011 1.952-.251.822-1.11 1.282-1.92 1.027-.827-.261-1.693-.395-2.58-.395-.847 0-1.533-.698-1.533-1.56C42.955.7 43.64 0 44.489 0c1.195 0 2.368.182 3.488.535zm6.438 5.006c.455.726.245 1.69-.47 2.152-.714.463-1.663.25-2.118-.477-.47-.75-1.048-1.424-1.715-2-.646-.557-.725-1.541-.177-2.198.549-.656 1.517-.737 2.163-.18.9.778 1.682 1.69 2.317 2.703zm1.835 7.86c0 .86-.687 1.56-1.534 1.56s-1.534-.699-1.534-1.56v-1.47c-.001-.479-.04-.953-.115-1.418-.137-.85.43-1.652 1.266-1.791.836-.14 1.625.436 1.762 1.286.101.63.153 1.27.155 1.92V13.4zm0 7.277c0 .86-.687 1.559-1.534 1.559s-1.534-.698-1.534-1.56V17.56c0-.861.687-1.56 1.534-1.56s1.534.699 1.534 1.56v3.119zm0 7.277c0 .86-.687 1.559-1.534 1.559s-1.534-.698-1.534-1.56v-3.118c0-.861.687-1.56 1.534-1.56s1.534.699 1.534 1.56v3.119zm0 7.276c0 .862-.687 1.56-1.534 1.56s-1.534-.698-1.534-1.56v-3.118c0-.861.687-1.56 1.534-1.56s1.534.699 1.534 1.56v3.118zm0 7.277c0 .862-.687 1.56-1.534 1.56s-1.534-.698-1.534-1.56V39.39c0-.862.687-1.56 1.534-1.56s1.534.698 1.534 1.56v3.118zm0 7.277c0 .861-.687 1.56-1.534 1.56s-1.534-.699-1.534-1.56v-3.118c0-.862.687-1.56 1.534-1.56s1.534.698 1.534 1.56v3.118zm0 7.277c0 .861-.687 1.56-1.534 1.56s-1.534-.699-1.534-1.56v-3.119c0-.86.687-1.559 1.534-1.559s1.534.698 1.534 1.56v3.118zm0 7.277c0 .861-.687 1.56-1.534 1.56s-1.534-.699-1.534-1.56V61.22c0-.86.687-1.559 1.534-1.559s1.534.698 1.534 1.56v3.118zm-.112 7.488c-.117.853-.891 1.448-1.73 1.33-.84-.119-1.426-.906-1.31-1.76.056-.403.084-.813.084-1.227v-1.673c0-.86.687-1.559 1.534-1.559s1.534.698 1.534 1.56v1.672c0 .558-.038 1.11-.112 1.657zm-3.859 7.3c-.635.57-1.604.51-2.166-.135-.56-.645-.502-1.63.133-2.201.655-.59 1.22-1.276 1.675-2.035.44-.735 1.384-.969 2.108-.521.724.448.953 1.407.513 2.143-.614 1.026-1.378 1.953-2.263 2.749zm-7.488 2.994c-.847.022-1.551-.658-1.573-1.52-.021-.86.648-1.576 1.495-1.598.884-.022 1.747-.179 2.568-.462.802-.276 1.673.16 1.945.977.272.815-.158 1.7-.96 1.977-1.113.383-2.282.595-3.475.626zm-7.238.004c-.847 0-1.534-.698-1.534-1.56 0-.86.687-1.559 1.534-1.559h3.068c.847 0 1.534.698 1.534 1.56 0 .86-.687 1.559-1.534 1.559h-3.068zm-7.16 0c-.847 0-1.533-.698-1.533-1.56 0-.86.686-1.559 1.534-1.559h3.068c.847 0 1.534.698 1.534 1.56 0 .86-.687 1.559-1.534 1.559h-3.068zm-7.158 0c-.848 0-1.534-.698-1.534-1.56 0-.86.686-1.559 1.534-1.559h3.068c.847 0 1.534.698 1.534 1.56 0 .86-.687 1.559-1.534 1.559h-3.068zm-7.16 0c-.847 0-1.534-.698-1.534-1.56 0-.86.687-1.559 1.535-1.559h3.068c.847 0 1.534.698 1.534 1.56 0 .86-.687 1.559-1.534 1.559h-3.068zm-7.553-.46c-.814-.236-1.286-1.1-1.053-1.927.233-.828 1.082-1.308 1.897-1.071.771.224 1.575.34 2.395.34h.224c.847 0 1.534.697 1.534 1.559 0 .86-.687 1.559-1.534 1.559h-.224c-1.106 0-2.194-.156-3.239-.46zm-6.545-4.859c-.47-.716-.281-1.684.423-2.163.704-.478 1.657-.286 2.128.43.486.739 1.08 1.4 1.758 1.961.658.543.758 1.525.224 2.194-.534.668-1.5.77-2.158.227-.917-.757-1.718-1.65-2.375-2.649zM0 68.951c0-.861.687-1.56 1.534-1.56s1.534.699 1.534 1.56v1.245c.002.545.052 1.083.148 1.61.156.846-.393 1.66-1.226 1.818-.833.159-1.634-.4-1.79-1.246C.07 71.666.002 70.94 0 70.2v-1.249zm0-7.277c0-.86.687-1.56 1.534-1.56s1.534.7 1.534 1.56v3.119c0 .861-.687 1.56-1.534 1.56S0 65.653 0 64.792v-3.119zm0-7.277c0-.86.687-1.559 1.534-1.559s1.534.698 1.534 1.56v3.118c0 .861-.687 1.56-1.534 1.56S0 58.376 0 57.515v-3.119zm0-7.277c0-.86.687-1.559 1.534-1.559s1.534.698 1.534 1.56v3.118c0 .861-.687 1.56-1.534 1.56S0 51.1 0 50.238V47.12zm0-7.276c0-.862.687-1.56 1.534-1.56s1.534.698 1.534 1.56v3.118c0 .861-.687 1.56-1.534 1.56S0 43.823 0 42.962v-3.118zm0-7.277c0-.862.687-1.56 1.534-1.56s1.534.698 1.534 1.56v3.118c0 .862-.687 1.56-1.534 1.56S0 36.547 0 35.685v-3.118zm0-7.277c0-.861.687-1.56 1.534-1.56s1.534.699 1.534 1.56v3.118c0 .862-.687 1.56-1.534 1.56S0 29.27 0 28.408V25.29zm0-7.277c0-.861.687-1.56 1.534-1.56s1.534.699 1.534 1.56v3.119c0 .86-.687 1.559-1.534 1.559S0 21.993 0 21.13v-3.118zm.08-7.455C.178 9.702.94 9.09 1.78 9.189c.842.1 1.444.874 1.346 1.73-.039.342-.059.687-.059 1.036v1.9c0 .86-.687 1.559-1.534 1.559S0 14.716 0 13.854v-1.9c0-.468.027-.935.08-1.396zM3.774 3.18c.622-.585 1.592-.547 2.168.085.575.632.538 1.618-.084 2.203-.642.605-1.192 1.304-1.63 2.073-.423.745-1.362 1-2.095.57-.734-.431-.985-1.385-.56-2.13.59-1.041 1.334-1.985 2.2-2.801zM11.282.01c.847-.035 1.56.635 1.594 1.495.034.86-.624 1.586-1.47 1.62-.884.037-1.744.207-2.56.503-.799.288-1.676-.135-1.96-.946C6.6 1.87 7.018.978 7.816.69 8.924.289 10.09.058 11.282.01zM18.474 0c.847 0 1.534.698 1.534 1.56 0 .86-.687 1.559-1.534 1.559h-3.068c-.848 0-1.534-.698-1.534-1.56C13.872.7 14.558 0 15.406 0h3.068zm7.159 0c.847 0 1.534.698 1.534 1.56 0 .86-.687 1.559-1.534 1.559h-3.068c-.847 0-1.534-.698-1.534-1.56C21.03.7 21.718 0 22.565 0h3.068zm7.16 0c.846 0 1.533.698 1.533 1.56 0 .86-.687 1.559-1.534 1.559h-3.068c-.847 0-1.534-.698-1.534-1.56C28.19.7 28.877 0 29.724 0h3.068zm7.158 0c.847 0 1.534.698 1.534 1.56 0 .86-.687 1.559-1.534 1.559h-3.068c-.847 0-1.534-.698-1.534-1.56C35.349.7 36.036 0 36.883 0h3.068zM29.615 42.278c2.503.053 5.03.39 7.376 1.3 2.95 1.094 5.459 3.26 7.06 5.955 1.816 3.065 2.564 6.686 2.452 10.225-.022.15.062.435-.175.433-1.5.269-3.023.397-4.548.382-3.08.051-6.223-.44-9.01-1.798-3.086-1.495-5.44-4.262-6.768-7.391-1.171-2.735-1.507-5.746-1.435-8.697 1.662-.308 3.36-.41 5.048-.41zm-7.76-20.403v38.104H9.737l-.001-38.104h12.119zm21.474-.2c1.058.076 2.121.157 3.157.395.189 3.698-.563 7.5-2.465 10.705-.921 1.545-2.125 2.905-3.547 4.008-1.223.926-2.59 1.646-4.045 2.132-2.127.731-4.38 1.034-6.623 1.088-1.754.016-3.519-.078-5.243-.416-.032-2.368.129-4.77.843-7.042 1.082-3.63 3.508-6.92 6.846-8.787 1.635-.9 3.43-1.469 5.266-1.783h-.007c1.914-.351 3.874-.387 5.818-.3z" transform="translate(61.875)"/>
        </g>
        <g fill="#864645">
            <path d="M47.977.535c.81.255 1.262 1.129 1.011 1.952-.251.822-1.11 1.282-1.92 1.027-.827-.261-1.693-.395-2.58-.395-.847 0-1.533-.698-1.533-1.56C42.955.7 43.64 0 44.489 0c1.195 0 2.368.182 3.488.535zm6.438 5.006c.455.726.245 1.69-.47 2.152-.714.463-1.663.25-2.118-.477-.47-.75-1.048-1.424-1.715-2-.646-.557-.725-1.541-.177-2.198.549-.656 1.517-.737 2.163-.18.9.778 1.682 1.69 2.317 2.703zm1.835 7.86c0 .86-.687 1.56-1.534 1.56s-1.534-.699-1.534-1.56v-1.47c-.001-.479-.04-.953-.115-1.418-.137-.85.43-1.652 1.266-1.791.836-.14 1.625.436 1.762 1.286.101.63.153 1.27.155 1.92V13.4zm0 7.277c0 .86-.687 1.559-1.534 1.559s-1.534-.698-1.534-1.56V17.56c0-.861.687-1.56 1.534-1.56s1.534.699 1.534 1.56v3.119zm0 7.277c0 .86-.687 1.559-1.534 1.559s-1.534-.698-1.534-1.56v-3.118c0-.861.687-1.56 1.534-1.56s1.534.699 1.534 1.56v3.119zm0 7.276c0 .862-.687 1.56-1.534 1.56s-1.534-.698-1.534-1.56v-3.118c0-.861.687-1.56 1.534-1.56s1.534.699 1.534 1.56v3.118zm0 7.277c0 .862-.687 1.56-1.534 1.56s-1.534-.698-1.534-1.56V39.39c0-.862.687-1.56 1.534-1.56s1.534.698 1.534 1.56v3.118zm0 7.277c0 .861-.687 1.56-1.534 1.56s-1.534-.699-1.534-1.56v-3.118c0-.862.687-1.56 1.534-1.56s1.534.698 1.534 1.56v3.118zm0 7.277c0 .861-.687 1.56-1.534 1.56s-1.534-.699-1.534-1.56v-3.119c0-.86.687-1.559 1.534-1.559s1.534.698 1.534 1.56v3.118zm0 7.277c0 .861-.687 1.56-1.534 1.56s-1.534-.699-1.534-1.56V61.22c0-.86.687-1.559 1.534-1.559s1.534.698 1.534 1.56v3.118zm-.112 7.488c-.117.853-.891 1.448-1.73 1.33-.84-.119-1.426-.906-1.31-1.76.056-.403.084-.813.084-1.227v-1.673c0-.86.687-1.559 1.534-1.559s1.534.698 1.534 1.56v1.672c0 .558-.038 1.11-.112 1.657zm-3.859 7.3c-.635.57-1.604.51-2.166-.135-.56-.645-.502-1.63.133-2.201.655-.59 1.22-1.276 1.675-2.035.44-.735 1.384-.969 2.108-.521.724.448.953 1.407.513 2.143-.614 1.026-1.378 1.953-2.263 2.749zm-7.488 2.994c-.847.022-1.551-.658-1.573-1.52-.021-.86.648-1.576 1.495-1.598.884-.022 1.747-.179 2.568-.462.802-.276 1.673.16 1.945.977.272.815-.158 1.7-.96 1.977-1.113.383-2.282.595-3.475.626zm-7.238.004c-.847 0-1.534-.698-1.534-1.56 0-.86.687-1.559 1.534-1.559h3.068c.847 0 1.534.698 1.534 1.56 0 .86-.687 1.559-1.534 1.559h-3.068zm-7.16 0c-.847 0-1.533-.698-1.533-1.56 0-.86.686-1.559 1.534-1.559h3.068c.847 0 1.534.698 1.534 1.56 0 .86-.687 1.559-1.534 1.559h-3.068zm-7.158 0c-.848 0-1.534-.698-1.534-1.56 0-.86.686-1.559 1.534-1.559h3.068c.847 0 1.534.698 1.534 1.56 0 .86-.687 1.559-1.534 1.559h-3.068zm-7.16 0c-.847 0-1.534-.698-1.534-1.56 0-.86.687-1.559 1.535-1.559h3.068c.847 0 1.534.698 1.534 1.56 0 .86-.687 1.559-1.534 1.559h-3.068zm-7.553-.46c-.814-.236-1.286-1.1-1.053-1.927.233-.828 1.082-1.308 1.897-1.071.771.224 1.575.34 2.395.34h.224c.847 0 1.534.697 1.534 1.559 0 .86-.687 1.559-1.534 1.559h-.224c-1.106 0-2.194-.156-3.239-.46zm-6.545-4.859c-.47-.716-.281-1.684.423-2.163.704-.478 1.657-.286 2.128.43.486.739 1.08 1.4 1.758 1.961.658.543.758 1.525.224 2.194-.534.668-1.5.77-2.158.227-.917-.757-1.718-1.65-2.375-2.649zM0 68.951c0-.861.687-1.56 1.534-1.56s1.534.699 1.534 1.56v1.245c.002.545.052 1.083.148 1.61.156.846-.393 1.66-1.226 1.818-.833.159-1.634-.4-1.79-1.246C.07 71.666.002 70.94 0 70.2v-1.249zm0-7.277c0-.86.687-1.56 1.534-1.56s1.534.7 1.534 1.56v3.119c0 .861-.687 1.56-1.534 1.56S0 65.653 0 64.792v-3.119zm0-7.277c0-.86.687-1.559 1.534-1.559s1.534.698 1.534 1.56v3.118c0 .861-.687 1.56-1.534 1.56S0 58.376 0 57.515v-3.119zm0-7.277c0-.86.687-1.559 1.534-1.559s1.534.698 1.534 1.56v3.118c0 .861-.687 1.56-1.534 1.56S0 51.1 0 50.238V47.12zm0-7.276c0-.862.687-1.56 1.534-1.56s1.534.698 1.534 1.56v3.118c0 .861-.687 1.56-1.534 1.56S0 43.823 0 42.962v-3.118zm0-7.277c0-.862.687-1.56 1.534-1.56s1.534.698 1.534 1.56v3.118c0 .862-.687 1.56-1.534 1.56S0 36.547 0 35.685v-3.118zm0-7.277c0-.861.687-1.56 1.534-1.56s1.534.699 1.534 1.56v3.118c0 .862-.687 1.56-1.534 1.56S0 29.27 0 28.408V25.29zm0-7.277c0-.861.687-1.56 1.534-1.56s1.534.699 1.534 1.56v3.119c0 .86-.687 1.559-1.534 1.559S0 21.993 0 21.13v-3.118zm.08-7.455C.178 9.702.94 9.09 1.78 9.189c.842.1 1.444.874 1.346 1.73-.039.342-.059.687-.059 1.036v1.9c0 .86-.687 1.559-1.534 1.559S0 14.716 0 13.854v-1.9c0-.468.027-.935.08-1.396zM3.774 3.18c.622-.585 1.592-.547 2.168.085.575.632.538 1.618-.084 2.203-.642.605-1.192 1.304-1.63 2.073-.423.745-1.362 1-2.095.57-.734-.431-.985-1.385-.56-2.13.59-1.041 1.334-1.985 2.2-2.801zM11.282.01c.847-.035 1.56.635 1.594 1.495.034.86-.624 1.586-1.47 1.62-.884.037-1.744.207-2.56.503-.799.288-1.676-.135-1.96-.946C6.6 1.87 7.018.978 7.816.69 8.924.289 10.09.058 11.282.01zM18.474 0c.847 0 1.534.698 1.534 1.56 0 .86-.687 1.559-1.534 1.559h-3.068c-.848 0-1.534-.698-1.534-1.56C13.872.7 14.558 0 15.406 0h3.068zm7.159 0c.847 0 1.534.698 1.534 1.56 0 .86-.687 1.559-1.534 1.559h-3.068c-.847 0-1.534-.698-1.534-1.56C21.03.7 21.718 0 22.565 0h3.068zm7.16 0c.846 0 1.533.698 1.533 1.56 0 .86-.687 1.559-1.534 1.559h-3.068c-.847 0-1.534-.698-1.534-1.56C28.19.7 28.877 0 29.724 0h3.068zm7.158 0c.847 0 1.534.698 1.534 1.56 0 .86-.687 1.559-1.534 1.559h-3.068c-.847 0-1.534-.698-1.534-1.56C35.349.7 36.036 0 36.883 0h3.068zM29.615 42.278c2.503.053 5.03.39 7.376 1.3 2.95 1.094 5.459 3.26 7.06 5.955 1.816 3.065 2.564 6.686 2.452 10.225-.022.15.062.435-.175.433-1.5.269-3.023.397-4.548.382-3.08.051-6.223-.44-9.01-1.798-3.086-1.495-5.44-4.262-6.768-7.391-1.171-2.735-1.507-5.746-1.435-8.697 1.662-.308 3.36-.41 5.048-.41zm-7.76-20.403v38.104H9.737l-.001-38.104h12.119zm21.474-.2c1.058.076 2.121.157 3.157.395.189 3.698-.563 7.5-2.465 10.705-.921 1.545-2.125 2.905-3.547 4.008-1.223.926-2.59 1.646-4.045 2.132-2.127.731-4.38 1.034-6.623 1.088-1.754.016-3.519-.078-5.243-.416-.032-2.368.129-4.77.843-7.042 1.082-3.63 3.508-6.92 6.846-8.787 1.635-.9 3.43-1.469 5.266-1.783h-.007c1.914-.351 3.874-.387 5.818-.3z" transform="translate(123.75)"/>
        </g>
        <g fill="#864645">
            <path d="M47.977.535c.81.255 1.262 1.129 1.011 1.952-.251.822-1.11 1.282-1.92 1.027-.827-.261-1.693-.395-2.58-.395-.847 0-1.533-.698-1.533-1.56C42.955.7 43.64 0 44.489 0c1.195 0 2.368.182 3.488.535zm6.438 5.006c.455.726.245 1.69-.47 2.152-.714.463-1.663.25-2.118-.477-.47-.75-1.048-1.424-1.715-2-.646-.557-.725-1.541-.177-2.198.549-.656 1.517-.737 2.163-.18.9.778 1.682 1.69 2.317 2.703zm1.835 7.86c0 .86-.687 1.56-1.534 1.56s-1.534-.699-1.534-1.56v-1.47c-.001-.479-.04-.953-.115-1.418-.137-.85.43-1.652 1.266-1.791.836-.14 1.625.436 1.762 1.286.101.63.153 1.27.155 1.92V13.4zm0 7.277c0 .86-.687 1.559-1.534 1.559s-1.534-.698-1.534-1.56V17.56c0-.861.687-1.56 1.534-1.56s1.534.699 1.534 1.56v3.119zm0 7.277c0 .86-.687 1.559-1.534 1.559s-1.534-.698-1.534-1.56v-3.118c0-.861.687-1.56 1.534-1.56s1.534.699 1.534 1.56v3.119zm0 7.276c0 .862-.687 1.56-1.534 1.56s-1.534-.698-1.534-1.56v-3.118c0-.861.687-1.56 1.534-1.56s1.534.699 1.534 1.56v3.118zm0 7.277c0 .862-.687 1.56-1.534 1.56s-1.534-.698-1.534-1.56V39.39c0-.862.687-1.56 1.534-1.56s1.534.698 1.534 1.56v3.118zm0 7.277c0 .861-.687 1.56-1.534 1.56s-1.534-.699-1.534-1.56v-3.118c0-.862.687-1.56 1.534-1.56s1.534.698 1.534 1.56v3.118zm0 7.277c0 .861-.687 1.56-1.534 1.56s-1.534-.699-1.534-1.56v-3.119c0-.86.687-1.559 1.534-1.559s1.534.698 1.534 1.56v3.118zm0 7.277c0 .861-.687 1.56-1.534 1.56s-1.534-.699-1.534-1.56V61.22c0-.86.687-1.559 1.534-1.559s1.534.698 1.534 1.56v3.118zm-.112 7.488c-.117.853-.891 1.448-1.73 1.33-.84-.119-1.426-.906-1.31-1.76.056-.403.084-.813.084-1.227v-1.673c0-.86.687-1.559 1.534-1.559s1.534.698 1.534 1.56v1.672c0 .558-.038 1.11-.112 1.657zm-3.859 7.3c-.635.57-1.604.51-2.166-.135-.56-.645-.502-1.63.133-2.201.655-.59 1.22-1.276 1.675-2.035.44-.735 1.384-.969 2.108-.521.724.448.953 1.407.513 2.143-.614 1.026-1.378 1.953-2.263 2.749zm-7.488 2.994c-.847.022-1.551-.658-1.573-1.52-.021-.86.648-1.576 1.495-1.598.884-.022 1.747-.179 2.568-.462.802-.276 1.673.16 1.945.977.272.815-.158 1.7-.96 1.977-1.113.383-2.282.595-3.475.626zm-7.238.004c-.847 0-1.534-.698-1.534-1.56 0-.86.687-1.559 1.534-1.559h3.068c.847 0 1.534.698 1.534 1.56 0 .86-.687 1.559-1.534 1.559h-3.068zm-7.16 0c-.847 0-1.533-.698-1.533-1.56 0-.86.686-1.559 1.534-1.559h3.068c.847 0 1.534.698 1.534 1.56 0 .86-.687 1.559-1.534 1.559h-3.068zm-7.158 0c-.848 0-1.534-.698-1.534-1.56 0-.86.686-1.559 1.534-1.559h3.068c.847 0 1.534.698 1.534 1.56 0 .86-.687 1.559-1.534 1.559h-3.068zm-7.16 0c-.847 0-1.534-.698-1.534-1.56 0-.86.687-1.559 1.535-1.559h3.068c.847 0 1.534.698 1.534 1.56 0 .86-.687 1.559-1.534 1.559h-3.068zm-7.553-.46c-.814-.236-1.286-1.1-1.053-1.927.233-.828 1.082-1.308 1.897-1.071.771.224 1.575.34 2.395.34h.224c.847 0 1.534.697 1.534 1.559 0 .86-.687 1.559-1.534 1.559h-.224c-1.106 0-2.194-.156-3.239-.46zm-6.545-4.859c-.47-.716-.281-1.684.423-2.163.704-.478 1.657-.286 2.128.43.486.739 1.08 1.4 1.758 1.961.658.543.758 1.525.224 2.194-.534.668-1.5.77-2.158.227-.917-.757-1.718-1.65-2.375-2.649zM0 68.951c0-.861.687-1.56 1.534-1.56s1.534.699 1.534 1.56v1.245c.002.545.052 1.083.148 1.61.156.846-.393 1.66-1.226 1.818-.833.159-1.634-.4-1.79-1.246C.07 71.666.002 70.94 0 70.2v-1.249zm0-7.277c0-.86.687-1.56 1.534-1.56s1.534.7 1.534 1.56v3.119c0 .861-.687 1.56-1.534 1.56S0 65.653 0 64.792v-3.119zm0-7.277c0-.86.687-1.559 1.534-1.559s1.534.698 1.534 1.56v3.118c0 .861-.687 1.56-1.534 1.56S0 58.376 0 57.515v-3.119zm0-7.277c0-.86.687-1.559 1.534-1.559s1.534.698 1.534 1.56v3.118c0 .861-.687 1.56-1.534 1.56S0 51.1 0 50.238V47.12zm0-7.276c0-.862.687-1.56 1.534-1.56s1.534.698 1.534 1.56v3.118c0 .861-.687 1.56-1.534 1.56S0 43.823 0 42.962v-3.118zm0-7.277c0-.862.687-1.56 1.534-1.56s1.534.698 1.534 1.56v3.118c0 .862-.687 1.56-1.534 1.56S0 36.547 0 35.685v-3.118zm0-7.277c0-.861.687-1.56 1.534-1.56s1.534.699 1.534 1.56v3.118c0 .862-.687 1.56-1.534 1.56S0 29.27 0 28.408V25.29zm0-7.277c0-.861.687-1.56 1.534-1.56s1.534.699 1.534 1.56v3.119c0 .86-.687 1.559-1.534 1.559S0 21.993 0 21.13v-3.118zm.08-7.455C.178 9.702.94 9.09 1.78 9.189c.842.1 1.444.874 1.346 1.73-.039.342-.059.687-.059 1.036v1.9c0 .86-.687 1.559-1.534 1.559S0 14.716 0 13.854v-1.9c0-.468.027-.935.08-1.396zM3.774 3.18c.622-.585 1.592-.547 2.168.085.575.632.538 1.618-.084 2.203-.642.605-1.192 1.304-1.63 2.073-.423.745-1.362 1-2.095.57-.734-.431-.985-1.385-.56-2.13.59-1.041 1.334-1.985 2.2-2.801zM11.282.01c.847-.035 1.56.635 1.594 1.495.034.86-.624 1.586-1.47 1.62-.884.037-1.744.207-2.56.503-.799.288-1.676-.135-1.96-.946C6.6 1.87 7.018.978 7.816.69 8.924.289 10.09.058 11.282.01zM18.474 0c.847 0 1.534.698 1.534 1.56 0 .86-.687 1.559-1.534 1.559h-3.068c-.848 0-1.534-.698-1.534-1.56C13.872.7 14.558 0 15.406 0h3.068zm7.159 0c.847 0 1.534.698 1.534 1.56 0 .86-.687 1.559-1.534 1.559h-3.068c-.847 0-1.534-.698-1.534-1.56C21.03.7 21.718 0 22.565 0h3.068zm7.16 0c.846 0 1.533.698 1.533 1.56 0 .86-.687 1.559-1.534 1.559h-3.068c-.847 0-1.534-.698-1.534-1.56C28.19.7 28.877 0 29.724 0h3.068zm7.158 0c.847 0 1.534.698 1.534 1.56 0 .86-.687 1.559-1.534 1.559h-3.068c-.847 0-1.534-.698-1.534-1.56C35.349.7 36.036 0 36.883 0h3.068zM29.615 42.278c2.503.053 5.03.39 7.376 1.3 2.95 1.094 5.459 3.26 7.06 5.955 1.816 3.065 2.564 6.686 2.452 10.225-.022.15.062.435-.175.433-1.5.269-3.023.397-4.548.382-3.08.051-6.223-.44-9.01-1.798-3.086-1.495-5.44-4.262-6.768-7.391-1.171-2.735-1.507-5.746-1.435-8.697 1.662-.308 3.36-.41 5.048-.41zm-7.76-20.403v38.104H9.737l-.001-38.104h12.119zm21.474-.2c1.058.076 2.121.157 3.157.395.189 3.698-.563 7.5-2.465 10.705-.921 1.545-2.125 2.905-3.547 4.008-1.223.926-2.59 1.646-4.045 2.132-2.127.731-4.38 1.034-6.623 1.088-1.754.016-3.519-.078-5.243-.416-.032-2.368.129-4.77.843-7.042 1.082-3.63 3.508-6.92 6.846-8.787 1.635-.9 3.43-1.469 5.266-1.783h-.007c1.914-.351 3.874-.387 5.818-.3z" transform="translate(0 97.875)"/>
        </g>
        <g fill="#864645">
            <path d="M47.977.535c.81.255 1.262 1.129 1.011 1.952-.251.822-1.11 1.282-1.92 1.027-.827-.261-1.693-.395-2.58-.395-.847 0-1.533-.698-1.533-1.56C42.955.7 43.64 0 44.489 0c1.195 0 2.368.182 3.488.535zm6.438 5.006c.455.726.245 1.69-.47 2.152-.714.463-1.663.25-2.118-.477-.47-.75-1.048-1.424-1.715-2-.646-.557-.725-1.541-.177-2.198.549-.656 1.517-.737 2.163-.18.9.778 1.682 1.69 2.317 2.703zm1.835 7.86c0 .86-.687 1.56-1.534 1.56s-1.534-.699-1.534-1.56v-1.47c-.001-.479-.04-.953-.115-1.418-.137-.85.43-1.652 1.266-1.791.836-.14 1.625.436 1.762 1.286.101.63.153 1.27.155 1.92V13.4zm0 7.277c0 .86-.687 1.559-1.534 1.559s-1.534-.698-1.534-1.56V17.56c0-.861.687-1.56 1.534-1.56s1.534.699 1.534 1.56v3.119zm0 7.277c0 .86-.687 1.559-1.534 1.559s-1.534-.698-1.534-1.56v-3.118c0-.861.687-1.56 1.534-1.56s1.534.699 1.534 1.56v3.119zm0 7.276c0 .862-.687 1.56-1.534 1.56s-1.534-.698-1.534-1.56v-3.118c0-.861.687-1.56 1.534-1.56s1.534.699 1.534 1.56v3.118zm0 7.277c0 .862-.687 1.56-1.534 1.56s-1.534-.698-1.534-1.56V39.39c0-.862.687-1.56 1.534-1.56s1.534.698 1.534 1.56v3.118zm0 7.277c0 .861-.687 1.56-1.534 1.56s-1.534-.699-1.534-1.56v-3.118c0-.862.687-1.56 1.534-1.56s1.534.698 1.534 1.56v3.118zm0 7.277c0 .861-.687 1.56-1.534 1.56s-1.534-.699-1.534-1.56v-3.119c0-.86.687-1.559 1.534-1.559s1.534.698 1.534 1.56v3.118zm0 7.277c0 .861-.687 1.56-1.534 1.56s-1.534-.699-1.534-1.56V61.22c0-.86.687-1.559 1.534-1.559s1.534.698 1.534 1.56v3.118zm-.112 7.488c-.117.853-.891 1.448-1.73 1.33-.84-.119-1.426-.906-1.31-1.76.056-.403.084-.813.084-1.227v-1.673c0-.86.687-1.559 1.534-1.559s1.534.698 1.534 1.56v1.672c0 .558-.038 1.11-.112 1.657zm-3.859 7.3c-.635.57-1.604.51-2.166-.135-.56-.645-.502-1.63.133-2.201.655-.59 1.22-1.276 1.675-2.035.44-.735 1.384-.969 2.108-.521.724.448.953 1.407.513 2.143-.614 1.026-1.378 1.953-2.263 2.749zm-7.488 2.994c-.847.022-1.551-.658-1.573-1.52-.021-.86.648-1.576 1.495-1.598.884-.022 1.747-.179 2.568-.462.802-.276 1.673.16 1.945.977.272.815-.158 1.7-.96 1.977-1.113.383-2.282.595-3.475.626zm-7.238.004c-.847 0-1.534-.698-1.534-1.56 0-.86.687-1.559 1.534-1.559h3.068c.847 0 1.534.698 1.534 1.56 0 .86-.687 1.559-1.534 1.559h-3.068zm-7.16 0c-.847 0-1.533-.698-1.533-1.56 0-.86.686-1.559 1.534-1.559h3.068c.847 0 1.534.698 1.534 1.56 0 .86-.687 1.559-1.534 1.559h-3.068zm-7.158 0c-.848 0-1.534-.698-1.534-1.56 0-.86.686-1.559 1.534-1.559h3.068c.847 0 1.534.698 1.534 1.56 0 .86-.687 1.559-1.534 1.559h-3.068zm-7.16 0c-.847 0-1.534-.698-1.534-1.56 0-.86.687-1.559 1.535-1.559h3.068c.847 0 1.534.698 1.534 1.56 0 .86-.687 1.559-1.534 1.559h-3.068zm-7.553-.46c-.814-.236-1.286-1.1-1.053-1.927.233-.828 1.082-1.308 1.897-1.071.771.224 1.575.34 2.395.34h.224c.847 0 1.534.697 1.534 1.559 0 .86-.687 1.559-1.534 1.559h-.224c-1.106 0-2.194-.156-3.239-.46zm-6.545-4.859c-.47-.716-.281-1.684.423-2.163.704-.478 1.657-.286 2.128.43.486.739 1.08 1.4 1.758 1.961.658.543.758 1.525.224 2.194-.534.668-1.5.77-2.158.227-.917-.757-1.718-1.65-2.375-2.649zM0 68.951c0-.861.687-1.56 1.534-1.56s1.534.699 1.534 1.56v1.245c.002.545.052 1.083.148 1.61.156.846-.393 1.66-1.226 1.818-.833.159-1.634-.4-1.79-1.246C.07 71.666.002 70.94 0 70.2v-1.249zm0-7.277c0-.86.687-1.56 1.534-1.56s1.534.7 1.534 1.56v3.119c0 .861-.687 1.56-1.534 1.56S0 65.653 0 64.792v-3.119zm0-7.277c0-.86.687-1.559 1.534-1.559s1.534.698 1.534 1.56v3.118c0 .861-.687 1.56-1.534 1.56S0 58.376 0 57.515v-3.119zm0-7.277c0-.86.687-1.559 1.534-1.559s1.534.698 1.534 1.56v3.118c0 .861-.687 1.56-1.534 1.56S0 51.1 0 50.238V47.12zm0-7.276c0-.862.687-1.56 1.534-1.56s1.534.698 1.534 1.56v3.118c0 .861-.687 1.56-1.534 1.56S0 43.823 0 42.962v-3.118zm0-7.277c0-.862.687-1.56 1.534-1.56s1.534.698 1.534 1.56v3.118c0 .862-.687 1.56-1.534 1.56S0 36.547 0 35.685v-3.118zm0-7.277c0-.861.687-1.56 1.534-1.56s1.534.699 1.534 1.56v3.118c0 .862-.687 1.56-1.534 1.56S0 29.27 0 28.408V25.29zm0-7.277c0-.861.687-1.56 1.534-1.56s1.534.699 1.534 1.56v3.119c0 .86-.687 1.559-1.534 1.559S0 21.993 0 21.13v-3.118zm.08-7.455C.178 9.702.94 9.09 1.78 9.189c.842.1 1.444.874 1.346 1.73-.039.342-.059.687-.059 1.036v1.9c0 .86-.687 1.559-1.534 1.559S0 14.716 0 13.854v-1.9c0-.468.027-.935.08-1.396zM3.774 3.18c.622-.585 1.592-.547 2.168.085.575.632.538 1.618-.084 2.203-.642.605-1.192 1.304-1.63 2.073-.423.745-1.362 1-2.095.57-.734-.431-.985-1.385-.56-2.13.59-1.041 1.334-1.985 2.2-2.801zM11.282.01c.847-.035 1.56.635 1.594 1.495.034.86-.624 1.586-1.47 1.62-.884.037-1.744.207-2.56.503-.799.288-1.676-.135-1.96-.946C6.6 1.87 7.018.978 7.816.69 8.924.289 10.09.058 11.282.01zM18.474 0c.847 0 1.534.698 1.534 1.56 0 .86-.687 1.559-1.534 1.559h-3.068c-.848 0-1.534-.698-1.534-1.56C13.872.7 14.558 0 15.406 0h3.068zm7.159 0c.847 0 1.534.698 1.534 1.56 0 .86-.687 1.559-1.534 1.559h-3.068c-.847 0-1.534-.698-1.534-1.56C21.03.7 21.718 0 22.565 0h3.068zm7.16 0c.846 0 1.533.698 1.533 1.56 0 .86-.687 1.559-1.534 1.559h-3.068c-.847 0-1.534-.698-1.534-1.56C28.19.7 28.877 0 29.724 0h3.068zm7.158 0c.847 0 1.534.698 1.534 1.56 0 .86-.687 1.559-1.534 1.559h-3.068c-.847 0-1.534-.698-1.534-1.56C35.349.7 36.036 0 36.883 0h3.068zM29.615 42.278c2.503.053 5.03.39 7.376 1.3 2.95 1.094 5.459 3.26 7.06 5.955 1.816 3.065 2.564 6.686 2.452 10.225-.022.15.062.435-.175.433-1.5.269-3.023.397-4.548.382-3.08.051-6.223-.44-9.01-1.798-3.086-1.495-5.44-4.262-6.768-7.391-1.171-2.735-1.507-5.746-1.435-8.697 1.662-.308 3.36-.41 5.048-.41zm-7.76-20.403v38.104H9.737l-.001-38.104h12.119zm21.474-.2c1.058.076 2.121.157 3.157.395.189 3.698-.563 7.5-2.465 10.705-.921 1.545-2.125 2.905-3.547 4.008-1.223.926-2.59 1.646-4.045 2.132-2.127.731-4.38 1.034-6.623 1.088-1.754.016-3.519-.078-5.243-.416-.032-2.368.129-4.77.843-7.042 1.082-3.63 3.508-6.92 6.846-8.787 1.635-.9 3.43-1.469 5.266-1.783h-.007c1.914-.351 3.874-.387 5.818-.3z" transform="translate(61.875 97.875)"/>
        </g>
        <g fill="#864645">
            <path d="M47.977.535c.81.255 1.262 1.129 1.011 1.952-.251.822-1.11 1.282-1.92 1.027-.827-.261-1.693-.395-2.58-.395-.847 0-1.533-.698-1.533-1.56C42.955.7 43.64 0 44.489 0c1.195 0 2.368.182 3.488.535zm6.438 5.006c.455.726.245 1.69-.47 2.152-.714.463-1.663.25-2.118-.477-.47-.75-1.048-1.424-1.715-2-.646-.557-.725-1.541-.177-2.198.549-.656 1.517-.737 2.163-.18.9.778 1.682 1.69 2.317 2.703zm1.835 7.86c0 .86-.687 1.56-1.534 1.56s-1.534-.699-1.534-1.56v-1.47c-.001-.479-.04-.953-.115-1.418-.137-.85.43-1.652 1.266-1.791.836-.14 1.625.436 1.762 1.286.101.63.153 1.27.155 1.92V13.4zm0 7.277c0 .86-.687 1.559-1.534 1.559s-1.534-.698-1.534-1.56V17.56c0-.861.687-1.56 1.534-1.56s1.534.699 1.534 1.56v3.119zm0 7.277c0 .86-.687 1.559-1.534 1.559s-1.534-.698-1.534-1.56v-3.118c0-.861.687-1.56 1.534-1.56s1.534.699 1.534 1.56v3.119zm0 7.276c0 .862-.687 1.56-1.534 1.56s-1.534-.698-1.534-1.56v-3.118c0-.861.687-1.56 1.534-1.56s1.534.699 1.534 1.56v3.118zm0 7.277c0 .862-.687 1.56-1.534 1.56s-1.534-.698-1.534-1.56V39.39c0-.862.687-1.56 1.534-1.56s1.534.698 1.534 1.56v3.118zm0 7.277c0 .861-.687 1.56-1.534 1.56s-1.534-.699-1.534-1.56v-3.118c0-.862.687-1.56 1.534-1.56s1.534.698 1.534 1.56v3.118zm0 7.277c0 .861-.687 1.56-1.534 1.56s-1.534-.699-1.534-1.56v-3.119c0-.86.687-1.559 1.534-1.559s1.534.698 1.534 1.56v3.118zm0 7.277c0 .861-.687 1.56-1.534 1.56s-1.534-.699-1.534-1.56V61.22c0-.86.687-1.559 1.534-1.559s1.534.698 1.534 1.56v3.118zm-.112 7.488c-.117.853-.891 1.448-1.73 1.33-.84-.119-1.426-.906-1.31-1.76.056-.403.084-.813.084-1.227v-1.673c0-.86.687-1.559 1.534-1.559s1.534.698 1.534 1.56v1.672c0 .558-.038 1.11-.112 1.657zm-3.859 7.3c-.635.57-1.604.51-2.166-.135-.56-.645-.502-1.63.133-2.201.655-.59 1.22-1.276 1.675-2.035.44-.735 1.384-.969 2.108-.521.724.448.953 1.407.513 2.143-.614 1.026-1.378 1.953-2.263 2.749zm-7.488 2.994c-.847.022-1.551-.658-1.573-1.52-.021-.86.648-1.576 1.495-1.598.884-.022 1.747-.179 2.568-.462.802-.276 1.673.16 1.945.977.272.815-.158 1.7-.96 1.977-1.113.383-2.282.595-3.475.626zm-7.238.004c-.847 0-1.534-.698-1.534-1.56 0-.86.687-1.559 1.534-1.559h3.068c.847 0 1.534.698 1.534 1.56 0 .86-.687 1.559-1.534 1.559h-3.068zm-7.16 0c-.847 0-1.533-.698-1.533-1.56 0-.86.686-1.559 1.534-1.559h3.068c.847 0 1.534.698 1.534 1.56 0 .86-.687 1.559-1.534 1.559h-3.068zm-7.158 0c-.848 0-1.534-.698-1.534-1.56 0-.86.686-1.559 1.534-1.559h3.068c.847 0 1.534.698 1.534 1.56 0 .86-.687 1.559-1.534 1.559h-3.068zm-7.16 0c-.847 0-1.534-.698-1.534-1.56 0-.86.687-1.559 1.535-1.559h3.068c.847 0 1.534.698 1.534 1.56 0 .86-.687 1.559-1.534 1.559h-3.068zm-7.553-.46c-.814-.236-1.286-1.1-1.053-1.927.233-.828 1.082-1.308 1.897-1.071.771.224 1.575.34 2.395.34h.224c.847 0 1.534.697 1.534 1.559 0 .86-.687 1.559-1.534 1.559h-.224c-1.106 0-2.194-.156-3.239-.46zm-6.545-4.859c-.47-.716-.281-1.684.423-2.163.704-.478 1.657-.286 2.128.43.486.739 1.08 1.4 1.758 1.961.658.543.758 1.525.224 2.194-.534.668-1.5.77-2.158.227-.917-.757-1.718-1.65-2.375-2.649zM0 68.951c0-.861.687-1.56 1.534-1.56s1.534.699 1.534 1.56v1.245c.002.545.052 1.083.148 1.61.156.846-.393 1.66-1.226 1.818-.833.159-1.634-.4-1.79-1.246C.07 71.666.002 70.94 0 70.2v-1.249zm0-7.277c0-.86.687-1.56 1.534-1.56s1.534.7 1.534 1.56v3.119c0 .861-.687 1.56-1.534 1.56S0 65.653 0 64.792v-3.119zm0-7.277c0-.86.687-1.559 1.534-1.559s1.534.698 1.534 1.56v3.118c0 .861-.687 1.56-1.534 1.56S0 58.376 0 57.515v-3.119zm0-7.277c0-.86.687-1.559 1.534-1.559s1.534.698 1.534 1.56v3.118c0 .861-.687 1.56-1.534 1.56S0 51.1 0 50.238V47.12zm0-7.276c0-.862.687-1.56 1.534-1.56s1.534.698 1.534 1.56v3.118c0 .861-.687 1.56-1.534 1.56S0 43.823 0 42.962v-3.118zm0-7.277c0-.862.687-1.56 1.534-1.56s1.534.698 1.534 1.56v3.118c0 .862-.687 1.56-1.534 1.56S0 36.547 0 35.685v-3.118zm0-7.277c0-.861.687-1.56 1.534-1.56s1.534.699 1.534 1.56v3.118c0 .862-.687 1.56-1.534 1.56S0 29.27 0 28.408V25.29zm0-7.277c0-.861.687-1.56 1.534-1.56s1.534.699 1.534 1.56v3.119c0 .86-.687 1.559-1.534 1.559S0 21.993 0 21.13v-3.118zm.08-7.455C.178 9.702.94 9.09 1.78 9.189c.842.1 1.444.874 1.346 1.73-.039.342-.059.687-.059 1.036v1.9c0 .86-.687 1.559-1.534 1.559S0 14.716 0 13.854v-1.9c0-.468.027-.935.08-1.396zM3.774 3.18c.622-.585 1.592-.547 2.168.085.575.632.538 1.618-.084 2.203-.642.605-1.192 1.304-1.63 2.073-.423.745-1.362 1-2.095.57-.734-.431-.985-1.385-.56-2.13.59-1.041 1.334-1.985 2.2-2.801zM11.282.01c.847-.035 1.56.635 1.594 1.495.034.86-.624 1.586-1.47 1.62-.884.037-1.744.207-2.56.503-.799.288-1.676-.135-1.96-.946C6.6 1.87 7.018.978 7.816.69 8.924.289 10.09.058 11.282.01zM18.474 0c.847 0 1.534.698 1.534 1.56 0 .86-.687 1.559-1.534 1.559h-3.068c-.848 0-1.534-.698-1.534-1.56C13.872.7 14.558 0 15.406 0h3.068zm7.159 0c.847 0 1.534.698 1.534 1.56 0 .86-.687 1.559-1.534 1.559h-3.068c-.847 0-1.534-.698-1.534-1.56C21.03.7 21.718 0 22.565 0h3.068zm7.16 0c.846 0 1.533.698 1.533 1.56 0 .86-.687 1.559-1.534 1.559h-3.068c-.847 0-1.534-.698-1.534-1.56C28.19.7 28.877 0 29.724 0h3.068zm7.158 0c.847 0 1.534.698 1.534 1.56 0 .86-.687 1.559-1.534 1.559h-3.068c-.847 0-1.534-.698-1.534-1.56C35.349.7 36.036 0 36.883 0h3.068zM29.615 42.278c2.503.053 5.03.39 7.376 1.3 2.95 1.094 5.459 3.26 7.06 5.955 1.816 3.065 2.564 6.686 2.452 10.225-.022.15.062.435-.175.433-1.5.269-3.023.397-4.548.382-3.08.051-6.223-.44-9.01-1.798-3.086-1.495-5.44-4.262-6.768-7.391-1.171-2.735-1.507-5.746-1.435-8.697 1.662-.308 3.36-.41 5.048-.41zm-7.76-20.403v38.104H9.737l-.001-38.104h12.119zm21.474-.2c1.058.076 2.121.157 3.157.395.189 3.698-.563 7.5-2.465 10.705-.921 1.545-2.125 2.905-3.547 4.008-1.223.926-2.59 1.646-4.045 2.132-2.127.731-4.38 1.034-6.623 1.088-1.754.016-3.519-.078-5.243-.416-.032-2.368.129-4.77.843-7.042 1.082-3.63 3.508-6.92 6.846-8.787 1.635-.9 3.43-1.469 5.266-1.783h-.007c1.914-.351 3.874-.387 5.818-.3z" transform="translate(123.75 97.875)"/>
        </g>
    </g>
</svg>
