<svg xmlns="http://www.w3.org/2000/svg" width="42" height="60" viewBox="0 0 42 60">
    <defs>
        <filter id="prefix__a" width="302.3%" height="243.3%" x="-102.3%" y="-71.7%" filterUnits="objectBoundingBox">
            <feOffset dy="2" in="SourceAlpha" result="shadowOffsetOuter1"/>
            <feGaussianBlur in="shadowOffsetOuter1" result="shadowBlurOuter1" stdDeviation="10"/>
            <feColorMatrix in="shadowBlurOuter1" result="shadowMatrixOuter1" values="0 0 0 0 0 0 0 0 0 0 0 0 0 0 0 0 0 0 0.2 0"/>
            <feMerge>
                <feMergeNode in="shadowMatrixOuter1"/>
                <feMergeNode in="SourceGraphic"/>
            </feMerge>
        </filter>
    </defs>
    <g fill="none" fill-rule="evenodd" filter="url(#prefix__a)">
        <path fill="#864645" d="M35.97.391c.59.186.92.825.737 1.426-.183.6-.81.937-1.4.75-.602-.19-1.234-.289-1.88-.289-.617 0-1.118-.51-1.118-1.139S32.81 0 33.427 0c.871 0 1.726.133 2.543.391zm4.693 3.657c.331.53.178 1.235-.343 1.573-.52.338-1.212.182-1.544-.35-.342-.547-.764-1.04-1.25-1.46-.47-.407-.528-1.126-.129-1.606.4-.48 1.106-.538 1.577-.131.656.568 1.226 1.234 1.689 1.974zM42 9.79c0 .63-.5 1.14-1.118 1.14-.618 0-1.118-.51-1.118-1.14V8.718c-.001-.35-.03-.696-.084-1.036-.1-.621.313-1.207.922-1.309.61-.102 1.185.32 1.285.94.074.46.112.928.113 1.402V9.79zm0 5.317c0 .63-.5 1.14-1.118 1.14-.618 0-1.118-.51-1.118-1.14v-2.279c0-.629.5-1.139 1.118-1.139.617 0 1.118.51 1.118 1.14v2.278zm0 5.316c0 .63-.5 1.14-1.118 1.14-.618 0-1.118-.51-1.118-1.14v-2.278c0-.63.5-1.14 1.118-1.14.617 0 1.118.51 1.118 1.14v2.278zm0 5.317c0 .63-.5 1.14-1.118 1.14-.618 0-1.118-.51-1.118-1.14V23.46c0-.629.5-1.139 1.118-1.139.617 0 1.118.51 1.118 1.14v2.278zm0 5.316c0 .63-.5 1.14-1.118 1.14-.618 0-1.118-.51-1.118-1.14v-2.278c0-.63.5-1.14 1.118-1.14.617 0 1.118.51 1.118 1.14v2.278zm0 5.317c0 .629-.5 1.139-1.118 1.139-.618 0-1.118-.51-1.118-1.14v-2.278c0-.629.5-1.139 1.118-1.139.617 0 1.118.51 1.118 1.14v2.278zm0 5.316c0 .63-.5 1.14-1.118 1.14-.618 0-1.118-.51-1.118-1.14v-2.278c0-.63.5-1.14 1.118-1.14.617 0 1.118.51 1.118 1.14v2.278zm0 5.317c0 .629-.5 1.139-1.118 1.139-.618 0-1.118-.51-1.118-1.14v-2.278c0-.629.5-1.139 1.118-1.139.617 0 1.118.51 1.118 1.14v2.278zm-.082 5.47c-.085.623-.65 1.058-1.261.972-.612-.087-1.039-.662-.954-1.285.04-.295.06-.595.06-.897v-1.222c0-.63.501-1.14 1.119-1.14.617 0 1.118.51 1.118 1.14v1.222c0 .407-.027.811-.082 1.21zm-2.812 5.333c-.463.417-1.17.373-1.579-.098-.409-.471-.366-1.191.097-1.608.477-.43.89-.932 1.22-1.487.322-.537 1.01-.708 1.537-.38.528.327.695 1.027.374 1.565-.448.75-1.004 1.427-1.65 2.008zm-5.459 2.188c-.617.016-1.13-.48-1.146-1.11-.015-.629.473-1.152 1.09-1.168.644-.016 1.273-.13 1.871-.337.585-.202 1.22.117 1.418.713.198.596-.115 1.243-.7 1.445-.81.28-1.662.435-2.533.457zM28.372 60c-.618 0-1.118-.51-1.118-1.14 0-.628.5-1.138 1.118-1.138h2.236c.618 0 1.118.51 1.118 1.139S31.226 60 30.608 60h-2.236zm-5.218 0c-.618 0-1.119-.51-1.119-1.14 0-.628.501-1.138 1.119-1.138h2.236c.618 0 1.118.51 1.118 1.139S26.008 60 25.39 60h-2.236zm-5.219 0c-.617 0-1.118-.51-1.118-1.14 0-.628.5-1.138 1.118-1.138h2.237c.617 0 1.118.51 1.118 1.139S20.79 60 20.172 60h-2.237zm-5.218 0c-.617 0-1.118-.51-1.118-1.14 0-.628.5-1.138 1.118-1.138h2.237c.617 0 1.118.51 1.118 1.139S15.572 60 14.954 60h-2.237zm-5.505-.336c-.594-.173-.938-.803-.768-1.408.17-.605.789-.955 1.383-.782.562.163 1.148.248 1.746.248h.162c.618 0 1.119.51 1.119 1.139S10.353 60 9.735 60h-.162c-.807 0-1.6-.114-2.361-.336zm-4.77-3.55c-.344-.523-.206-1.23.307-1.58.514-.35 1.208-.21 1.551.314.355.54.787 1.023 1.282 1.433.48.396.553 1.114.163 1.602-.389.489-1.093.563-1.573.166-.668-.553-1.252-1.205-1.73-1.935zM1 50.375c0-.629.5-1.139 1.118-1.139.618 0 1.118.51 1.118 1.14v.909c.001.398.038.79.108 1.175.114.619-.286 1.214-.893 1.33-.607.115-1.191-.293-1.305-.911-.095-.52-.144-1.051-.146-1.591v-.913zm0-5.316c0-.63.5-1.14 1.118-1.14.618 0 1.118.51 1.118 1.14v2.278c0 .63-.5 1.14-1.118 1.14-.617 0-1.118-.51-1.118-1.14V45.06zm0-5.317c0-.629.5-1.139 1.118-1.139.618 0 1.118.51 1.118 1.14v2.278c0 .629-.5 1.14-1.118 1.14C1.501 43.16 1 42.65 1 42.02v-2.279zm0-5.316c0-.63.5-1.14 1.118-1.14.618 0 1.118.51 1.118 1.14v2.278c0 .63-.5 1.14-1.118 1.14-.617 0-1.118-.51-1.118-1.14v-2.278zm0-5.317c0-.629.5-1.139 1.118-1.139.618 0 1.118.51 1.118 1.14v2.278c0 .63-.5 1.14-1.118 1.14-.617 0-1.118-.51-1.118-1.14v-2.279zm0-5.316c0-.63.5-1.14 1.118-1.14.618 0 1.118.51 1.118 1.14v2.278c0 .63-.5 1.14-1.118 1.14C1.501 27.21 1 26.7 1 26.07v-2.278zm0-5.316c0-.63.5-1.14 1.118-1.14.618 0 1.118.51 1.118 1.14v2.278c0 .63-.5 1.14-1.118 1.14-.617 0-1.118-.51-1.118-1.14v-2.278zm0-5.317c0-.63.5-1.14 1.118-1.14.618 0 1.118.51 1.118 1.14v2.279c0 .629-.5 1.139-1.118 1.139-.617 0-1.118-.51-1.118-1.14V13.16zm.058-5.447c.072-.625.627-1.072 1.24-1 .614.074 1.053.64.981 1.264-.028.25-.043.503-.043.757v1.388c0 .63-.5 1.14-1.118 1.14-.617 0-1.118-.51-1.118-1.14V8.734c0-.343.02-.683.058-1.02zm2.693-5.39c.453-.427 1.16-.4 1.58.062.42.462.392 1.183-.061 1.61-.468.442-.869.952-1.188 1.514-.309.545-.993.731-1.527.417-.535-.315-.718-1.012-.409-1.557.431-.76.973-1.45 1.605-2.046zM9.223.007c.617-.025 1.138.464 1.162 1.093.025.628-.455 1.159-1.072 1.184-.643.026-1.27.15-1.866.366-.582.211-1.221-.098-1.428-.69-.207-.594.097-1.245.678-1.456C7.504.21 8.354.043 9.223.007zM14.465 0c.618 0 1.119.51 1.119 1.14 0 .628-.501 1.138-1.119 1.138H12.23c-.617 0-1.118-.51-1.118-1.139S11.61 0 12.229 0h2.236zm5.219 0c.617 0 1.118.51 1.118 1.14 0 .628-.5 1.138-1.118 1.138h-2.237c-.617 0-1.118-.51-1.118-1.139S16.83 0 17.447 0h2.237zm5.218 0c.617 0 1.118.51 1.118 1.14 0 .628-.5 1.138-1.118 1.138h-2.237c-.617 0-1.118-.51-1.118-1.139S22.047 0 22.665 0h2.237zm5.218 0c.618 0 1.118.51 1.118 1.14 0 .628-.5 1.138-1.118 1.138h-2.236c-.618 0-1.119-.51-1.119-1.139S27.266 0 27.884 0h2.236z"/>
        <path fill="#E30513" d="M7.895 0h15.182L42 18.947v33.158C42 56.465 38.465 60 34.105 60H7.895C3.535 60 0 56.465 0 52.105V7.895C0 3.535 3.535 0 7.895 0z"/>
        <text fill="#FFF" stroke="#FFF" stroke-width="0" class="text-karusel-regular" font-size="16">
            <tspan x="2.84" y="53">НАКЛЕЕК</tspan>
        </text>
        <text fill="#FFF" font-family="text-karusel-regular" font-size="32">
            <tspan x="16.52" y="36">8</tspan>
        </text>
        <path fill="#B12E2C" d="M23.105 0l18.9 18.947H31c-4.36 0-7.895-3.534-7.895-7.894V0z"/>
    </g>
</svg>
