<svg xmlns="http://www.w3.org/2000/svg" width="180" height="180" viewBox="0 0 180 180">
    <defs>
        <filter id="3wymeqok6a">
            <feColorMatrix in="SourceGraphic" values="0 0 0 0 1.000000 0 0 0 0 1.000000 0 0 0 0 1.000000 0 0 0 1.000000 0"/>
        </filter>
    </defs>
    <g fill="none" fill-rule="evenodd">
        <g>
            <g>
                <g>
                    <g>
                        <g>
                            <g>
                                <g transform="translate(-871 -1235) translate(370 980) translate(400 249) translate(101) translate(4.5 .375) scale(-1 1) rotate(-11 7.36 935.418) rotate(-15 76.332 7.372)">
                                    <rect width="76.369" height="50.912" fill="#E30513" rx="9.319"/>
                                    <path fill="#FFF" d="M39.433 22.405c2.097.044 4.215.322 6.18 1.073 2.471.903 4.573 2.691 5.915 4.917 1.521 2.531 2.148 5.52 2.054 8.443-.018.125.052.36-.146.357-1.257.223-2.533.329-3.81.316-2.58.042-5.215-.363-7.55-1.484-2.586-1.235-4.557-3.52-5.67-6.103-.982-2.259-1.263-4.745-1.203-7.182 1.393-.254 2.815-.337 4.23-.337zM32.93 5.558V37.02H22.778l-.001-31.463H32.93zm17.992-.166c.887.063 1.777.13 2.645.327.159 3.053-.471 6.193-2.065 8.839-.772 1.276-1.78 2.398-2.972 3.31-1.025.764-2.17 1.358-3.39 1.76-1.782.604-3.669.854-5.548.898-1.47.013-2.948-.064-4.393-.343-.027-1.956.108-3.938.706-5.815.907-2.997 2.94-5.714 5.736-7.255 1.37-.743 2.874-1.213 4.413-1.473h-.006c1.603-.29 3.246-.32 4.874-.248z" transform="matrix(-1 0 0 1 76.369 0)"/>
                                    <text fill="#FFF" font-family="Roboto-Bold, Roboto" font-size="7.988" font-weight="bold" letter-spacing=".666" transform="matrix(-1 0 0 1 77.416 0)">
                                        <tspan x="12.208" y="45.883">9W87W9879</tspan>
                                    </text>
                                </g>
                                <g filter="url(#3wymeqok6a)" transform="translate(-871 -1235) translate(370 980) translate(400 249) translate(101) translate(4.5 .375) scale(-1 1) rotate(-11 7.36 935.418)">
                                    <g>
                                        <path stroke="#979797" stroke-dasharray="3.994" stroke-linecap="round" stroke-linejoin="round" stroke-width="2.663" d="M0 1.27s4.936 16.668 33.078 5.31" transform="translate(51.328 61.802)"/>
                                        <path fill="#D8D8D8" d="M37.075 3.52l2.535 5.071c.329.658.062 1.457-.595 1.786-.185.093-.389.14-.596.14h-5.07c-.735 0-1.331-.595-1.331-1.33 0-.207.048-.411.14-.596l2.535-5.07c.33-.658 1.129-.925 1.786-.596.258.129.467.338.596.595z" transform="translate(51.328 61.802) rotate(75 35.884 5.828)"/>
                                    </g>
                                </g>
                            </g>
                            <g>
                                <g transform="translate(-871 -1235) translate(370 980) translate(400 249) translate(101) translate(4.5 .375) translate(0 42.631) translate(3.123 51.6)">
                                    <rect width="63.613" height="42.409" fill="#3D3F41" rx="7.762"/>
                                    <path fill="#636567" d="M33.63 22.736c2.127.045 4.275.325 6.267 1.081 2.507.91 4.638 2.709 5.999 4.95 1.543 2.547 2.178 5.556 2.083 8.497-.019.125.053.362-.148.36-1.275.223-2.57.33-3.864.318-2.617.042-5.288-.366-7.655-1.495-2.623-1.242-4.622-3.542-5.751-6.143-.995-2.273-1.28-4.775-1.22-7.228 1.413-.256 2.855-.34 4.29-.34zM27.037 5.78v31.668H16.742L16.74 5.78h10.297zm18.246-.167c.898.064 1.802.131 2.682.329.16 3.073-.478 6.233-2.095 8.896-.783 1.285-1.805 2.415-3.013 3.331-1.04.77-2.2 1.368-3.437 1.772-1.808.608-3.721.86-5.627.905-1.49.013-2.99-.065-4.455-.346-.027-1.968.11-3.964.716-5.852.92-3.017 2.98-5.752 5.817-7.303 1.389-.747 2.915-1.22 4.475-1.482h-.007c1.627-.292 3.292-.322 4.944-.25z"/>
                                </g>
                                <g>
                                    <path fill="#3D3F41" d="M49.884-9.692c.648.206 1.01.912.809 1.577-.201.664-.889 1.036-1.536.83-.662-.21-1.355-.32-2.064-.32-.678 0-1.227-.564-1.227-1.26 0-.696.55-1.26 1.227-1.26.956 0 1.895.147 2.791.433zm5.15 4.045c.365.587.196 1.366-.375 1.74-.572.374-1.33.201-1.695-.386-.376-.606-.839-1.151-1.372-1.616-.517-.45-.58-1.246-.141-1.777.438-.53 1.213-.595 1.73-.145.72.629 1.346 1.365 1.854 2.184zM56.503.706c0 .696-.55 1.26-1.227 1.26-.678 0-1.227-.564-1.227-1.26V-.482c-.001-.387-.032-.77-.092-1.146-.11-.687.344-1.335 1.012-1.448.67-.113 1.3.353 1.41 1.04.081.509.123 1.026.124 1.551v1.19zm0 5.881c0 .696-.55 1.26-1.227 1.26-.678 0-1.227-.564-1.227-1.26v-2.52c0-.697.55-1.26 1.227-1.26.678 0 1.227.563 1.227 1.26v2.52zm0 5.881c0 .696-.55 1.26-1.227 1.26-.678 0-1.227-.564-1.227-1.26v-2.52c0-.696.55-1.26 1.227-1.26.678 0 1.227.564 1.227 1.26v2.52zm0 5.882c0 .696-.55 1.26-1.227 1.26-.678 0-1.227-.564-1.227-1.26v-2.52c0-.697.55-1.261 1.227-1.261.678 0 1.227.564 1.227 1.26v2.52zm0 5.881c0 .696-.55 1.26-1.227 1.26-.678 0-1.227-.564-1.227-1.26v-2.52c0-.697.55-1.26 1.227-1.26.678 0 1.227.563 1.227 1.26v2.52zm0 5.881c0 .696-.55 1.26-1.227 1.26-.678 0-1.227-.564-1.227-1.26v-2.52c0-.696.55-1.26 1.227-1.26.678 0 1.227.564 1.227 1.26v2.52zm0 5.882c0 .696-.55 1.26-1.227 1.26-.678 0-1.227-.564-1.227-1.26v-2.52c0-.697.55-1.261 1.227-1.261.678 0 1.227.564 1.227 1.26v2.52zm0 5.881c0 .696-.55 1.26-1.227 1.26-.678 0-1.227-.564-1.227-1.26v-2.52c0-.697.55-1.26 1.227-1.26.678 0 1.227.563 1.227 1.26v2.52zm-.09 6.052c-.093.69-.712 1.17-1.384 1.075-.671-.096-1.14-.732-1.047-1.422.044-.326.067-.658.067-.992v-1.352c0-.696.55-1.26 1.227-1.26.678 0 1.227.564 1.227 1.26v1.352c0 .45-.03.897-.09 1.339zm-3.087 5.9c-.507.46-1.283.412-1.732-.11-.449-.52-.402-1.317.106-1.778.524-.476.977-1.031 1.34-1.645.353-.594 1.108-.783 1.687-.421.579.362.762 1.137.41 1.732-.492.83-1.103 1.578-1.81 2.222zm-5.99 2.42c-.678.017-1.24-.532-1.258-1.228-.017-.696.518-1.274 1.196-1.292.707-.018 1.397-.145 2.054-.374.642-.223 1.339.13 1.556.79.218.659-.126 1.374-.768 1.598-.89.31-1.825.481-2.78.506zm-5.79.003c-.678 0-1.228-.564-1.228-1.26 0-.696.55-1.26 1.228-1.26h2.454c.678 0 1.227.564 1.227 1.26 0 .696-.55 1.26-1.227 1.26h-2.454zm-5.728 0c-.678 0-1.227-.564-1.227-1.26 0-.696.55-1.26 1.227-1.26h2.455c.678 0 1.227.564 1.227 1.26 0 .696-.55 1.26-1.227 1.26h-2.455zm-5.727 0c-.678 0-1.227-.564-1.227-1.26 0-.696.55-1.26 1.227-1.26h2.455c.677 0 1.227.564 1.227 1.26 0 .696-.55 1.26-1.227 1.26H30.09zm-5.727 0c-.678 0-1.228-.564-1.228-1.26 0-.696.55-1.26 1.228-1.26h2.454c.678 0 1.228.564 1.228 1.26 0 .696-.55 1.26-1.228 1.26h-2.454zm-6.043-.371c-.652-.192-1.029-.89-.842-1.559.186-.669.865-1.056 1.517-.865.617.181 1.26.274 1.916.274h.179c.678 0 1.227.565 1.227 1.26 0 .697-.55 1.261-1.227 1.261h-.179c-.885 0-1.755-.126-2.59-.371zm-5.236-3.928c-.377-.578-.225-1.361.338-1.748.564-.387 1.326-.231 1.703.348.388.597.863 1.131 1.406 1.584.527.44.607 1.233.18 1.773-.428.54-1.2.623-1.727.184-.734-.612-1.375-1.334-1.9-2.14zm-1.582-6.348c0-.696.55-1.26 1.228-1.26.677 0 1.227.564 1.227 1.26v1.006c.001.44.041.875.118 1.3.125.685-.314 1.343-.98 1.47-.667.129-1.308-.322-1.432-1.007-.105-.575-.159-1.163-.16-1.76v-1.01zm0-5.882c0-.696.55-1.26 1.228-1.26.677 0 1.227.564 1.227 1.26v2.52c0 .697-.55 1.261-1.227 1.261-.678 0-1.228-.564-1.228-1.26v-2.52zm0-5.881c0-.696.55-1.26 1.228-1.26.677 0 1.227.564 1.227 1.26v2.52c0 .697-.55 1.26-1.227 1.26-.678 0-1.228-.563-1.228-1.26v-2.52zm0-5.881c0-.696.55-1.26 1.228-1.26.677 0 1.227.564 1.227 1.26v2.52c0 .696-.55 1.26-1.227 1.26-.678 0-1.228-.564-1.228-1.26v-2.52zm0-5.882c0-.696.55-1.26 1.228-1.26.677 0 1.227.564 1.227 1.26v2.52c0 .697-.55 1.261-1.227 1.261-.678 0-1.228-.564-1.228-1.26v-2.52zm0-5.881c0-.696.55-1.26 1.228-1.26.677 0 1.227.564 1.227 1.26v2.52c0 .697-.55 1.26-1.227 1.26-.678 0-1.228-.563-1.228-1.26v-2.52zm0-5.881c0-.696.55-1.26 1.228-1.26.677 0 1.227.564 1.227 1.26v2.52c0 .696-.55 1.26-1.227 1.26-.678 0-1.228-.564-1.228-1.26v-2.52zm0-5.882c0-.696.55-1.26 1.228-1.26.677 0 1.227.564 1.227 1.26v2.52c0 .697-.55 1.261-1.227 1.261-.678 0-1.228-.564-1.228-1.26v-2.52zm.064-6.025c.078-.691.688-1.187 1.361-1.106.673.08 1.156.706 1.077 1.398-.031.276-.047.555-.047.837v1.536c0 .696-.55 1.26-1.227 1.26-.678 0-1.228-.564-1.228-1.26V-.463c0-.38.022-.756.064-1.13zm2.955-5.963c.498-.473 1.274-.442 1.735.069.46.51.43 1.308-.067 1.78-.514.489-.954 1.054-1.304 1.676-.339.602-1.09.808-1.676.46-.587-.348-.788-1.12-.449-1.722.473-.84 1.068-1.604 1.761-2.263zm6.007-2.562c.677-.028 1.248.513 1.275 1.209.028.695-.5 1.281-1.177 1.31-.706.029-1.394.166-2.047.405-.639.233-1.34-.109-1.568-.765-.227-.655.106-1.376.744-1.61.886-.324 1.819-.51 2.773-.55zm5.753-.008c.678 0 1.228.564 1.228 1.26 0 .696-.55 1.26-1.228 1.26h-2.454c-.678 0-1.227-.564-1.227-1.26 0-.696.55-1.26 1.227-1.26h2.454zm5.728 0c.678 0 1.227.564 1.227 1.26 0 .696-.55 1.26-1.227 1.26h-2.455c-.678 0-1.227-.564-1.227-1.26 0-.696.55-1.26 1.227-1.26h2.455zm5.727 0c.678 0 1.227.564 1.227 1.26 0 .696-.55 1.26-1.227 1.26h-2.455c-.677 0-1.227-.564-1.227-1.26 0-.696.55-1.26 1.227-1.26h2.455zm5.727 0c.678 0 1.228.564 1.228 1.26 0 .696-.55 1.26-1.228 1.26H41.01c-.678 0-1.228-.564-1.228-1.26 0-.696.55-1.26 1.228-1.26h2.454z" transform="translate(-871 -1235) translate(370 980) translate(400 249) translate(101) translate(4.5 .375) translate(0 42.631) translate(.873) rotate(90 34.002 23.063)"/>
                                    <path fill="#636567" d="M35.88 24.986c2.127.045 4.275.325 6.267 1.081 2.507.91 4.638 2.709 5.999 4.95 1.543 2.547 2.178 5.556 2.083 8.497-.019.125.053.362-.148.36-1.275.223-2.57.33-3.864.318-2.617.042-5.288-.366-7.655-1.495-2.623-1.242-4.622-3.542-5.751-6.143-.995-2.273-1.28-4.775-1.22-7.228 1.413-.256 2.855-.34 4.29-.34zM29.287 8.03v31.668H18.992L18.99 8.03h10.297zm18.246-.167c.898.064 1.802.131 2.682.329.16 3.073-.478 6.233-2.095 8.896-.783 1.285-1.805 2.415-3.013 3.331-1.04.77-2.2 1.368-3.437 1.772-1.808.608-3.721.86-5.627.905-1.49.013-2.99-.065-4.455-.346-.027-1.968.11-3.964.716-5.852.92-3.017 2.98-5.752 5.817-7.303 1.389-.747 2.915-1.22 4.475-1.482h-.007c1.627-.292 3.292-.322 4.944-.25z" transform="translate(-871 -1235) translate(370 980) translate(400 249) translate(101) translate(4.5 .375) translate(0 42.631) translate(.873)"/>
                                </g>
                                <g transform="translate(-871 -1235) translate(370 980) translate(400 249) translate(101) translate(4.5 .375) translate(0 42.631) translate(3.123 100.95)">
                                    <rect width="63.613" height="42.409" fill="#3D3F41" rx="7.762"/>
                                    <path fill="#636567" d="M33.63 22.736c2.127.045 4.275.325 6.267 1.081 2.507.91 4.638 2.709 5.999 4.95 1.543 2.547 2.178 5.556 2.083 8.497-.019.125.053.362-.148.36-1.275.223-2.57.33-3.864.318-2.617.042-5.288-.366-7.655-1.495-2.623-1.242-4.622-3.542-5.751-6.143-.995-2.273-1.28-4.775-1.22-7.228 1.413-.256 2.855-.34 4.29-.34zM27.037 5.78v31.668H16.742L16.74 5.78h10.297zm18.246-.167c.898.064 1.802.131 2.682.329.16 3.073-.478 6.233-2.095 8.896-.783 1.285-1.805 2.415-3.013 3.331-1.04.77-2.2 1.368-3.437 1.772-1.808.608-3.721.86-5.627.905-1.49.013-2.99-.065-4.455-.346-.027-1.968.11-3.964.716-5.852.92-3.017 2.98-5.752 5.817-7.303 1.389-.747 2.915-1.22 4.475-1.482h-.007c1.627-.292 3.292-.322 4.944-.25z"/>
                                </g>
                                <g transform="translate(-871 -1235) translate(370 980) translate(400 249) translate(101) translate(4.5 .375) translate(0 42.631) translate(73.473 51.75)">
                                    <rect width="63.613" height="42.409" fill="#3D3F41" rx="7.762"/>
                                    <path fill="#636567" d="M33.63 22.736c2.127.045 4.275.325 6.267 1.081 2.507.91 4.638 2.709 5.999 4.95 1.543 2.547 2.178 5.556 2.083 8.497-.019.125.053.362-.148.36-1.275.223-2.57.33-3.864.318-2.617.042-5.288-.366-7.655-1.495-2.623-1.242-4.622-3.542-5.751-6.143-.995-2.273-1.28-4.775-1.22-7.228 1.413-.256 2.855-.34 4.29-.34zM27.037 5.78v31.668H16.742L16.74 5.78h10.297zm18.246-.167c.898.064 1.802.131 2.682.329.16 3.073-.478 6.233-2.095 8.896-.783 1.285-1.805 2.415-3.013 3.331-1.04.77-2.2 1.368-3.437 1.772-1.808.608-3.721.86-5.627.905-1.49.013-2.99-.065-4.455-.346-.027-1.968.11-3.964.716-5.852.92-3.017 2.98-5.752 5.817-7.303 1.389-.747 2.915-1.22 4.475-1.482h-.007c1.627-.292 3.292-.322 4.944-.25z"/>
                                </g>
                                <g transform="translate(-871 -1235) translate(370 980) translate(400 249) translate(101) translate(4.5 .375) translate(0 42.631) translate(73.473 101.1)">
                                    <rect width="63.613" height="42.409" fill="#3D3F41" rx="7.762"/>
                                    <path fill="#636567" d="M33.63 22.736c2.127.045 4.275.325 6.267 1.081 2.507.91 4.638 2.709 5.999 4.95 1.543 2.547 2.178 5.556 2.083 8.497-.019.125.053.362-.148.36-1.275.223-2.57.33-3.864.318-2.617.042-5.288-.366-7.655-1.495-2.623-1.242-4.622-3.542-5.751-6.143-.995-2.273-1.28-4.775-1.22-7.228 1.413-.256 2.855-.34 4.29-.34zM27.037 5.78v31.668H16.742L16.74 5.78h10.297zm18.246-.167c.898.064 1.802.131 2.682.329.16 3.073-.478 6.233-2.095 8.896-.783 1.285-1.805 2.415-3.013 3.331-1.04.77-2.2 1.368-3.437 1.772-1.808.608-3.721.86-5.627.905-1.49.013-2.99-.065-4.455-.346-.027-1.968.11-3.964.716-5.852.92-3.017 2.98-5.752 5.817-7.303 1.389-.747 2.915-1.22 4.475-1.482h-.007c1.627-.292 3.292-.322 4.944-.25z"/>
                                </g>
                            </g>
                        </g>
                    </g>
                </g>
            </g>
        </g>
    </g>
</svg>
