<svg xmlns="http://www.w3.org/2000/svg" width="180" height="180" viewBox="0 0 180 180">
    <g fill="none" fill-rule="evenodd">
        <path fill="#E30513" d="M101.372 4.71l73.918 73.918c6.28 6.28 6.28 16.463 0 22.744l-73.918 73.918c-6.28 6.28-16.463 6.28-22.744 0L4.71 101.372c-6.28-6.28-6.28-16.463 0-22.744L78.628 4.71c6.28-6.28 16.463-6.28 22.744 0z"/>
        <path fill="#FFF" fill-rule="nonzero" d="M70.79 118.128c5.967 0 10.804 4.843 10.804 10.818s-4.837 10.819-10.804 10.819c-5.967 0-10.804-4.844-10.804-10.819 0-5.975 4.837-10.818 10.804-10.818zm43.217 0c5.967 0 10.805 4.843 10.805 10.818s-4.838 10.819-10.805 10.819-10.804-4.844-10.804-10.819c0-5.975 4.837-10.818 10.804-10.818zm-43.217 5.41c-2.984 0-5.402 2.42-5.402 5.408 0 2.988 2.418 5.41 5.402 5.41 2.983 0 5.402-2.422 5.402-5.41 0-2.987-2.419-5.409-5.402-5.409zm43.217 0c-2.983 0-5.402 2.42-5.402 5.408 0 2.988 2.419 5.41 5.402 5.41 2.984 0 5.402-2.422 5.402-5.41 0-2.987-2.418-5.409-5.402-5.409zM40.562 40.234c3.934 0 7.386 2.59 8.502 6.343l.078.277 1.674 6.362h75.541c3.47 0 5.631 3.075 4.734 6.416l-.063.219-11.111 36.107c-1.368 4.444-5.817 7.953-10.29 8.1l-.291.005H64.19l1.418 5.385h59.73c1.439 0 2.616 1.122 2.708 2.538l.006.18c0 1.44-1.12 2.618-2.535 2.71l-.179.005H65.101c-2.088 0-3.922-1.358-4.545-3.334l-.064-.222-16.598-63.088c-.382-1.449-1.65-2.478-3.13-2.564l-.202-.006H28.125c-1.498 0-2.713-1.216-2.713-2.716 0-1.44 1.12-2.619 2.535-2.71l.178-.007h12.437zm85.19 18.436H52.251L62.757 98.61h46.579c2.103 0 4.566-1.848 5.366-4.046l.077-.228 10.973-35.664zM104.84 87.836c1.483 0 2.686 1.211 2.686 2.705 0 1.434-1.109 2.607-2.51 2.699l-.176.006H71.315c-1.484 0-2.686-1.211-2.686-2.705 0-1.434 1.108-2.607 2.51-2.699l.176-.006h33.524zm4.293-11.9c1.498 0 2.713 1.203 2.714 2.69.001 1.426-1.117 2.594-2.532 2.686l-.178.006-41.034.027c-1.498.001-2.713-1.203-2.714-2.689-.001-1.427 1.117-2.595 2.532-2.687l.178-.006 41.034-.027zm3.227-10.818c1.507 0 2.729 1.21 2.729 2.704 0 1.434-1.126 2.608-2.55 2.7l-.18.005H64.876c-1.507 0-2.729-1.211-2.729-2.705 0-1.434 1.126-2.607 2.55-2.699l.18-.005h47.483z"/>
    </g>
</svg>
