<svg xmlns="http://www.w3.org/2000/svg" width="180" height="180" viewBox="0 0 180 180">
    <g fill="none" fill-rule="evenodd">
        <g>
            <g>
                <g>
                    <g>
                        <path fill="#E30513" d="M101.372 4.71l73.918 73.918c6.28 6.28 6.28 16.463 0 22.744l-73.918 73.918c-6.28 6.28-16.463 6.28-22.744 0L4.71 101.372c-6.28-6.28-6.28-16.463 0-22.744L78.628 4.71c6.28-6.28 16.463-6.28 22.744 0z" transform="translate(-1270 -1235) translate(370 980) translate(800 251) translate(100 4)"/>
                        <path fill="#FFF" fill-rule="nonzero" d="M77.32 131.244c5.852-.688 9.638-8.72 9.638-21.342 0-12.162-2.983-18.244-6.884-21.112v-.23c2.983-2.753 5.278-8.032 5.278-18.014 0-11.13-3.098-19.047-8.72-19.62h-6.426c-5.393.573-8.49 8.49-8.49 19.62 0 9.868 2.18 15.146 5.163 17.9v.459c-3.902 2.868-6.77 8.95-6.77 20.997 0 12.622 3.786 20.654 9.638 21.342h7.573zm-3.786-48.076c-2.41 0-4.131-4.246-4.131-12.163 0-8.95 1.721-10.786 4.13-10.786 2.525 0 4.131 1.836 4.131 10.786 0 7.917-1.606 12.163-4.13 12.163zm0 38.897c-3.098 0-5.049-2.18-5.049-12.507 0-10.097 1.606-14.457 5.049-14.457 3.442 0 5.048 4.36 5.048 14.457 0 10.327-1.95 12.507-5.048 12.507zm35.34 9.179c6.684-.453 9.9-11.42 9.98-39.75l.002-1.098c0-27.308-2.983-39.012-9.523-39.47h-6.426c-6.884.458-9.867 12.162-9.867 39.47 0 29.144 2.983 40.39 9.867 40.848h5.967zm-2.524-8.835h-.804c-3.547-.333-3.881-12.98-3.9-30.185v-3.566c.011-15.802.239-28.004 3.67-28.668h1.378c3.382.676 3.773 13.314 3.786 29.534v.872c0 18.13-.459 31.669-4.13 32.013zM133.118 89.857c2.743 0 5.002-3.12 5.002-8.283 0-5.164-2.26-8.23-5.002-8.23-2.797 0-5.002 3.066-5.002 8.23 0 5.163 2.205 8.283 5.002 8.283zm-2.69 21.514l18.448-35.283V73.72h-1.613l-18.502 35.444v2.206h1.667zm2.69-24.85c-1.291 0-2.152-1.882-2.152-4.947 0-3.012.86-4.949 2.152-4.949 1.29 0 2.15 1.937 2.15 4.949 0 3.065-.86 4.948-2.15 4.948zm11.51 25.118c2.743 0 5.001-3.12 5.001-8.282 0-5.164-2.258-8.23-5.002-8.23-2.796 0-5.002 3.066-5.002 8.23 0 5.163 2.206 8.282 5.002 8.282zm0-3.334c-1.291 0-2.152-1.883-2.152-4.948 0-3.012.86-4.949 2.151-4.949s2.152 1.937 2.152 4.949c0 3.065-.86 4.948-2.152 4.948zM38.337 104.127l.466-2.581h-1.936V79.028h-5.63l-.043.769-.09 1.535c-.565 9.448-1.377 18.39-3.201 20.214h-.933v2.581h11.367zm-3.873-2.474h-3.729c1.04-2.76 1.829-8.067 2.618-19.864h1.219l-.108 19.864zm11.69 2.474c2.294-.322 3.19-5.055 3.19-12.764 0-7.853-.967-11.905-3.119-12.335h-2.259c-2.259.43-3.299 4.482-3.299 12.335 0 7.709.969 12.442 3.263 12.764h2.224zm-.861-3.155h-.502c-1.141-.138-1.482-4.244-1.505-9.07l-.001-.54c0-5.163.359-9.107 1.542-9.286h.43c1.22.179 1.47 4.123 1.47 9.287 0 5.055-.287 9.466-1.434 9.61z" transform="translate(-1270 -1235) translate(370 980) translate(800 251) translate(100 4)"/>
                    </g>
                </g>
            </g>
        </g>
    </g>
</svg>
