<svg xmlns="http://www.w3.org/2000/svg" width="285" height="52" viewBox="0 0 285 52">
    <g fill="none" fill-rule="evenodd">
        <g fill-rule="nonzero">
            <g>
                <g>
                    <path fill="#E8E9EB" d="M0.131 0H284.131V51.852H0.131z" transform="translate(-371 -412) translate(371 174) translate(0 238)"/>
                    <g fill="#C10A27">
                        <path d="M13.462 4.8h4.958c4.72 0 7.19 1.501 7.19 3.22 0 1.718-3.101 3.279-7.566 3.279h-3.832c-3.95 0-5.926-1.087-5.926-3.22S10.025 4.8 13.501 4.8m.119 9.521h5.926c5.452 0 7.684 1.64 7.684 3.477 0 2.271-3.734 3.772-8.692 3.772h-4.207c-4.464 0-5.926-1.086-5.926-3.634s1.738-3.615 5.215-3.615m15.387-1.778c0-1.64 5.077-1.718 5.077-5.412s-4.701-5.333-13.393-5.333H3.783c-2.232 0-3.339.671-3.339 1.975V22.32c0 1.64.988 2.272 3.596 2.272h14.004c12.662 0 17.62-1.976 17.62-6.163 0-4.188-6.696-3.951-6.696-5.926M48.247 3.338c0-1.659-1.482-2.192-4.701-2.192-3.22 0-4.346.75-4.346 2.192L39.081 16c0 5.333 6.203 9.027 18.351 9.027 10.173 0 17.245-3.555 17.245-8.889V3.951c0-1.976-1.126-2.726-4.465-2.726-3.338 0-4.582.75-4.582 2.113v12.247c0 3.556-3.734 5.472-8.81 5.472-5.709 0-8.573-2.47-8.573-5.472V3.338zM116.02 5.65c0-1.087-5.926-4.583-17.225-4.583-10.43 0-20.346 3.693-20.346 12.128s7.902 12.109 19.595 12.109c5.71 0 7.684-1.502 10.667-1.502 1.738 0 3.22.81 5.926.81 1.738 0 2.983-.612 2.983-1.777v-8.139c0-1.442-1.126-2.192-3.358-2.192h-9.403c-2.607 0-3.95.553-3.95 1.718 0 1.166 1.007 1.501 4.227 1.699 3.95.217 4.345 1.106 4.345 1.778 0 1.718-4.602 3.694-10.054 3.694-7.684 0-12.148-3.28-12.148-8.474 0-5.196 5.077-7.902 12.523-7.902 7.447 0 8.672 2.39 11.418 2.39 1.6 0 4.82-.474 4.82-1.718M146.163 14.598c.75 1.362-.988 2.666-3.714 2.666h-3.24c-2.231 0-4.088-1.304-3.476-2.528l2.37-4.464c.505-1.211 1.7-1.988 3.01-1.958 1.312.03 2.47.863 2.917 2.096l2.133 4.188zm8.672 9.995h2.982c1.976 0 3.734-.553 2.864-1.798L147.27 3.22c-1.025-1.368-2.712-2.071-4.405-1.837h-4.345c-1.656-.113-3.252.633-4.228 1.975L121.531 22.4c-.632 1.027-.632 2.193 2.232 2.193h2.47c1.694.206 3.39-.376 4.602-1.58 2.232-1.976 3.22-2.193 6.696-2.193h4.701c1.907-.086 3.819.007 5.709.276 1.122.22 2.134.82 2.864 1.7 1 1.135 2.437 1.79 3.95 1.797M187.704 1.54h-24.198c-2.844 0-4.326.771-4.326 2.193 0 1.423.731 2.193 5.413 2.193 4.681 0 5.926 1.027 5.926 2.667v14.3c0 1.976 1.856 2.608 5.214 2.608 3.358 0 5.215-.474 5.215-2.607V8.593c0-1.64.988-2.726 5.689-2.726 4.701 0 5.61-.553 5.61-2.193 0-1.64-1.482-2.133-4.583-2.133M223.852 1.54h-24.257c-2.844 0-4.346.771-4.346 2.193 0 1.423.751 2.193 5.452 2.193s5.926 1.027 5.926 2.667v14.3c0 1.976 1.857 2.608 5.195 2.608s5.215-.474 5.215-2.607V8.593c0-1.64.988-2.726 5.709-2.726 4.72 0 5.708-.553 5.708-2.193 0-1.64-1.5-2.133-4.602-2.133M239.14 1.007h-3.831c-2.37 0-3.556.968-3.556 2.944v16.217c0 3.14-.138 4.997 4.207 4.997h2.865c3.338 0 4.089-1.165 4.089-3.555V5.807c0-3.002 0-4.78-3.734-4.78M253.817 1.778c-1.614-.018-3.076.948-3.693 2.439s-.266 3.208.888 4.336c1.129 1.154 2.845 1.506 4.336.889 1.492-.618 2.457-2.08 2.44-3.694 0-2.182-1.77-3.95-3.951-3.95m0-.79c.838 0 1.661.218 2.39.632.724.423 1.323 1.03 1.738 1.758.43.715.656 1.535.652 2.37.005.841-.22 1.667-.652 2.39-.416.722-1.016 1.322-1.738 1.738-1.47.814-3.257.806-4.72-.02-.723-.416-1.323-1.016-1.74-1.738-.43-.722-.655-1.549-.651-2.39-.001-.84.224-1.666.652-2.39.416-.722 1.016-1.322 1.738-1.738.73-.413 1.552-.631 2.39-.632m-1.165 2.963v1.54h1.027c.32.017.638-.044.928-.177.203-.126.318-.355.297-.593.016-.232-.088-.456-.277-.593-.322-.144-.675-.205-1.027-.177h-.948zm0 4.444h-.81V3.18h1.758c.453-.02.907.032 1.343.158.252.094.467.268.613.494.374.538.298 1.269-.178 1.719-.276.283-.652.446-1.047.454.207.096.39.238.533.415.249.272.467.57.652.889l.632 1.007h-1.007l-.455-.81c-.215-.402-.474-.78-.77-1.126-.22-.172-.492-.263-.77-.257h-.494v2.272z" transform="translate(-371 -412) translate(371 174) translate(0 238) translate(13.682 13.827)"/>
                    </g>
                </g>
            </g>
        </g>
    </g>
</svg>
