<svg xmlns="http://www.w3.org/2000/svg" width="235" height="44" viewBox="0 0 235 44">
    <g fill="none" fill-rule="evenodd">
        <g fill-rule="nonzero">
            <g>
                <path fill="#E1251B" d="M0 0.484H13.651V43.469H0z" transform="translate(-372 -38) translate(372 38)"/>
                <path fill="#00754A" d="M35.313 27.528c-6.947-6.124-18.551-3.755-18.551-3.755 0 2.45-.339 10.299 6.044 16.02 6.946 6.125 18.55 3.723 18.55 3.723s.984-9.895-6.043-15.94M22.806 4.239c-6.447 5.721-6.044 13.49-6.044 16.02 0 0 11.604 2.37 18.55-3.771C42.26 10.348 41.358.484 41.358.484S29.752-1.982 22.806 4.239" transform="translate(-372 -38) translate(372 38)"/>
                <path fill="#E1251B" d="M155.837 19.937c3.238-.14 6.389 1.068 8.704 3.336l-3.82 3.9c-1.32-1.309-3.105-2.04-4.964-2.03v.016c-1.718.028-3.35.756-4.519 2.015-1.168 1.26-1.772 2.942-1.67 4.658-.11 1.748.496 3.465 1.678 4.757 1.183 1.292 2.84 2.048 4.591 2.092 2.019-.006 3.947-.84 5.335-2.304l3.224 3.916c-2.166 2.32-5.226 3.595-8.397 3.497-1.756.016-3.497-.312-5.126-.967-4.238-2.003-6.893-6.321-6.769-11.008-.135-4.466 2.302-8.614 6.27-10.67 1.7-.827 3.572-1.242 5.463-1.208zm54.831.322v23.257h-5.302V25.143h-5.045l-.484 4.48c-1.386 12.233-4.32 14.748-10.589 13.845l.162-5.286.178.02c2.603.264 4.564-.694 5.43-13.3l.339-4.643h15.311zm10.557 0v7.334h4.835c2.262-.071 4.45.812 6.028 2.433 1.46 1.497 2.28 3.503 2.289 5.593.02 2.157-.85 4.228-2.406 5.722-1.556 1.495-3.66 2.282-5.814 2.175H215.97V20.26h5.254zm-130.969 0l9.945 23.257h-5.85L92.4 38.681h-8.977l-1.87 4.835h-5.625l9.493-23.257h4.835zm22.903 0c2.234-.013 4.378.879 5.942 2.474 1.564 1.594 2.415 3.755 2.358 5.988-.002 2.204-.778 4.337-2.192 6.028-1.74 1.802-4.188 2.746-6.688 2.578h-4.304l-.08 6.19h-5.383V20.258zm14.908 0l5.206 9.929 4.964-9.929h5.706l-11.814 23.21h-5.867l4.159-7.979-8.22-15.23h5.866zm57.893 0v4.884h-11.878V29.3h8.945v4.803h-8.945v4.48h11.878v4.884H168.7V20.26h17.261zm-125.585 0v9.526l7.656-9.526h7.172l-9.848 11.234L74.8 43.468h-7.092l-7.333-9.686v9.686h-5.367V20.26h5.367zm165.573 12.136h-4.69v6.19h4.48c.845.044 1.671-.263 2.282-.85.61-.586.951-1.398.941-2.245-.004-.842-.349-1.647-.956-2.23-.608-.583-1.426-.895-2.267-.864zM87.936 27.093l-2.515 6.608h5.142l-2.627-6.608zm24.723-1.708h-4.464v7.01h4.464c1.844-.124 3.276-1.657 3.276-3.505 0-1.848-1.432-3.38-3.276-3.505z" transform="translate(-372 -38) translate(372 38)"/>
                <path fill="#00754A" d="M159.222 8.284L155.483 8.284 155.483 6.463 158.722 6.463 158.722 4.303 155.483 4.303 155.483 2.547 159.141 2.547 159.141.484 153.242.484 153.242 10.363 159.222 10.363zM134.95 7.043h1.08c.933.081 1.859-.231 2.553-.861.695-.63 1.095-1.521 1.105-2.459 0-1.757-.919-3.336-3.981-3.336-.758 0-2.498.097-2.998.097v9.88h2.24v-3.32zm0-4.496h.999c.838 0 1.321.257 1.321 1.176 0 .919-.66 1.16-1.321 1.16h-1V2.548zM69.965 4.223L69.965 10.363 72.205 10.363 72.205.484 70.207.484 65.887 6.624 65.887.484 63.566.484 63.566 10.363 65.565 10.363zM57.248 2.547L60.649 2.547 60.649.484 55.008.484 55.008 10.363 57.248 10.363zM94.318 8.284L90.498 8.284 90.498 6.463 93.738 6.463 93.738 4.303 90.498 4.303 90.498 2.547 94.141 2.547 94.141.484 88.242.484 88.242 10.363 94.318 10.363zM110.016 4.126L112.756 7.962 113.095 7.962 115.834 4.045 115.834 10.363 118.075 10.363 118.075.484 115.996.484 113.095 4.626 110.016.484 107.776.484 107.776 10.363 110.016 10.363zM144.507 5.625L147.827 10.363 150.744 10.363 146.747 5.045 150.406.484 147.747.484 144.507 4.803 144.507.484 142.186.484 142.186 10.363 144.507 10.363zM78.523 2.547L82.021 2.547 82.021 10.363 84.261 10.363 84.261.484 76.283.484 76.283 10.363 78.523 10.363zM161.704 2.547L164.621 2.547 164.621 10.363 166.942 10.363 166.942 2.547 169.859 2.547 169.859.484 161.704.484zM127.326 8.284l.822 2.08h2.418l-4.094-9.88h-1.983l-4.158 9.88h2.321l.838-2.08h3.836zm-1.999-4.835l1.16 2.74h-2.175l1.015-2.74zM105.036 3.723c0-1.757-1-3.336-4.078-3.336-.741 0-2.401.097-2.981.097v9.88h2.24v-3.32h1.08c.942.08 1.875-.23 2.582-.858.707-.628 1.125-1.518 1.157-2.463m-3.74 1.112h-1.08V2.547h1c.822 0 1.402.257 1.402 1.176.004.338-.14.66-.394.883-.254.223-.593.324-.927.278" transform="translate(-372 -38) translate(372 38)"/>
            </g>
        </g>
    </g>
</svg>
