<svg xmlns="http://www.w3.org/2000/svg" width="287" height="32" viewBox="0 0 287 32">
    <g fill="none" fill-rule="evenodd">
        <g>
            <g>
                <g>
                    <path fill="#009CCD" d="M29.333 6.933C32.22 11.264 32.94 17.6 30.635 22.4c-2.16 5.333-7.648 9.067-13.275 9.52-5.77.576-10.667-2.021-14.288-6.352-3.605-4.48-4.037-12.139-1.296-17.19C4.293 3.672 8.992.529 14.304 0h3.733c.363.037.72.085 1.067.144 4.107.978 7.733 3.384 10.23 6.79" transform="translate(-370 -431) translate(370 211) translate(0 220)"/>
                    <path fill="#FFF" d="M77.248 22.533l8.656.144-1.44 7.222h-17.6l6.203-28.022h8.656l-4.47 20.656m48.342-2.026c.083.679.328 1.328.714 1.893 1.446 1.301 3.899 1.013 5.488.293 1.6-1.013 1.872-2.602 2.304-4.186l3.467-16.614h8.8l-4.181 20.203c-.892 2.925-2.918 5.37-5.627 6.79-5.776 2.02-13.712 2.453-18.475-2.022-1.301-1.733-1.733-3.733-1.6-6.064l3.899-18.923h8.8l-3.605 18.63m56.133 0c.09.68.34 1.33.73 1.893 1.446 1.301 3.9 1.013 5.489.293 1.6-1.013 1.872-2.602 2.309-4.186l3.317-16.614h8.944l-4.181 20.219c-.89 2.927-2.92 5.374-5.632 6.79-5.77 2.02-13.867 2.453-18.47-2.022-1.295-1.733-1.727-3.733-1.6-6.064l4.038-18.923h8.677l-3.61 18.63m33.333-18.63c1.6 5.92 3.035 11.99 4.763 17.766l3.322-17.766h8.08L225.445 29.9h-9.066c-1.6-5.92-3.318-11.702-4.907-17.478l-3.2 17.478h-7.936l5.632-28.022h9.067m28.266 0C242.72 5.2 242 8.38 241.424 11.552c3.173-2.885 6.064-6.496 9.381-9.675h10.39l-12.08 11.552 8.224 16.47h-9.526l-5.05-10.256-3.606 3.2-1.6 7.221H229.2l5.915-28.187h8.229m41.27 7.366h-7.505l-4.186 20.656h-8.656l3.898-20.512-7.648-.144 1.44-7.366h24.102l-1.446 7.366m-127.13-.288l-1.158 5.2c2.022-.288 4.475.576 6.064-.87.792-.696 1.26-1.688 1.296-2.741-1.018-2.747-4.186-1.013-6.202-1.59zM169.46 3.62c2.853 2.456 3.937 6.394 2.742 9.963-.87 2.747-2.742 5.781-5.776 6.79-3.462 1.3-7.504.725-11.542.869l-2.021 8.666h-8.661l5.632-28.032c6.49.576 14.138-1.301 19.626 1.734v.01zm-64.218 15.734l-1.014-7.659-3.605 7.659h4.619zm10.389 10.544h-8.805l-.576-4.048-9.232-.139-2.31 4.187h-9.525l16.597-28.022h8.656l5.195 28.022zm-65.37-11.702l-1.009 4.624c2.886-.288 6.635.864 8.368-1.877.225-.75.063-1.563-.432-2.17-1.877-1.009-4.618-.283-6.928-.577zm2.165-9.664l-.864 3.734c2.597-.288 6.058 1.008 7.504-1.734 0-.432.144-1.157-.294-1.6-1.872-.848-4.325-.266-6.346-.4zm9.237-6.512c2.165.432 4.757 1.734 5.483 4.187.809 2.272.488 4.793-.864 6.79-.87.725-1.734 1.877-2.891 2.165 2.276 1.645 3.308 4.52 2.597 7.237-.498 2.636-2.207 4.884-4.613 6.07-6.64 2.602-14.864 1.013-22.224 1.445l6.059-28.038 16.453.144z" transform="translate(-370 -431) translate(370 211) translate(0 220)"/>
                </g>
            </g>
        </g>
    </g>
</svg>
