<svg xmlns="http://www.w3.org/2000/svg" width="24" height="24" viewBox="0 0 24 24">
  <path fill="#FFF" fill-rule="evenodd" d="M13.5222236,19.4719934 C13.5199393,19.5184457 13.5172746,19.5542771 13.5108697,19.6306147 C13.5055656,19.6895676 13.5055656,19.6895676 13.4999752,19.7460264 L13.4923412,19.8239045 C13.4840517,19.8957174 13.4777205,19.9450232 13.4704625,19.9912751 C13.4157225,20.3820669 13.3243162,20.7641091 13.1962221,21.1376044 C13.1917594,21.1506166 13.1861848,21.1630648 13.1796157,21.1748463 C12.8296427,22.1878657 12.2233852,23.0979278 11.4158957,23.8147254 L11.2875929,23.9292294 L11.1342375,23.987667 L6.21264127,23.987667 C6.17074152,23.987667 6.13157292,23.9901005 6.09339825,23.9951495 C5.87320795,24.0242725 5.74367192,23.756032 5.90380246,23.6025386 L6.84053755,22.7046295 L6.99989736,22.6406381 L10.6958497,22.6406381 C11.1153965,22.2289582 11.4559477,21.747939 11.7042488,21.218418 C11.7558247,21.1077756 11.8007319,21.0017585 11.8440285,20.8868328 C11.8526867,20.8670528 11.8610333,20.8444981 11.8759235,20.8010685 C11.9042704,20.7254504 11.9302673,20.6511978 11.9541653,20.5774402 C11.9552388,20.5731566 11.9564402,20.5688879 11.9577707,20.5646393 C12.0001755,20.4292324 12.0363302,20.2934814 12.0652436,20.1601622 C12.0801085,20.092988 12.0930182,20.0288602 12.1039111,19.9677659 C12.1197012,19.8769188 12.1311951,19.799911 12.1416502,19.7115644 C12.1438366,19.6996357 12.1446774,19.6925142 12.1475017,19.6601239 C12.1667996,19.4795142 12.1770089,19.3094927 12.1777642,19.1444357 L12.1777642,19.1164275 C12.1773721,19.0528403 12.1773721,19.0528403 12.1761954,18.989467 C12.173609,18.8983864 12.1694267,18.8163763 12.1630725,18.7381163 C12.1579703,18.6765893 12.1579703,18.6765893 12.1518373,18.6132902 C12.1450269,18.5428884 12.1355468,18.469443 12.1227053,18.3846637 C12.1144495,18.3309767 12.1073072,18.2885579 12.0980228,18.2392818 C12.093282,18.2073033 12.086866,18.1729682 12.0765576,18.1232286 C12.0675017,18.0769654 12.0605389,18.0461147 12.0484202,18.0013821 C12.0400362,17.960987 12.0317052,17.9261907 12.0204885,17.8860271 C12.00082,17.8067904 11.9789663,17.7299488 11.954416,17.6545183 C11.9346564,17.5913154 11.9141489,17.5304805 11.8903055,17.464716 C11.8803974,17.4363949 11.8803974,17.4363949 11.8680396,17.4038648 L11.86674,17.4004519 L11.8577984,17.376836 C11.1319486,15.4805003 9.29407913,14.1979865 7.21830279,14.1979865 C7.16967087,14.1979865 7.1210985,14.1987715 7.07299825,14.2003359 L7.06019906,14.1956031 C6.82849585,14.2031299 6.60794282,14.2244133 6.39544683,14.2606133 L6.20076986,14.2030968 C5.85325164,13.8832958 5.63104068,13.676292 5.41185513,13.4664137 C5.28337886,13.3433928 5.33790186,13.127708 5.50950796,13.0801136 C5.69970081,13.0273643 5.88963523,12.9836134 6.07949938,12.9490596 C6.10285984,12.9377275 6.12893435,12.9300883 6.15732835,12.9271475 L6.33166822,12.9091383 C6.62493475,12.8669952 6.91932775,12.8464268 7.21830279,12.8464268 C9.68677031,12.8464268 11.9011547,14.2713236 12.9356583,16.4557852 L12.9660413,16.5221846 L12.9860896,16.5670011 C13.040701,16.6878826 13.0891714,16.8039371 13.146726,16.9981034 L13.1311629,16.9168295 C13.1583046,16.9866038 13.1824918,17.0549196 13.2173723,17.158186 C13.2462253,17.2454348 13.2711602,17.3268885 13.2912955,17.4004438 C13.3330522,17.5409515 13.3695307,17.6892703 13.4041447,17.8553956 C13.4150151,17.9088622 13.4248146,17.9603502 13.4332633,18.0086718 C13.4527321,18.1155642 13.4688449,18.2203199 13.4809299,18.3203619 L13.4846548,18.3503926 C13.4923563,18.4121615 13.4958154,18.4414715 13.4992547,18.4764836 C13.5211428,18.6859436 13.5320496,18.8997584 13.5320496,19.1164275 C13.528583,19.2957111 13.5253076,19.4142331 13.5222236,19.4719934 Z M10.3108601,21.7898489 C10.3108601,21.9164859 10.2079074,22.0191455 10.0809088,22.0191455 L9.18652606,22.0191455 C9.05952743,22.0191455 8.95657469,21.9164859 8.95657469,21.7898489 L8.95657469,21.5072958 C8.95620182,21.4626709 8.95620182,21.4626709 8.95491381,21.4084434 C8.95470382,21.3950898 8.95470382,21.3950898 8.95370576,21.374087 L8.95251483,21.3425181 C8.95215331,21.3449104 8.95225018,21.3472771 8.9532347,21.3540836 L8.9541218,21.3649449 C8.9433552,21.2932785 8.92342805,21.0390554 8.91549891,20.9860881 C8.91331533,20.9655106 8.91109022,20.9514394 8.90362819,20.9098953 L8.90272529,20.9047736 C8.89955344,20.8854852 8.88806131,20.8273574 8.86824891,20.7303901 L8.86109209,20.6985891 C8.8560132,20.6769524 8.8560132,20.6769524 8.85041492,20.6559445 C8.82264887,20.5508956 8.8049246,20.4864717 8.79724209,20.4626728 C8.78590952,20.423083 8.77999538,20.4040516 8.76554051,20.3622412 C8.75752586,20.3365932 8.74997873,20.3147326 8.73649727,20.2788762 C8.70284884,20.1828121 8.66742441,20.0918161 8.62649347,19.9974596 C8.6158931,19.9716142 8.6158931,19.9716142 8.6026389,19.9412232 L8.59192501,19.916321 C8.56319106,19.8555227 8.56319106,19.8555227 8.53574298,19.7979214 L8.51148777,19.747421 C8.49638058,19.7168086 8.49638058,19.7168086 8.47696227,19.6800808 C8.46652103,19.6587049 8.45780713,19.6421651 8.43455554,19.5990816 L8.41836243,19.5690353 C8.39880889,19.53219 8.37823756,19.4951495 8.35102883,19.4475474 C8.34070083,19.4275827 8.32859634,19.4071157 8.29947113,19.3597715 C8.28726601,19.3376244 8.27678682,19.319993 8.24948807,19.2751442 C8.11940551,19.0642393 7.97227948,18.8511664 7.80797297,18.634673 C7.2197436,17.8622261 6.56143577,17.199923 5.24467452,15.9906207 L5.05985584,15.8209855 C5.03757028,15.8000824 5.03757028,15.8000824 5.01508276,15.7797263 L4.91932613,15.6921968 C4.82335756,15.6043543 4.78300321,15.567229 4.7281645,15.5161497 C3.63653625,14.5127195 3.02827872,13.8953346 2.54443532,13.252163 C2.52291046,13.2281751 2.52291046,13.2281751 2.52133523,13.2255812 C2.19545014,12.7938539 1.90638875,12.3748208 1.65945434,11.9758405 L1.4559968,11.6479801 C1.44281197,11.6267335 1.43357619,11.6048958 1.42787586,11.5830059 C1.32084361,11.3977297 1.2225648,11.2148509 1.12686881,11.0254235 C1.03734333,10.8482105 1.20050694,10.6489579 1.39253731,10.7009937 C1.44555945,10.7153615 1.49928533,10.7310226 1.55449745,10.7481435 C1.72722782,10.8017061 1.83362898,10.8401611 2.19789418,10.9768045 C2.36558323,11.0411235 2.52518235,11.1000556 2.6859778,11.1566415 L2.80503262,11.252278 C3.03656776,11.6256664 3.30192285,12.0124033 3.60523107,12.4126819 C3.70544054,12.5443932 3.80888487,12.6725849 3.91467407,12.7957261 C4.12500853,13.0390159 4.36414112,13.2929346 4.63574705,13.562785 C4.83078473,13.7577277 5.04150871,13.9596589 5.31638749,14.216716 C5.50529793,14.3925222 5.6949779,14.5675352 5.97961101,14.8285636 C6.06083828,14.903039 6.06083828,14.903039 6.14201261,14.9772694 C6.18263697,15.0142723 6.18263697,15.0142723 6.22503,15.0526206 C7.67458245,16.3868617 8.44729063,17.186189 9.11238785,18.1384214 C9.17017931,18.2220055 9.21456826,18.2873265 9.25493377,18.3496394 C9.32912727,18.461366 9.39621388,18.5680321 9.45855193,18.6739808 L9.47162573,18.696214 L9.5053267,18.7534642 C9.52943227,18.7949125 9.52943227,18.7949125 9.55020396,18.8323665 C9.58117235,18.8850882 9.61123085,18.9402498 9.64147168,18.9990521 C9.68047128,19.0706631 9.71771444,19.1443401 9.75525107,19.223305 C9.77273467,19.2591808 9.77273467,19.2591808 9.7887569,19.2934054 L9.80198791,19.3219418 L9.81955306,19.3598505 C9.86607022,19.4611855 9.90740847,19.5579346 9.94345508,19.6505922 C9.95444456,19.678575 9.95444456,19.678575 9.96489728,19.705966 L9.99251363,19.7794916 C9.99969896,19.8003103 9.99969896,19.8003103 10.008275,19.8237458 L10.0119213,19.8336756 L10.0239706,19.8669827 C10.0404702,19.914981 10.0404702,19.914981 10.0547966,19.9590734 C10.0671291,19.9968319 10.0671291,19.9968319 10.0774123,20.0300354 L10.0832301,20.0486577 C10.1016307,20.1050035 10.1186149,20.1631132 10.1404351,20.2434021 L10.1486358,20.2756144 L10.1523196,20.2896969 C10.1579044,20.3112338 10.1579044,20.3112338 10.1613729,20.3262861 C10.1710669,20.3612541 10.176608,20.3843676 10.1887214,20.4390247 L10.1928032,20.4571698 C10.2015698,20.4956519 10.2015698,20.4956519 10.2091275,20.5327945 C10.2210866,20.5868374 10.2315018,20.6417168 10.2401592,20.6955244 C10.250402,20.7556272 10.250402,20.7556272 10.2606245,20.8216434 L10.2683382,20.8808896 L10.271182,20.9021466 C10.2740551,20.923984 10.2740551,20.923984 10.2715385,20.9180189 C10.2776099,20.9444899 10.2776099,20.9444899 10.2787636,20.9608545 L10.283745,21.0072406 L10.2861465,21.0300535 L10.2940545,21.1050529 C10.2990857,21.1742927 10.2990857,21.1742927 10.3038453,21.2463153 C10.3065257,21.2932897 10.3082817,21.3394497 10.3091467,21.3858294 L10.3108601,21.7898489 Z M8.05766892,4.84185546 C9.34835126,4.84185546 10.4990246,5.60357737 11.0120633,6.75054387 C13.4775938,7.24076627 15.7999427,8.34586846 17.7396198,9.95100218 C17.8284112,10.0244793 17.8488458,10.152194 17.7873921,10.2495741 C17.6298864,10.4991587 17.4858516,10.7555165 17.3554054,11.0183325 C17.2890161,11.15209 17.1142077,11.187962 17.0002463,11.0912139 C16.8850094,10.9933829 16.7626954,10.8937479 16.6174544,10.7787255 C16.6103284,10.7744141 16.603374,10.7696785 16.5966255,10.7645164 L16.4443015,10.648 C14.840451,9.42203128 12.9796932,8.56093354 11.0063725,8.12932301 C10.8109937,8.08666831 10.619581,8.04877405 10.4300887,8.0153924 C10.4166547,8.01302581 10.403666,8.0095252 10.3912145,8.00499988 C10.3012705,7.98882235 10.2072321,7.9737333 10.1070488,7.95927147 C10.0017039,7.94406453 9.92167812,7.85915467 9.91120716,7.75549688 C9.88848283,7.61806992 9.85246122,7.48772551 9.80274839,7.36460312 C9.74076663,7.2078369 9.65551206,7.05905651 9.54971016,6.92198273 C9.19705251,6.4629784 8.65012957,6.18806063 8.05766892,6.18806063 C7.13182187,6.18806063 6.34666736,6.85949359 6.2042054,7.75298926 L6.20337496,7.75875565 C6.18883626,7.85970927 6.1091751,7.93895314 6.00789859,7.95320805 C5.70054987,7.99646811 5.40066609,8.04975484 5.10836098,8.11347969 C4.51136041,8.2409882 3.9236288,8.40783826 3.27101903,8.6264193 L3.34656109,8.6134034 C3.23203058,8.65361613 3.11580682,8.69685003 2.99428256,8.74431233 C2.80989203,8.81573044 2.62522169,8.89214354 2.42717491,8.97874025 C2.47416543,8.99515027 2.52225531,9.0123084 2.57175077,9.0302911 C2.66716559,9.06399173 2.7518337,9.09567004 2.89836246,9.15175471 C2.98495913,9.18434312 2.98495913,9.18434312 3.07074773,9.2164123 C3.88120497,9.51829097 4.39430918,9.63496015 5.1718937,9.63496015 C5.9038929,9.63496015 6.51985876,9.50820207 6.98293238,9.26893186 C6.80101905,9.0096825 6.6878265,8.70561548 6.65032861,8.3786816 C6.64366227,8.34273883 6.64366227,8.34273883 6.64149359,8.31853318 C6.6349471,8.25749035 6.63101924,8.1939247 6.62897899,8.11786473 C6.62674398,8.05329459 6.62593664,7.99639646 6.6285495,7.96511276 C6.63157965,7.92724209 6.63157965,7.92724209 6.63607742,7.88598385 L6.63690573,7.87850298 C6.63971323,7.8535373 6.64041511,7.84729588 6.6481011,7.81033483 L6.658,7.762 L6.65004723,7.79628628 C6.75911828,7.15260011 7.32260547,6.67845027 7.98126854,6.67845027 C8.66907522,6.67845027 9.24593192,7.1901966 9.32258701,7.86958274 C9.32706665,7.90957568 9.32891366,7.94571028 9.32970419,7.9885939 C9.33310916,8.03841382 9.33438854,8.0907646 9.33438854,8.15658192 C9.33438854,8.69323799 9.06603016,9.20285312 8.6352253,9.66775785 C8.60410092,9.70249157 8.57269302,9.73562888 8.53923125,9.76928712 C8.4872727,9.82194887 8.45484229,9.85393811 8.42063096,9.88550703 L8.41583859,9.89433721 L8.32917454,9.96992008 L8.26162847,10.0283424 C8.224383,10.059826 8.224383,10.059826 8.19135314,10.0861433 L8.19048948,10.0868289 L8.17739503,10.097198 L8.15650323,10.113715 C8.13798337,10.1282119 8.13798337,10.1282119 8.11658108,10.1444049 L8.10124352,10.1558881 L8.09560277,10.1601443 C8.07106387,10.1786618 8.07106387,10.1786618 8.04685466,10.1956557 C7.99917642,10.2305946 7.94788569,10.2649515 7.91851109,10.2798646 C7.89248227,10.3007356 7.88889422,10.3036126 7.86750926,10.3155262 C7.7866641,10.3665507 7.71018107,10.4104846 7.63877406,10.4465166 C7.61256918,10.460567 7.61256918,10.460567 7.58970495,10.4722199 L7.56279884,10.4860227 C7.51635754,10.5098079 7.49120584,10.5220543 7.46975546,10.53073 C7.38470993,10.5709026 7.29693847,10.6079475 7.25930994,10.6141314 C7.19320193,10.6503021 7.19320193,10.6503021 7.18890347,10.6489275 C7.1385256,10.6686844 7.09489913,10.6837335 7.01472143,10.7100235 C6.87453884,10.7581249 6.72850783,10.799139 6.57887315,10.8325893 C6.15168393,10.9325484 5.67966616,10.982401 5.1718937,10.982401 C4.32960519,10.982401 3.65818002,10.8516366 2.89936419,10.58837 C2.75858943,10.5388981 2.64211035,10.4956921 2.41882635,10.4111992 C2.26488791,10.3530115 2.19194505,10.3256372 2.19518542,10.3122642 C2.14617359,10.3082263 2.14617359,10.3082263 2.12052517,10.3001985 L2.1006786,10.2926421 L2.07523603,10.2815799 C1.79380499,10.169832 1.50425737,10.0451903 1.22084606,9.91482226 C1.16873985,9.89201884 1.1179328,9.86848031 1.0494642,9.83583594 C0.896825177,9.76365057 0.764573403,9.69994152 0.644576803,9.640623 C0.43577823,9.53664622 0.25479272,9.4414856 0.0710975805,9.32784719 L0.103707141,9.35071225 L0.103707141,9.35071225 L0.104,9.351 C0.0922061179,9.34336316 0.0811778018,9.33561522 0.0677758248,9.32619965 C-0.0195728988,9.23955241 -0.0229122579,9.09965224 0.0602034271,9.00895923 L0.0730665755,8.99506566 L0.25889687,8.80371745 C0.304893885,8.75642041 0.338482048,8.72225203 0.38241858,8.67868315 C0.509840604,8.55468061 0.603757795,8.46919703 0.689147672,8.40703115 L0.69429978,8.40327852 C0.756817102,8.35730917 0.820834542,8.31292164 0.887598719,8.26920335 C0.981301212,8.20751088 1.08236445,8.14576015 1.18018912,8.08999205 C1.20108882,8.07679297 1.20108882,8.07679297 1.21940994,8.06634862 L1.24981751,8.04985757 C1.31617663,8.01120814 1.38355534,7.97489674 1.46130672,7.93542376 C1.59968004,7.86369326 1.73279205,7.8021597 1.83707382,7.76239756 L1.8731663,7.74497616 C1.87727462,7.74323296 1.88169486,7.74148909 1.88832521,7.73887329 L1.89543342,7.73610624 C2.92373155,7.28384026 4.00252712,6.94764598 5.1105981,6.7343385 C5.62682571,5.59614548 6.77343377,4.84185546 8.05766892,4.84185546 Z M7.98126854,7.79206377 C7.88078544,7.79206377 7.79234369,7.85631782 7.76327833,7.94899192 L7.76327833,7.94899192 L7.75746526,7.97864763 L7.75248262,8.05567011 C7.75248262,8.08985656 7.75331306,8.12280735 7.75580438,8.15493438 C7.75912614,8.18870894 7.76244789,8.22165973 7.76618487,8.25296298 C7.77365882,8.30115352 7.78279364,8.34646086 7.79566545,8.38970877 C7.8330352,8.51698121 7.8928268,8.62283563 7.97628591,8.70974335 C8.1104018,8.5281021 8.19053915,8.35675798 8.21005447,8.21095072 C8.21254578,8.19282779 8.21337622,8.17429297 8.21337622,8.15658192 C8.21337622,8.11786473 8.21254578,8.07997132 8.2108849,8.04537299 L8.2108849,8.04537299 L8.21005447,8.01901236 C8.21005447,8.00912712 8.20839359,8.00047753 8.20756315,7.99223984 C8.19552178,7.87814772 8.09794521,7.79206377 7.98126854,7.79206377 Z M11.6311909,0.114697802 L11.7920251,0.392557808 C12.138411,0.992719686 12.1907285,1.70652281 11.9305933,2.35809113 C11.8387284,2.59056708 11.7080466,2.80654371 11.5440608,2.9964008 C11.4809463,3.06954634 11.4133728,3.13842632 11.3416952,3.20268927 L11.3557278,3.20813005 L11.3557278,3.20813005 C11.5959956,3.30264351 11.8612252,3.30202762 12.0994113,3.20826466 C12.1203979,3.19325359 12.1442175,3.18158099 12.1702464,3.17417784 L12.1807421,3.16995832 L12.1935885,3.16491544 C12.2137657,3.15309676 12.2371007,3.14461593 12.2607497,3.13996073 C12.2907955,3.12768358 12.3147893,3.11650284 12.3379283,3.10383656 C12.4575032,3.04251883 12.5563425,2.96477568 12.638562,2.86817473 C12.7205428,2.77185434 12.8652116,2.75980243 12.9620841,2.84122308 L13.5766089,3.35772676 C13.6740296,3.43960813 13.6861113,3.58486729 13.6035493,3.68163326 C13.4753972,3.83183255 13.3273994,3.96392005 13.1333229,4.09184922 L11.4605098,5.69361091 C11.3626523,5.78731203 11.2051337,5.77660517 11.1209331,5.67052916 C10.9652872,5.47444635 10.7882592,5.29308402 10.5940619,5.13047281 C10.4894013,5.04283516 10.4840397,4.88405694 10.5825514,4.78959764 L10.9778918,4.41051983 C10.9488729,4.40056452 10.9200752,4.39003099 10.8915105,4.37891555 C10.5587133,4.24759755 10.2611562,4.04079149 10.0243954,3.77769115 C9.66895611,3.80985635 9.30949376,3.76003083 8.97862944,3.63086015 C8.90524264,3.60224431 8.83351082,3.56990281 8.76378914,3.53405386 L8.76333713,4.03534411 C8.76321504,4.17074907 8.64607194,4.27656186 8.51092934,4.26333852 C8.40179484,4.25266 8.28538921,4.24754726 8.16134922,4.24754726 C8.02728767,4.24754726 7.89151956,4.25481405 7.75156565,4.26902179 C7.61599723,4.28278433 7.49823383,4.17663371 7.49832396,4.04075259 L7.49998484,1.53829162 L7.49998484,1.37477331 C7.49998484,1.36778487 7.50029837,1.36086945 7.50091216,1.35404028 C7.50126995,1.34805019 7.50181974,1.34001527 7.50260938,1.32847521 C7.51755532,1.20986793 7.62137373,1.12260978 7.74113314,1.12799878 L8.14266435,1.14630048 L8.53504673,1.14630048 C8.66204537,1.14630048 8.7649981,1.24896007 8.7649981,1.37559708 L8.76479667,1.40455121 C8.76340302,1.43773019 8.76340302,1.4713464 8.76461145,1.50152279 C8.77012644,1.59623422 8.78840998,1.68852052 8.82003761,1.77796483 C8.82303316,1.7867555 8.82622475,1.79539112 8.8296526,1.80398351 C8.84130355,1.82102196 8.85082501,1.83992309 8.85771886,1.86043857 L8.87086386,1.89678222 L8.88185487,1.9175986 L8.88647102,1.92646693 L8.89686656,1.94587363 C8.90638588,1.96270657 8.91352948,1.98016668 8.91842555,1.99789182 C9.03040771,2.20820401 9.21466849,2.37171149 9.44252457,2.46028063 C9.44700718,2.46207725 9.45150257,2.46383948 9.4560106,2.46556737 C9.44795298,2.36956356 9.44609604,2.27235436 9.45043403,2.17466058 C9.45970666,1.92952966 9.5127107,1.68288716 9.60986008,1.43740233 L9.61091373,1.43535027 C9.86551406,0.794106328 10.3928185,0.309002321 11.0568435,0.104990776 L11.3641059,0.0102572468 C11.4666684,-0.0213642727 11.5775259,0.0219853161 11.6311909,0.114697802 Z M11.0288548,1.24626522 C10.8253973,1.38383478 10.6663682,1.579892 10.573359,1.81343074 L10.573359,1.81343074 L10.5692069,1.82372786 C10.5189653,1.95182407 10.4903152,2.08445101 10.4849173,2.21707795 C10.4791042,2.32911065 10.4886543,2.43826015 10.5131522,2.54370268 C10.6057462,2.48191995 10.686714,2.41025197 10.7573013,2.32746311 C10.8474039,2.22449188 10.9179912,2.1066928 10.9690632,1.97900847 L10.9690632,1.97900847 L10.9719697,1.96994701 C11.0653941,1.73599638 11.0832485,1.48515847 11.0288548,1.24626522 Z M23.9877611,14.7520037 C23.9827539,14.8430654 23.976021,14.9370996 23.9675217,15.0350252 C23.9571059,15.1423646 23.9502578,15.2067296 23.9415285,15.274173 C23.9214422,15.4363527 23.8999606,15.5811717 23.8743722,15.7213247 L23.868406,15.7524338 L23.8561436,15.8158856 C23.8465025,15.8644594 23.8465025,15.8644594 23.8364993,15.9112707 C23.8057675,16.0618485 23.7739288,16.1979061 23.7394641,16.323214 C23.7113798,16.4342331 23.6789523,16.5476194 23.6430618,16.6613394 C23.6305453,16.7023498 23.6206338,16.7327005 23.59787,16.8006226 L23.5901307,16.8233048 C23.5727139,16.8744417 23.5727139,16.8744417 23.5566854,16.9177839 C23.3499479,17.5075401 23.071792,18.0703447 22.7427929,18.5679545 C22.7240586,18.6039482 22.7240586,18.6039482 22.7149114,18.6169734 L22.7139347,18.6184065 L22.6825613,18.657164 L22.7091811,18.6247305 L22.1361782,19.4933958 C22.0251115,19.6617716 21.7658778,19.6156315 21.7200886,19.4193374 L21.4838353,18.4065406 C21.4694222,18.3455375 21.4694222,18.3455375 21.4543958,18.2838774 L21.439133,18.2216489 L21.4246253,18.1622428 C21.4083439,18.0997937 21.3967389,18.0568412 21.3649878,17.9401111 L21.3615691,17.925131 L21.3589163,17.9161811 C21.2866833,17.6524464 21.2133888,17.4098268 21.1355819,17.1798153 L21.0725954,16.954979 L21.0854323,17.0296954 C21.0459708,16.9169218 21.0124523,16.8237083 20.9808664,16.7393261 C20.9656027,16.7006071 20.9656027,16.7006071 20.9510448,16.6628276 L20.9222573,16.5883559 C20.9007126,16.5329457 20.9007126,16.5329457 20.8786411,16.4773976 L20.8449616,16.3932367 C20.8194697,16.3298355 20.7908494,16.2618349 20.7553386,16.1798281 C20.719616,16.0923941 20.6810907,16.0045956 20.6369011,15.9097185 C20.5494984,15.7158397 20.4651677,15.5387499 20.3797012,15.3710934 C20.3487512,15.3099125 20.3487512,15.3099125 20.316314,15.2473307 L20.2950232,15.2063198 C20.0888886,14.8142638 19.8676,14.4375102 19.6307255,14.0766884 C19.4932249,13.8623157 19.3740792,13.6881629 19.2551018,13.5249176 L19.219507,13.3289203 C19.3184021,12.9728182 19.4452288,12.6302575 19.6013991,12.2997417 C19.6742601,12.1455401 19.8843919,12.121711 19.9901164,12.2556608 C20.1055306,12.4018873 20.2198519,12.5531159 20.3340865,12.7103692 C20.3469165,12.7221517 20.3586338,12.7356261 20.3689179,12.7507614 L20.4833509,12.9191756 L20.5035991,12.9490992 L20.6186222,13.1188065 C20.7408753,13.299203 20.8556946,13.4759472 20.9648407,13.6524513 C20.9840917,13.6844267 20.9840917,13.6844267 21.0041693,13.7172743 L21.0177704,13.7395118 C21.0454156,13.7848261 21.0454156,13.7848261 21.0709089,13.8279554 C21.1051548,13.8836517 21.139985,13.9425307 21.1780398,14.0086408 C21.2063847,14.0562239 21.2279751,14.093774 21.2762819,14.1788643 C21.3543416,14.3185199 21.4218009,14.4425919 21.4836646,14.5610534 L21.4843972,14.5640379 C21.5235012,14.6370088 21.5604851,14.7091767 21.6136631,14.8152124 L21.6356885,14.8594529 L21.6540784,14.8970377 C21.6865676,14.9607269 21.7185647,15.0266714 21.7579542,15.1103293 C21.7950084,15.1894423 21.8119453,15.2260468 21.8297587,15.2662295 C21.8585487,15.325688 21.8836838,15.380758 21.9043608,15.4300209 L21.9273577,15.481633 C21.9392912,15.5086714 21.9392912,15.5086714 21.9493085,15.5322944 C21.9851607,15.6123142 22.0183574,15.6888714 22.0468851,15.7575955 L22.0530107,15.7721348 L22.0547022,15.7764421 C22.0561414,15.7799385 22.0561414,15.7799385 22.0519438,15.7708086 L22.0764356,15.8737812 L22.0582831,15.7853116 C22.1401785,15.9784585 22.2178471,16.1779121 22.2900476,16.3797661 C22.2934774,16.3889901 22.2968939,16.3982103 22.3002968,16.4074261 C22.4094277,16.0875293 22.4932354,15.7585055 22.551607,15.419777 C22.5576404,15.3913485 22.5617542,15.3673257 22.5658537,15.3337347 C22.571877,15.2971382 22.5747627,15.2774518 22.5837081,15.2122286 C22.5892023,15.1788469 22.5936843,15.1447017 22.5979072,15.1045625 L22.6022686,15.0687432 C22.6061874,15.0375979 22.6061874,15.0375979 22.6089339,15.0082142 C22.6330261,14.780778 22.6450315,14.5532176 22.6450315,14.3234464 C22.6450315,14.2033039 22.6422694,14.0930232 22.6361449,13.9864674 C22.6311462,13.8792858 22.6226469,13.7701731 22.6104006,13.6536564 C22.5995589,13.542402 22.5843254,13.4258995 22.5650078,13.301918 L22.5526208,13.2302783 L22.5411771,13.1638629 L22.5348191,13.1302773 L22.5287125,13.0977869 C22.5227093,13.0663498 22.5227093,13.0663498 22.5162569,13.0349576 C22.5008944,12.9587618 22.4834,12.8795545 22.4631065,12.7930105 C22.4320511,12.6703905 22.4179328,12.6167605 22.3980002,12.548828 C22.3791599,12.4809371 22.3583962,12.4130257 22.3346157,12.3413945 C22.104521,11.6252399 21.7504987,10.9545239 21.2865531,10.3557603 C21.1193316,10.1395769 20.938339,9.93387015 20.7444483,9.73978738 C20.15055,10.2836278 19.6449129,10.9248593 19.2582647,11.6261131 C19.2135108,11.7060965 19.1691699,11.7912689 19.120667,11.8896887 C19.0287869,12.0727357 18.9425142,12.2669553 18.8607403,12.4726604 C18.7854232,12.6660331 18.7184437,12.8604696 18.6592295,13.0574611 C18.6375343,13.1303686 18.6194576,13.1943822 18.6037532,13.2545183 C18.578149,13.3536935 18.5672249,13.3973051 18.5562616,13.445195 L18.5517619,13.467831 C18.5356767,13.5316551 18.5217775,13.5946567 18.5087483,13.6634605 C18.4998015,13.7042474 18.4939561,13.7345451 18.4801261,13.8099043 L18.4699279,13.8654411 C18.4575666,13.9381681 18.4469059,14.0061644 18.4376998,14.071612 C18.4227854,14.1772877 18.4106304,14.2770083 18.400855,14.3758362 C18.3981119,14.4024772 18.3981119,14.4024772 18.3955439,14.4306821 L18.3905141,14.4889374 C18.3826924,14.5794576 18.3784635,14.6371177 18.3754258,14.7025085 C18.3717145,14.7547861 18.3692855,14.8103001 18.3680131,14.8705175 L18.3655942,14.9512531 L18.3645602,15.0085257 C18.3634718,15.0642034 18.3634718,15.0642034 18.363128,15.1175605 C18.3633247,15.1707686 18.3633247,15.1707686 18.3641279,15.2202671 C18.3651423,15.2702349 18.3651423,15.2702349 18.3663865,15.3214213 C18.3692002,15.4410375 18.3756346,15.5612125 18.3861944,15.6891001 C18.4638412,17.6134764 19.159282,19.4513589 20.3758459,20.9497992 C20.4863863,21.0873494 20.6055768,21.2257032 20.7352474,21.3676136 C21.2200334,21.8935398 21.7641114,22.3611928 22.3511527,22.7565011 L23.5590261,23.5679143 C23.7472397,23.6943506 23.6574868,23.9873787 23.4305465,23.9873787 L13.1252148,23.9873787 C13.0800514,23.9873787 13.0357244,23.9906662 12.9941786,23.9970557 C12.7722075,24.0311935 12.6378506,23.7603533 12.7997595,23.6051408 L13.7389859,22.7047604 L13.8983534,22.6407616 L20.0883326,22.6407616 C19.9676539,22.5215798 19.8499584,22.3994606 19.7354004,22.2745365 C18.091381,20.4859804 17.1394483,18.1940748 17.0344957,15.7850713 C17.029018,15.7125907 17.029018,15.7125907 17.0247016,15.6416817 C17.0216977,15.5889298 17.0216977,15.5889298 17.0189121,15.5367875 L17.0169479,15.4998445 C17.0143338,15.439771 17.0126271,15.3815748 17.0119165,15.3281307 C17.0096005,15.2676324 17.0088426,15.2075818 17.0088426,15.1220912 C17.0088426,15.0100986 17.0097416,14.9409843 17.0126704,14.8713986 C17.0151854,14.7821357 17.016654,14.7407629 17.019528,14.6905759 C17.0220502,14.6412508 17.0220502,14.6412508 17.0250361,14.6043519 L17.0255446,14.5800504 L17.0274752,14.5509448 C17.0332761,14.4632457 17.0364104,14.4211593 17.0408517,14.3774417 C17.0452755,14.3072296 17.0522665,14.2348792 17.0620631,14.1518872 C17.0705944,14.0727791 17.0801932,13.9993505 17.09708,13.8793025 C17.106812,13.811011 17.1161299,13.7520093 17.1353064,13.6349544 C17.1490723,13.5578418 17.1644892,13.4782552 17.1817048,13.3946678 C17.1962766,13.3204404 17.2127969,13.2437626 17.2342878,13.1497134 L17.2426159,13.1155497 C17.2578216,13.0528854 17.2656174,13.0222951 17.2733528,12.9969521 C17.284295,12.9494176 17.2940551,12.9130205 17.3163841,12.8338687 C17.3269179,12.7926181 17.3365011,12.7590688 17.3572292,12.6891235 L17.3669562,12.6576523 L17.3684228,12.6530023 L17.3761904,12.6280499 C17.3884214,12.583563 17.4025793,12.538005 17.4186263,12.4911874 L17.4209589,12.4841753 L17.424249,12.473816 L17.4355853,12.4386531 C17.5150219,12.1979514 17.6035897,11.9634907 17.7011356,11.7367444 C17.7630785,11.5917331 17.8315119,11.444265 17.9067795,11.2927427 C18.4793521,10.140288 19.3218657,9.1100795 20.3244646,8.32942066 L20.346493,8.30982836 L20.6317487,8.08699863 C20.7173766,8.0201098 20.8382929,8.02219742 20.9215472,8.09200201 L21.2009652,8.32628084 C22.3255906,9.27348309 23.1561063,10.5029885 23.6106583,11.8839866 C23.6422789,11.9831608 23.6695728,12.071408 23.6956237,12.1595184 C23.7403758,12.3193324 23.7792165,12.4712548 23.814132,12.6255047 C23.8242867,12.6750651 23.8242867,12.6750651 23.8348285,12.7255073 C23.8454629,12.7763888 23.8454629,12.7763888 23.8566392,12.8310586 L23.8695246,12.9009157 L23.8847533,12.9868338 L23.8940872,13.0400564 C23.90473,13.1041828 23.9147212,13.1707278 23.9259324,13.25104 L23.9304933,13.2854155 L23.9397219,13.3555039 C23.9465276,13.4090755 23.9465276,13.4090755 23.9528775,13.4653515 L23.9571183,13.5065994 C23.9657661,13.5903547 23.9695638,13.6289453 23.9738953,13.6809057 L23.9786496,13.7482017 L23.981149,13.7829398 C23.9846657,13.8335642 23.9848304,13.8359356 23.9876676,13.8932309 C23.9909793,13.9420673 23.9925038,13.9805578 23.9949654,14.0622388 L23.9984631,14.1480094 C23.9994018,14.213262 23.9994018,14.213262 24,14.2791053 C23.9947237,14.5455142 23.9906441,14.703147 23.9877611,14.7520037 Z"/>
</svg>
