<svg xmlns="http://www.w3.org/2000/svg" width="235" height="44" viewBox="0 0 235 44">
    <g fill="#FFF">
        <path d="M0 .484H13.651V43.469H0zM35.313 27.528c-6.947-6.124-18.551-3.755-18.551-3.755 0 2.45-.339 10.299 6.044 16.02 6.946 6.125 18.55 3.723 18.55 3.723s.984-9.895-6.043-15.94M22.806 4.239c-6.447 5.721-6.044 13.49-6.044 16.02 0 0 11.604 2.37 18.55-3.771C42.26 10.348 41.358.484 41.358.484S29.752-1.982 22.806 4.239M133.273 30.188L128.067 20.259 122.201 20.259 130.421 35.49 126.262 43.468 132.129 43.468 143.943 20.259 138.237 20.259zM155.757 25.143c1.859-.01 3.645.721 4.964 2.03l3.82-3.9c-2.315-2.268-5.466-3.475-8.704-3.336-1.89-.034-3.763.38-5.463 1.209-3.968 2.055-6.405 6.203-6.27 10.67-.124 4.686 2.531 9.004 6.77 11.007 1.628.655 3.37.983 5.125.967 3.171.098 6.231-1.177 8.397-3.497l-3.224-3.916c-1.388 1.465-3.316 2.298-5.335 2.304-1.75-.044-3.408-.8-4.59-2.092-1.183-1.292-1.79-3.01-1.68-4.757-.1-1.716.503-3.398 1.671-4.658 1.169-1.26 2.8-1.987 4.519-2.015M168.699 43.468L185.96 43.468 185.96 38.585 174.082 38.585 174.082 34.104 183.027 34.104 183.027 29.301 174.082 29.301 174.082 25.143 185.96 25.143 185.96 20.259 168.699 20.259zM232.088 30.026c-1.579-1.621-3.766-2.504-6.028-2.433h-4.835v-7.334h-5.254v23.257h10.186c2.155.107 4.258-.68 5.814-2.175 1.556-1.494 2.426-3.565 2.406-5.722-.009-2.09-.83-4.096-2.29-5.593m-6.35 8.559h-4.48v-6.19h4.48c.842-.03 1.66.282 2.268.865.607.583.952 1.388.956 2.23.01.847-.33 1.66-.941 2.246-.61.586-1.437.893-2.282.849M195.018 24.901c-.886 12.894-2.917 13.603-5.608 13.28l-.162 5.287c6.27.903 9.203-1.612 10.59-13.845l.483-4.48h5.045v18.373h5.302V20.26h-15.311l-.339 4.642zM68.031 20.259L60.375 29.785 60.375 20.259 55.008 20.259 55.008 43.468 60.375 43.468 60.375 33.782 67.708 43.468 74.8 43.468 65.355 31.493 75.203 20.259zM85.421 20.26l-9.493 23.256h5.625l1.87-4.835H92.4l1.95 4.835h5.85L90.257 20.26h-4.835zm0 13.441l2.515-6.608 2.627 6.608H85.42zM113.078 20.26h-10.266v23.256h5.383l.08-6.189h4.304c2.5.168 4.947-.776 6.688-2.578 1.414-1.691 2.19-3.824 2.192-6.028.057-2.233-.794-4.394-2.358-5.988-1.564-1.595-3.708-2.487-5.942-2.474m-.5 12.137h-4.464v-7.011h4.464c1.844.125 3.276 1.657 3.276 3.505 0 1.848-1.432 3.38-3.276 3.506M159.222 8.284L155.483 8.284 155.483 6.463 158.722 6.463 158.722 4.303 155.483 4.303 155.483 2.547 159.141 2.547 159.141.484 153.242.484 153.242 10.363 159.222 10.363zM134.95 7.043h1.08c.933.081 1.859-.231 2.553-.861.695-.63 1.095-1.521 1.105-2.459 0-1.757-.919-3.336-3.981-3.336-.758 0-2.498.097-2.998.097v9.88h2.24v-3.32zm0-4.496h.999c.838 0 1.321.257 1.321 1.176 0 .919-.66 1.16-1.321 1.16h-1V2.548zM69.965 4.223L69.965 10.363 72.205 10.363 72.205.484 70.207.484 65.887 6.624 65.887.484 63.566.484 63.566 10.363 65.565 10.363zM57.248 2.547L60.649 2.547 60.649.484 55.008.484 55.008 10.363 57.248 10.363zM94.318 8.284L90.498 8.284 90.498 6.463 93.738 6.463 93.738 4.303 90.498 4.303 90.498 2.547 94.141 2.547 94.141.484 88.242.484 88.242 10.363 94.318 10.363zM110.016 4.126L112.756 7.962 113.095 7.962 115.834 4.045 115.834 10.363 118.075 10.363 118.075.484 115.996.484 113.095 4.626 110.016.484 107.776.484 107.776 10.363 110.016 10.363zM144.507 5.625L147.827 10.363 150.744 10.363 146.747 5.045 150.406.484 147.747.484 144.507 4.803 144.507.484 142.186.484 142.186 10.363 144.507 10.363zM78.523 2.547L82.021 2.547 82.021 10.363 84.261 10.363 84.261.484 76.283.484 76.283 10.363 78.523 10.363zM161.704 2.547L164.621 2.547 164.621 10.363 166.942 10.363 166.942 2.547 169.859 2.547 169.859.484 161.704.484zM127.326 8.284l.822 2.08h2.418l-4.094-9.88h-1.983l-4.158 9.88h2.321l.838-2.08h3.836zm-1.999-4.835l1.16 2.74h-2.175l1.015-2.74zM105.036 3.723c0-1.757-1-3.336-4.078-3.336-.741 0-2.401.097-2.981.097v9.88h2.24v-3.32h1.08c.942.08 1.875-.23 2.582-.858.707-.628 1.125-1.518 1.157-2.463m-3.74 1.112h-1.08V2.547h1c.822 0 1.402.257 1.402 1.176.004.338-.14.66-.394.883-.254.223-.593.324-.927.278"/>
    </g>
</svg>
