<svg xmlns="http://www.w3.org/2000/svg" width="48" height="48" viewBox="0 0 48 48">
    <defs>
        <filter id="prefix__a" width="105.4%" height="106.5%" x="-2.7%" y="-3.3%" filterUnits="objectBoundingBox">
            <feMerge>
                <feMergeNode in="shadowMatrixOuter1"/>
                <feMergeNode in="SourceGraphic"/>
            </feMerge>
        </filter>
    </defs>
    <g fill="none" fill-rule="evenodd" filter="url(#prefix__a)" transform="translate(-312 -216)">
        <g>
            <g>
                <path fill="#00754A" fill-rule="nonzero" d="M17.912 39.256c-.009.203-.177.363-.38.363-.222 0-.39-.16-.397-.363-.11-2.414-1.338-3.975-3.681-4.684C5.737 32.738 0 25.8 0 17.524 0 7.845 7.845 0 17.524 0c9.678 0 17.524 7.845 17.524 17.524 0 8.276-5.738 15.214-13.454 17.048-2.344.709-3.571 2.27-3.68 4.684h-.002z" transform="translate(312 216) translate(6.857)"/>
                <path fill="#FFF" stroke="#00754A" stroke-width="1.714" d="M17.524.857c-4.603 0-8.77 1.866-11.785 4.882C2.723 8.755.857 12.92.857 17.524c0 3.895 1.336 7.479 3.575 10.316 2.286 2.897 5.513 5.017 9.27 5.912 1.364.412 2.391 1.087 3.104 1.993.278.354.5.75.737 1.19.184-.435.417-.831.699-1.19.712-.906 1.74-1.58 3.154-2.007 3.707-.881 6.933-3.001 9.22-5.898 2.238-2.837 3.574-6.42 3.574-10.316 0-4.603-1.865-8.77-4.88-11.785C26.292 2.723 22.125.857 17.523.857z" transform="translate(312 216) translate(6.857)"/>
                <path fill="#FFF" d="M17.524 48c-1.684 0-3.048-1.364-3.048-3.048 0-1.683 1.364-3.047 3.048-3.047s3.047 1.364 3.047 3.047c0 1.684-1.363 3.048-3.047 3.048z" transform="translate(312 216) translate(6.857)"/>
                <path fill="#00754A" d="M17.524 46.476c.552.013 1.068-.275 1.348-.751.28-.477.28-1.067 0-1.544-.28-.476-.795-.764-1.347-.752-.829.019-1.49.695-1.49 1.523 0 .829.66 1.505 1.489 1.524z" transform="translate(312 216) translate(6.857)"/>
            </g>
            <g fill-rule="nonzero">
                <path fill="#E1251B" d="M0 0.272H6.223V19.866H0z" transform="translate(312 216) translate(15.429 6.857)"/>
                <path fill="#00754A" d="M16.097 12.607c-3.166-2.791-8.456-1.711-8.456-1.711 0 1.116-.154 4.694 2.755 7.302 3.166 2.792 8.456 1.675 8.456 1.675s.448-4.51-2.755-7.266M10.396 1.991C7.457 4.599 7.64 8.133 7.64 9.294c0 0 5.29 1.08 8.456-1.72C19.264 4.777 18.852.273 18.852.273s-5.29-1.117-8.456 1.719" transform="translate(312 216) translate(15.429 6.857)"/>
                <path fill="#FFF" d="M1.95 9.36c-.205-.465-.127-1.013.196-1.396l.361.377c-.122.13-.19.306-.188.488 0 .363.277.611.617.608.354 0 .633-.255.633-.616 0-.2-.075-.39-.21-.529l.36-.312c.213.215.33.515.321.825.002.174-.028.346-.09.507-.181.414-.58.676-1.015.665-.415.012-.799-.228-.985-.617zm-.083-5.93H4.01v.515H2.319v.497l.413.05c1.128.137 1.359.425 1.279 1.041l-.49-.016c.03-.264-.037-.468-1.225-.552l-.43-.032V3.429zm0 8.124l.917-.513-.916-.488v-.56l2.143 1.16v.577l-.737-.408-1.406.808v-.576zm0-5.692h.451V7.03h.384v-.88h.443v.88h.414V5.862h.452v1.696H1.868V5.862zm0-3.48h.677V1.91c-.007-.221.075-.435.225-.59.137-.14.321-.218.512-.218.36 0 .73.28.73.808v1.001H1.867v-.528zm0 15.825h.88l-.88-.753v-.705l1.038.969 1.106-.929v.697l-.895.72h.895v.529H1.868v-.528zm0-2.938l2.144-.977v.576l-.452.191v.88l.452.184v.553l-2.144-.928v-.48zm0-2.242c-.001-.218.08-.426.228-.579.148-.152.348-.236.554-.231.204 0 .401.077.557.216.162.171.247.407.233.649v.421l.572.008v.528H1.867zm1.12-11.083v.44h.572v-.44c.004-.082-.025-.161-.079-.22-.054-.06-.128-.092-.206-.092-.078 0-.152.034-.206.093-.053.059-.082.138-.08.22zM2.5 15.504l.61.252v-.511l-.61.258zm-.15-2.438v.44h.643v-.44c-.01-.177-.152-.315-.322-.312-.17-.003-.311.135-.321.312z" transform="translate(312 216) translate(15.429 6.857)"/>
            </g>
        </g>
    </g>
</svg>
