<svg width="180" height="180" viewBox="0 0 180 180" fill="none" xmlns="http://www.w3.org/2000/svg">
<path fill-rule="evenodd" clip-rule="evenodd" d="M48.0212 0.535166C48.8291 0.790343 49.2809 1.66399 49.0303 2.48652C48.7796 3.30904 47.9214 3.76897 47.1135 3.51379C46.2875 3.2529 45.4224 3.11867 44.5378 3.11867C43.6919 3.11867 43.0061 2.42053 43.0061 1.55934C43.0061 0.698138 43.6919 0 44.5378 0C45.731 0 46.9021 0.181704 48.0212 0.535166ZM54.4489 5.54055C54.9033 6.26694 54.6933 7.23082 53.9798 7.69344C53.2663 8.15606 52.3195 7.94223 51.8651 7.21584C51.3961 6.46626 50.8181 5.79157 50.1523 5.21599C49.5074 4.65856 49.4286 3.67451 49.9761 3.01806C50.5237 2.36161 51.4903 2.28133 52.1351 2.83876C53.0344 3.61616 53.8151 4.5274 54.4489 5.54055ZM56.2808 13.4007C56.2809 14.2619 55.5951 14.9601 54.7492 14.9601C53.9033 14.9601 53.2175 14.262 53.2175 13.4008L53.2174 11.9317C53.2162 11.4523 53.1776 10.9784 53.1027 10.5128C52.9658 9.66293 53.5316 8.86106 54.3664 8.72174C55.2012 8.58243 55.9889 9.15844 56.1257 10.0083C56.2271 10.6379 56.2792 11.2778 56.2808 11.9277L56.2808 13.4007ZM56.2809 20.6777C56.2809 21.5389 55.5951 22.237 54.7492 22.237C53.9032 22.237 53.2175 21.5389 53.2175 20.6777V17.559C53.2175 16.6978 53.9032 15.9997 54.7492 15.9997C55.5951 15.9997 56.2809 16.6978 56.2809 17.559V20.6777ZM56.2809 27.9546C56.2809 28.8158 55.5951 29.5139 54.7492 29.5139C53.9032 29.5139 53.2175 28.8158 53.2175 27.9546V24.8359C53.2175 23.9747 53.9032 23.2766 54.7492 23.2766C55.5951 23.2766 56.2809 23.9747 56.2809 24.8359V27.9546ZM56.2809 35.2315C56.2809 36.0927 55.5951 36.7908 54.7492 36.7908C53.9032 36.7908 53.2175 36.0927 53.2175 35.2315V32.1128C53.2175 31.2516 53.9032 30.5535 54.7492 30.5535C55.5951 30.5535 56.2809 31.2516 56.2809 32.1128V35.2315ZM56.2809 42.5084C56.2809 43.3696 55.5951 44.0677 54.7492 44.0677C53.9032 44.0677 53.2175 43.3696 53.2175 42.5084V39.3897C53.2175 38.5285 53.9032 37.8304 54.7492 37.8304C55.5951 37.8304 56.2809 38.5285 56.2809 39.3897V42.5084ZM56.2809 49.7853C56.2809 50.6465 55.5951 51.3446 54.7492 51.3446C53.9032 51.3446 53.2175 50.6465 53.2175 49.7853V46.6666C53.2175 45.8054 53.9032 45.1073 54.7492 45.1073C55.5951 45.1073 56.2809 45.8054 56.2809 46.6666V49.7853ZM56.2809 57.0622C56.2809 57.9234 55.5951 58.6215 54.7492 58.6215C53.9032 58.6215 53.2175 57.9234 53.2175 57.0622V53.9435C53.2175 53.0823 53.9032 52.3842 54.7492 52.3842C55.5951 52.3842 56.2809 53.0823 56.2809 53.9435V57.0622ZM56.2809 64.3391C56.2809 65.2003 55.5951 65.8984 54.7492 65.8984C53.9032 65.8984 53.2175 65.2003 53.2175 64.3391V61.2204C53.2175 60.3592 53.9032 59.661 54.7492 59.661C55.5951 59.661 56.2809 60.3592 56.2809 61.2204V64.3391ZM56.1688 71.8267C56.0525 72.6797 55.279 73.2752 54.4411 73.1568C53.6032 73.0385 53.0182 72.251 53.1345 71.3979C53.1896 70.9939 53.2175 70.584 53.2175 70.1701V68.4973C53.2175 67.6361 53.9032 66.938 54.7492 66.938C55.5951 66.938 56.2809 67.6361 56.2809 68.4973V70.1701C56.2809 70.7275 56.2433 71.2806 56.1688 71.8267ZM52.316 79.1266C51.6824 79.6973 50.7144 79.637 50.1539 78.9919C49.5934 78.3469 49.6526 77.3615 50.2862 76.7908C50.9404 76.2016 51.5049 75.5152 51.9586 74.7562C52.3984 74.0205 53.3407 73.7871 54.0634 74.2348C54.786 74.6825 55.0153 75.6418 54.5755 76.3775C53.9621 77.4037 53.1996 78.3308 52.316 79.1266ZM44.8394 82.1211C43.9938 82.1429 43.2909 81.4626 43.2695 80.6017C43.2481 79.7407 43.9164 79.0252 44.762 79.0034C45.6446 78.9807 46.5058 78.824 47.3254 78.5412C48.1266 78.2648 48.9962 78.7019 49.2677 79.5175C49.5392 80.3332 49.1098 81.2184 48.3087 81.4948C47.1978 81.8781 46.0313 82.0904 44.8394 82.1211ZM37.6128 82.125C36.7669 82.125 36.0811 81.4269 36.0811 80.5657C36.0811 79.7045 36.7669 79.0063 37.6128 79.0063H40.6762C41.5221 79.0063 42.2079 79.7045 42.2079 80.5657C42.2079 81.4269 41.5221 82.125 40.6762 82.125H37.6128ZM30.4649 82.125C29.619 82.125 28.9332 81.4269 28.9332 80.5657C28.9332 79.7045 29.619 79.0063 30.4649 79.0063H33.5283C34.3742 79.0063 35.06 79.7045 35.06 80.5657C35.06 81.4269 34.3742 82.125 33.5283 82.125H30.4649ZM23.317 82.125C22.471 82.125 21.7853 81.4269 21.7853 80.5657C21.7853 79.7045 22.471 79.0063 23.317 79.0063H26.3804C27.2263 79.0063 27.9121 79.7045 27.9121 80.5657C27.9121 81.4269 27.2263 82.125 26.3804 82.125H23.317ZM16.169 82.125C15.3231 82.125 14.6373 81.4269 14.6373 80.5657C14.6373 79.7045 15.3231 79.0063 16.169 79.0063H19.2324C20.0784 79.0063 20.7641 79.7045 20.7641 80.5657C20.7641 81.4269 20.0784 82.125 19.2324 82.125H16.169ZM8.6275 81.6655C7.81417 81.4287 7.34337 80.5655 7.57594 79.7375C7.80851 78.9095 8.65639 78.4302 9.46972 78.667C10.2402 78.8913 11.0425 79.0063 11.8616 79.0063H12.0845C12.9304 79.0063 13.6162 79.7045 13.6162 80.5657C13.6162 81.4269 12.9304 82.125 12.0845 82.125H11.8616C10.757 82.125 9.67114 81.9693 8.6275 81.6655ZM2.09257 76.8061C1.62249 76.0902 1.81154 75.1218 2.51483 74.6432C3.21812 74.1646 4.16933 74.3571 4.63942 75.0731C5.12456 75.812 5.71707 76.4736 6.3951 77.0341C7.05182 77.5769 7.15194 78.559 6.61872 79.2275C6.0855 79.8961 5.12086 79.998 4.46414 79.4552C3.54833 78.6982 2.74817 77.8047 2.09257 76.8061ZM0.118591 68.9512C0.118562 68.09 0.804303 67.3919 1.65024 67.3919C2.49617 67.3918 3.18196 68.0899 3.18199 68.9511L3.18202 70.1958C3.18354 70.7408 3.23336 71.2787 3.33002 71.8052C3.48542 72.6518 2.9373 73.4663 2.10577 73.6245C1.27423 73.7827 0.474157 73.2247 0.318757 72.3781C0.187989 71.6658 0.120684 70.9391 0.118633 70.2003L0.118591 68.9512ZM0.118591 61.6743C0.118591 60.8131 0.804356 60.1149 1.65029 60.1149C2.49622 60.1149 3.18199 60.8131 3.18199 61.6743V64.7929C3.18199 65.6541 2.49622 66.3523 1.65029 66.3523C0.804356 66.3523 0.118591 65.6541 0.118591 64.7929V61.6743ZM0.118591 54.3974C0.118591 53.5362 0.804356 52.8381 1.65029 52.8381C2.49622 52.8381 3.18199 53.5362 3.18199 54.3974V57.5161C3.18199 58.3773 2.49622 59.0754 1.65029 59.0754C0.804356 59.0754 0.118591 58.3773 0.118591 57.5161V54.3974ZM0.118591 47.1205C0.118591 46.2593 0.804356 45.5611 1.65029 45.5611C2.49622 45.5611 3.18199 46.2593 3.18199 47.1205V50.2391C3.18199 51.1003 2.49622 51.7985 1.65029 51.7985C0.804356 51.7985 0.118591 51.1003 0.118591 50.2391V47.1205ZM0.118591 39.8436C0.118591 38.9824 0.804356 38.2843 1.65029 38.2843C2.49622 38.2843 3.18199 38.9824 3.18199 39.8436V42.9623C3.18199 43.8235 2.49622 44.5216 1.65029 44.5216C0.804356 44.5216 0.118591 43.8235 0.118591 42.9623V39.8436ZM0.118591 32.5667C0.118591 31.7055 0.804356 31.0073 1.65029 31.0073C2.49622 31.0073 3.18199 31.7055 3.18199 32.5667V35.6853C3.18199 36.5465 2.49622 37.2447 1.65029 37.2447C0.804356 37.2447 0.118591 36.5465 0.118591 35.6853V32.5667ZM0.118591 25.2898C0.118591 24.4286 0.804356 23.7305 1.65029 23.7305C2.49622 23.7305 3.18199 24.4286 3.18199 25.2898V28.4085C3.18199 29.2697 2.49622 29.9678 1.65029 29.9678C0.804356 29.9678 0.118591 29.2697 0.118591 28.4085V25.2898ZM0.118591 18.0129C0.118591 17.1517 0.804356 16.4535 1.65029 16.4535C2.49622 16.4535 3.18199 17.1517 3.18199 18.0129V21.1315C3.18199 21.9927 2.49622 22.6909 1.65029 22.6909C0.804356 22.6909 0.118591 21.9927 0.118591 21.1315V18.0129ZM0.198083 10.5577C0.29603 9.70233 1.05658 9.08972 1.89683 9.18944C2.73707 9.28915 3.33882 10.0634 3.24088 10.9188C3.20173 11.2607 3.18199 11.6064 3.18199 11.9549V13.8547C3.18199 14.7159 2.49622 15.414 1.65029 15.414C0.804356 15.414 0.118591 14.7159 0.118591 13.8547V11.9549C0.118591 11.4856 0.145225 11.0194 0.198083 10.5577ZM3.88657 3.17976C4.50738 2.59476 5.47647 2.63288 6.0511 3.26489C6.62573 3.89691 6.58829 4.88349 5.96748 5.46848C5.32643 6.07254 4.77734 6.77155 4.34063 7.54079C3.91732 8.2864 2.98043 8.5415 2.24803 8.11055C1.51562 7.6796 1.26505 6.72581 1.68836 5.98019C2.27891 4.94 3.02072 3.99566 3.88657 3.17976ZM11.3829 0.00979562C12.2282 -0.0247821 12.9409 0.644762 12.9749 1.50527C13.0089 2.36577 12.3512 3.09137 11.5059 3.12595C10.6246 3.162 9.7659 3.33201 8.95015 3.62763C8.1532 3.91644 7.27717 3.49285 6.99349 2.68153C6.7098 1.8702 7.12588 0.978365 7.92283 0.689559C9.02851 0.28887 10.192 0.058513 11.3829 0.00979562ZM18.5637 0C19.4096 0 20.0954 0.698138 20.0954 1.55934C20.0954 2.42053 19.4096 3.11867 18.5637 3.11867H15.5003C14.6544 3.11867 13.9686 2.42053 13.9686 1.55934C13.9686 0.698138 14.6544 0 15.5003 0H18.5637ZM25.7116 0C26.5576 0 27.2433 0.698138 27.2433 1.55934C27.2433 2.42053 26.5576 3.11867 25.7116 3.11867H22.6482C21.8023 3.11867 21.1165 2.42053 21.1165 1.55934C21.1165 0.698138 21.8023 0 22.6482 0H25.7116ZM32.8595 0C33.7055 0 34.3912 0.698138 34.3912 1.55934C34.3912 2.42053 33.7055 3.11867 32.8595 3.11867H29.7961C28.9502 3.11867 28.2644 2.42053 28.2644 1.55934C28.2644 0.698138 28.9502 0 29.7961 0H32.8595ZM40.0075 0C40.8534 0 41.5392 0.698138 41.5392 1.55934C41.5392 2.42053 40.8534 3.11867 40.0075 3.11867H36.9441C36.0981 3.11867 35.4124 2.42053 35.4124 1.55934C35.4124 0.698138 36.0981 0 36.9441 0H40.0075Z" fill="#E9ECEE" fill-opacity="0.8"/>
<path fill-rule="evenodd" clip-rule="evenodd" d="M0.118591 10.8173C0.118591 4.84307 4.96167 0 10.9359 0H30.3598L56.2808 25.9342V71.3077C56.2808 77.2819 51.4378 82.125 45.4635 82.125H10.9359C4.96167 82.125 0.118591 77.2819 0.118591 71.3077V10.8173Z" fill="#9C333A"/>
<path fill-rule="evenodd" clip-rule="evenodd" d="M43.3801 21.6746C41.4392 21.5875 39.482 21.6238 37.5711 21.9747H37.5783C35.7454 22.2894 33.9523 22.8589 32.3205 23.7584C28.9872 25.6246 26.565 28.9154 25.4844 32.5453C24.7719 34.8177 24.6114 37.2189 24.6432 39.5874C26.3647 39.9248 28.1269 40.0191 29.8783 40.0028C32.1175 39.9493 34.3665 39.6464 36.4905 38.9146C37.9437 38.4286 39.3079 37.7085 40.5291 36.7827C41.9495 35.6796 43.1508 34.3202 44.0709 32.7747C45.97 29.5701 46.7206 25.7679 46.5321 22.07C45.4977 21.8324 44.4362 21.7508 43.3801 21.6746ZM29.6873 42.2779C28.0011 42.2779 26.3069 42.3785 24.647 42.6868C24.5754 45.6375 24.9108 48.649 26.0802 51.3839C27.4065 54.5133 29.7562 57.2799 32.8383 58.7752C35.6205 60.1336 38.7588 60.6242 41.8338 60.5734C43.356 60.588 44.8762 60.4599 46.3745 60.1907C46.5528 60.1928 46.5489 60.0317 46.5454 59.8877C46.5443 59.8406 46.5432 59.7953 46.5486 59.7582C46.661 56.2189 45.914 52.5981 44.101 49.5331C42.5019 46.8372 39.9971 44.6718 37.0519 43.5782C34.7103 42.6678 32.1866 42.3314 29.6873 42.2779ZM21.9392 21.875H9.83899C9.83899 34.5768 9.83959 47.2782 9.8408 59.9794H21.9392V21.875Z" fill="white"/>
<path fill-rule="evenodd" clip-rule="evenodd" d="M30.3598 0L56.2808 25.9615H41.1771C35.2029 25.9615 30.3598 21.1185 30.3598 15.1442V0Z" fill="#7A2F34"/>
<path fill-rule="evenodd" clip-rule="evenodd" d="M109.8 0.535166C110.608 0.790343 111.059 1.66399 110.809 2.48652C110.558 3.30904 109.7 3.76897 108.892 3.51379C108.066 3.2529 107.201 3.11867 106.316 3.11867C105.47 3.11867 104.785 2.42053 104.785 1.55934C104.785 0.698138 105.47 0 106.316 0C107.51 0 108.681 0.181704 109.8 0.535166ZM116.227 5.54055C116.682 6.26694 116.472 7.23082 115.758 7.69344C115.045 8.15606 114.098 7.94223 113.644 7.21584C113.175 6.46626 112.597 5.79157 111.931 5.21599C111.286 4.65856 111.207 3.67451 111.755 3.01806C112.302 2.36161 113.269 2.28133 113.914 2.83876C114.813 3.61616 115.594 4.5274 116.227 5.54055ZM118.059 13.4007C118.059 14.2619 117.374 14.9601 116.528 14.9601C115.682 14.9601 114.996 14.262 114.996 13.4008L114.996 11.9317C114.995 11.4523 114.956 10.9784 114.881 10.5128C114.744 9.66293 115.31 8.86106 116.145 8.72174C116.98 8.58243 117.767 9.15844 117.904 10.0083C118.006 10.6379 118.058 11.2778 118.059 11.9277L118.059 13.4007ZM118.059 20.6777C118.059 21.5389 117.374 22.237 116.528 22.237C115.682 22.237 114.996 21.5389 114.996 20.6777V17.559C114.996 16.6978 115.682 15.9997 116.528 15.9997C117.374 15.9997 118.059 16.6978 118.059 17.559V20.6777ZM118.059 27.9546C118.059 28.8158 117.374 29.5139 116.528 29.5139C115.682 29.5139 114.996 28.8158 114.996 27.9546V24.8359C114.996 23.9747 115.682 23.2766 116.528 23.2766C117.374 23.2766 118.059 23.9747 118.059 24.8359V27.9546ZM118.059 35.2315C118.059 36.0927 117.374 36.7908 116.528 36.7908C115.682 36.7908 114.996 36.0927 114.996 35.2315V32.1128C114.996 31.2516 115.682 30.5535 116.528 30.5535C117.374 30.5535 118.059 31.2516 118.059 32.1128V35.2315ZM118.059 42.5084C118.059 43.3696 117.374 44.0677 116.528 44.0677C115.682 44.0677 114.996 43.3696 114.996 42.5084V39.3897C114.996 38.5285 115.682 37.8304 116.528 37.8304C117.374 37.8304 118.059 38.5285 118.059 39.3897V42.5084ZM118.059 49.7853C118.059 50.6465 117.374 51.3446 116.528 51.3446C115.682 51.3446 114.996 50.6465 114.996 49.7853V46.6666C114.996 45.8054 115.682 45.1073 116.528 45.1073C117.374 45.1073 118.059 45.8054 118.059 46.6666V49.7853ZM118.059 57.0622C118.059 57.9234 117.374 58.6215 116.528 58.6215C115.682 58.6215 114.996 57.9234 114.996 57.0622V53.9435C114.996 53.0823 115.682 52.3842 116.528 52.3842C117.374 52.3842 118.059 53.0823 118.059 53.9435V57.0622ZM118.059 64.3391C118.059 65.2003 117.374 65.8984 116.528 65.8984C115.682 65.8984 114.996 65.2003 114.996 64.3391V61.2204C114.996 60.3592 115.682 59.661 116.528 59.661C117.374 59.661 118.059 60.3592 118.059 61.2204V64.3391ZM117.947 71.8267C117.831 72.6797 117.058 73.2752 116.22 73.1568C115.382 73.0385 114.797 72.251 114.913 71.3979C114.968 70.9939 114.996 70.584 114.996 70.1701V68.4973C114.996 67.6361 115.682 66.938 116.528 66.938C117.374 66.938 118.059 67.6361 118.059 68.4973V70.1701C118.059 70.7275 118.022 71.2806 117.947 71.8267ZM114.094 79.1266C113.461 79.6973 112.493 79.637 111.932 78.9919C111.372 78.3469 111.431 77.3615 112.065 76.7908C112.719 76.2016 113.283 75.5152 113.737 74.7562C114.177 74.0205 115.119 73.7871 115.842 74.2348C116.564 74.6825 116.794 75.6418 116.354 76.3775C115.741 77.4037 114.978 78.3308 114.094 79.1266ZM106.618 82.1211C105.772 82.1429 105.069 81.4626 105.048 80.6017C105.027 79.7407 105.695 79.0252 106.541 79.0034C107.423 78.9807 108.284 78.824 109.104 78.5412C109.905 78.2648 110.775 78.7019 111.046 79.5175C111.318 80.3332 110.888 81.2184 110.087 81.4948C108.976 81.8781 107.81 82.0904 106.618 82.1211ZM99.3913 82.125C98.5454 82.125 97.8596 81.4269 97.8596 80.5657C97.8596 79.7045 98.5454 79.0063 99.3913 79.0063H102.455C103.301 79.0063 103.986 79.7045 103.986 80.5657C103.986 81.4269 103.301 82.125 102.455 82.125H99.3913ZM92.2434 82.125C91.3975 82.125 90.7117 81.4269 90.7117 80.5657C90.7117 79.7045 91.3975 79.0063 92.2434 79.0063H95.3068C96.1527 79.0063 96.8385 79.7045 96.8385 80.5657C96.8385 81.4269 96.1527 82.125 95.3068 82.125H92.2434ZM85.0955 82.125C84.2495 82.125 83.5638 81.4269 83.5638 80.5657C83.5638 79.7045 84.2495 79.0063 85.0955 79.0063H88.1589C89.0048 79.0063 89.6906 79.7045 89.6906 80.5657C89.6906 81.4269 89.0048 82.125 88.1589 82.125H85.0955ZM77.9475 82.125C77.1016 82.125 76.4158 81.4269 76.4158 80.5657C76.4158 79.7045 77.1016 79.0063 77.9475 79.0063H81.0109C81.8569 79.0063 82.5426 79.7045 82.5426 80.5657C82.5426 81.4269 81.8569 82.125 81.0109 82.125H77.9475ZM70.406 81.6655C69.5927 81.4287 69.1219 80.5655 69.3544 79.7375C69.587 78.9095 70.4349 78.4302 71.2482 78.667C72.0187 78.8913 72.821 79.0063 73.6401 79.0063H73.863C74.7089 79.0063 75.3947 79.7045 75.3947 80.5657C75.3947 81.4269 74.7089 82.125 73.863 82.125H73.6401C72.5355 82.125 71.4496 81.9693 70.406 81.6655ZM63.8711 76.8061C63.401 76.0902 63.59 75.1218 64.2933 74.6432C64.9966 74.1646 65.9478 74.3571 66.4179 75.0731C66.9031 75.812 67.4956 76.4736 68.1736 77.0341C68.8303 77.5769 68.9304 78.559 68.3972 79.2275C67.864 79.8961 66.8994 79.998 66.2426 79.4552C65.3268 78.6982 64.5267 77.8047 63.8711 76.8061ZM61.8971 68.9512C61.8971 68.09 62.5828 67.3919 63.4287 67.3919C64.2747 67.3918 64.9605 68.0899 64.9605 68.9511L64.9605 70.1958C64.962 70.7408 65.0119 71.2787 65.1085 71.8052C65.2639 72.6518 64.7158 73.4663 63.8843 73.6245C63.0527 73.7827 62.2527 73.2247 62.0973 72.3781C61.9665 71.6658 61.8992 70.9391 61.8971 70.2003L61.8971 68.9512ZM61.8971 61.6743C61.8971 60.8131 62.5829 60.1149 63.4288 60.1149C64.2747 60.1149 64.9605 60.8131 64.9605 61.6743V64.7929C64.9605 65.6541 64.2747 66.3523 63.4288 66.3523C62.5829 66.3523 61.8971 65.6541 61.8971 64.7929V61.6743ZM61.8971 54.3974C61.8971 53.5362 62.5829 52.8381 63.4288 52.8381C64.2747 52.8381 64.9605 53.5362 64.9605 54.3974V57.5161C64.9605 58.3773 64.2747 59.0754 63.4288 59.0754C62.5829 59.0754 61.8971 58.3773 61.8971 57.5161V54.3974ZM61.8971 47.1205C61.8971 46.2593 62.5829 45.5611 63.4288 45.5611C64.2747 45.5611 64.9605 46.2593 64.9605 47.1205V50.2391C64.9605 51.1003 64.2747 51.7985 63.4288 51.7985C62.5829 51.7985 61.8971 51.1003 61.8971 50.2391V47.1205ZM61.8971 39.8436C61.8971 38.9824 62.5829 38.2843 63.4288 38.2843C64.2747 38.2843 64.9605 38.9824 64.9605 39.8436V42.9623C64.9605 43.8235 64.2747 44.5216 63.4288 44.5216C62.5829 44.5216 61.8971 43.8235 61.8971 42.9623V39.8436ZM61.8971 32.5667C61.8971 31.7055 62.5829 31.0073 63.4288 31.0073C64.2747 31.0073 64.9605 31.7055 64.9605 32.5667V35.6853C64.9605 36.5465 64.2747 37.2447 63.4288 37.2447C62.5829 37.2447 61.8971 36.5465 61.8971 35.6853V32.5667ZM61.8971 25.2898C61.8971 24.4286 62.5829 23.7305 63.4288 23.7305C64.2747 23.7305 64.9605 24.4286 64.9605 25.2898V28.4085C64.9605 29.2697 64.2747 29.9678 63.4288 29.9678C62.5829 29.9678 61.8971 29.2697 61.8971 28.4085V25.2898ZM61.8971 18.0129C61.8971 17.1517 62.5829 16.4535 63.4288 16.4535C64.2747 16.4535 64.9605 17.1517 64.9605 18.0129V21.1315C64.9605 21.9927 64.2747 22.6909 63.4288 22.6909C62.5829 22.6909 61.8971 21.9927 61.8971 21.1315V18.0129ZM61.9766 10.5577C62.0745 9.70233 62.8351 9.08972 63.6753 9.18944C64.5156 9.28915 65.1173 10.0634 65.0194 10.9188C64.9802 11.2607 64.9605 11.6064 64.9605 11.9549V13.8547C64.9605 14.7159 64.2747 15.414 63.4288 15.414C62.5829 15.414 61.8971 14.7159 61.8971 13.8547V11.9549C61.8971 11.4856 61.9237 11.0194 61.9766 10.5577ZM65.6651 3.17976C66.2859 2.59476 67.255 2.63288 67.8296 3.26489C68.4042 3.89691 68.3668 4.88349 67.746 5.46848C67.1049 6.07254 66.5558 6.77155 66.1191 7.54079C65.6958 8.2864 64.7589 8.5415 64.0265 8.11055C63.2941 7.6796 63.0436 6.72581 63.4669 5.98019C64.0574 4.94 64.7992 3.99566 65.6651 3.17976ZM73.1614 0.00979562C74.0067 -0.0247821 74.7194 0.644762 74.7534 1.50527C74.7874 2.36577 74.1297 3.09137 73.2844 3.12595C72.4031 3.162 71.5444 3.33201 70.7286 3.62763C69.9317 3.91644 69.0557 3.49285 68.772 2.68153C68.4883 1.8702 68.9044 0.978365 69.7013 0.689559C70.807 0.28887 71.9705 0.058513 73.1614 0.00979562ZM80.3422 0C81.1881 0 81.8739 0.698138 81.8739 1.55934C81.8739 2.42053 81.1881 3.11867 80.3422 3.11867H77.2788C76.4329 3.11867 75.7471 2.42053 75.7471 1.55934C75.7471 0.698138 76.4329 0 77.2788 0H80.3422ZM87.4901 0C88.3361 0 89.0218 0.698138 89.0218 1.55934C89.0218 2.42053 88.3361 3.11867 87.4901 3.11867H84.4267C83.5808 3.11867 82.895 2.42053 82.895 1.55934C82.895 0.698138 83.5808 0 84.4267 0H87.4901ZM94.638 0C95.484 0 96.1697 0.698138 96.1697 1.55934C96.1697 2.42053 95.484 3.11867 94.638 3.11867H91.5746C90.7287 3.11867 90.0429 2.42053 90.0429 1.55934C90.0429 0.698138 90.7287 0 91.5746 0H94.638ZM101.786 0C102.632 0 103.318 0.698138 103.318 1.55934C103.318 2.42053 102.632 3.11867 101.786 3.11867H98.7226C97.8766 3.11867 97.1909 2.42053 97.1909 1.55934C97.1909 0.698138 97.8766 0 98.7226 0H101.786Z" fill="#E9ECEE"/>
<path fill-rule="evenodd" clip-rule="evenodd" d="M105.159 21.6746C103.218 21.5875 101.261 21.6238 99.3496 21.9747H99.3569C97.5239 22.2894 95.7308 22.8589 94.099 23.7584C90.7657 25.6246 88.3435 28.9154 87.2629 32.5453C86.5504 34.8177 86.39 37.2189 86.4217 39.5874C88.1432 39.9248 89.9055 40.0191 91.6569 40.0028C93.896 39.9493 96.1451 39.6464 98.269 38.9146C99.7223 38.4286 101.086 37.7085 102.308 36.7827C103.728 35.6796 104.929 34.3202 105.849 32.7747C107.749 29.5701 108.499 25.7679 108.311 22.07C107.276 21.8324 106.215 21.7508 105.159 21.6746ZM91.4658 42.2779C89.7797 42.2779 88.0854 42.3785 86.4255 42.6868C86.3539 45.6375 86.6893 48.649 87.8587 51.3839C89.185 54.5133 91.5347 57.2799 94.6169 58.7752C97.399 60.1336 100.537 60.6242 103.612 60.5734C105.134 60.588 106.655 60.4599 108.153 60.1907C108.331 60.1928 108.327 60.0317 108.324 59.8877C108.323 59.8406 108.322 59.7953 108.327 59.7582C108.44 56.2189 107.693 52.5981 105.879 49.5331C104.28 46.8372 101.776 44.6718 98.8304 43.5782C96.4888 42.6678 93.9651 42.3314 91.4658 42.2779ZM83.7178 21.875H71.6175C71.6175 34.5768 71.6181 47.2782 71.6193 59.9794H83.7178V21.875Z" fill="#E9ECEE"/>
<path fill-rule="evenodd" clip-rule="evenodd" d="M171.578 0.535166C172.386 0.790343 172.838 1.66399 172.587 2.48652C172.337 3.30904 171.478 3.76897 170.67 3.51379C169.844 3.2529 168.979 3.11867 168.095 3.11867C167.249 3.11867 166.563 2.42053 166.563 1.55934C166.563 0.698138 167.249 0 168.095 0C169.288 0 170.459 0.181704 171.578 0.535166ZM178.006 5.54055C178.46 6.26694 178.25 7.23082 177.537 7.69344C176.823 8.15606 175.876 7.94223 175.422 7.21584C174.953 6.46626 174.375 5.79157 173.709 5.21599C173.064 4.65856 172.986 3.67451 173.533 3.01806C174.081 2.36161 175.047 2.28133 175.692 2.83876C176.591 3.61616 177.372 4.5274 178.006 5.54055ZM179.838 13.4007C179.838 14.2619 179.152 14.9601 178.306 14.9601C177.46 14.9601 176.774 14.262 176.774 13.4008L176.774 11.9317C176.773 11.4523 176.735 10.9784 176.66 10.5128C176.523 9.66293 177.089 8.86106 177.923 8.72174C178.758 8.58243 179.546 9.15844 179.683 10.0083C179.784 10.6379 179.836 11.2778 179.838 11.9277L179.838 13.4007ZM179.838 20.6777C179.838 21.5389 179.152 22.237 178.306 22.237C177.46 22.237 176.774 21.5389 176.774 20.6777V17.559C176.774 16.6978 177.46 15.9997 178.306 15.9997C179.152 15.9997 179.838 16.6978 179.838 17.559V20.6777ZM179.838 27.9546C179.838 28.8158 179.152 29.5139 178.306 29.5139C177.46 29.5139 176.774 28.8158 176.774 27.9546V24.8359C176.774 23.9747 177.46 23.2766 178.306 23.2766C179.152 23.2766 179.838 23.9747 179.838 24.8359V27.9546ZM179.838 35.2315C179.838 36.0927 179.152 36.7908 178.306 36.7908C177.46 36.7908 176.774 36.0927 176.774 35.2315V32.1128C176.774 31.2516 177.46 30.5535 178.306 30.5535C179.152 30.5535 179.838 31.2516 179.838 32.1128V35.2315ZM179.838 42.5084C179.838 43.3696 179.152 44.0677 178.306 44.0677C177.46 44.0677 176.774 43.3696 176.774 42.5084V39.3897C176.774 38.5285 177.46 37.8304 178.306 37.8304C179.152 37.8304 179.838 38.5285 179.838 39.3897V42.5084ZM179.838 49.7853C179.838 50.6465 179.152 51.3446 178.306 51.3446C177.46 51.3446 176.774 50.6465 176.774 49.7853V46.6666C176.774 45.8054 177.46 45.1073 178.306 45.1073C179.152 45.1073 179.838 45.8054 179.838 46.6666V49.7853ZM179.838 57.0622C179.838 57.9234 179.152 58.6215 178.306 58.6215C177.46 58.6215 176.774 57.9234 176.774 57.0622V53.9435C176.774 53.0823 177.46 52.3842 178.306 52.3842C179.152 52.3842 179.838 53.0823 179.838 53.9435V57.0622ZM179.838 64.3391C179.838 65.2003 179.152 65.8984 178.306 65.8984C177.46 65.8984 176.774 65.2003 176.774 64.3391V61.2204C176.774 60.3592 177.46 59.661 178.306 59.661C179.152 59.661 179.838 60.3592 179.838 61.2204V64.3391ZM179.726 71.8267C179.61 72.6797 178.836 73.2752 177.998 73.1568C177.16 73.0385 176.575 72.251 176.691 71.3979C176.747 70.9939 176.774 70.584 176.774 70.1701V68.4973C176.774 67.6361 177.46 66.938 178.306 66.938C179.152 66.938 179.838 67.6361 179.838 68.4973V70.1701C179.838 70.7275 179.8 71.2806 179.726 71.8267ZM175.873 79.1266C175.239 79.6973 174.271 79.637 173.711 78.9919C173.15 78.3469 173.21 77.3615 173.843 76.7908C174.497 76.2016 175.062 75.5152 175.516 74.7562C175.955 74.0205 176.898 73.7871 177.62 74.2348C178.343 74.6825 178.572 75.6418 178.132 76.3775C177.519 77.4037 176.757 78.3308 175.873 79.1266ZM168.396 82.1211C167.551 82.1429 166.848 81.4626 166.826 80.6017C166.805 79.7407 167.473 79.0252 168.319 79.0034C169.202 78.9807 170.063 78.824 170.882 78.5412C171.684 78.2648 172.553 78.7019 172.825 79.5175C173.096 80.3332 172.667 81.2184 171.866 81.4948C170.755 81.8781 169.588 82.0904 168.396 82.1211ZM161.17 82.125C160.324 82.125 159.638 81.4269 159.638 80.5657C159.638 79.7045 160.324 79.0063 161.17 79.0063H164.233C165.079 79.0063 165.765 79.7045 165.765 80.5657C165.765 81.4269 165.079 82.125 164.233 82.125H161.17ZM154.022 82.125C153.176 82.125 152.49 81.4269 152.49 80.5657C152.49 79.7045 153.176 79.0063 154.022 79.0063H157.085C157.931 79.0063 158.617 79.7045 158.617 80.5657C158.617 81.4269 157.931 82.125 157.085 82.125H154.022ZM146.874 82.125C146.028 82.125 145.342 81.4269 145.342 80.5657C145.342 79.7045 146.028 79.0063 146.874 79.0063H149.937C150.783 79.0063 151.469 79.7045 151.469 80.5657C151.469 81.4269 150.783 82.125 149.937 82.125H146.874ZM139.726 82.125C138.88 82.125 138.194 81.4269 138.194 80.5657C138.194 79.7045 138.88 79.0063 139.726 79.0063H142.789C143.635 79.0063 144.321 79.7045 144.321 80.5657C144.321 81.4269 143.635 82.125 142.789 82.125H139.726ZM132.184 81.6655C131.371 81.4287 130.9 80.5655 131.133 79.7375C131.365 78.9095 132.213 78.4302 133.027 78.667C133.797 78.8913 134.599 79.0063 135.419 79.0063H135.641C136.487 79.0063 137.173 79.7045 137.173 80.5657C137.173 81.4269 136.487 82.125 135.641 82.125H135.419C134.314 82.125 133.228 81.9693 132.184 81.6655ZM125.65 76.8061C125.179 76.0902 125.368 75.1218 126.072 74.6432C126.775 74.1646 127.726 74.3571 128.196 75.0731C128.682 75.812 129.274 76.4736 129.952 77.0341C130.609 77.5769 130.709 78.559 130.176 79.2275C129.642 79.8961 128.678 79.998 128.021 79.4552C127.105 78.6982 126.305 77.8047 125.65 76.8061ZM123.676 68.9512C123.676 68.09 124.361 67.3919 125.207 67.3919C126.053 67.3918 126.739 68.0899 126.739 68.9511L126.739 70.1958C126.74 70.7408 126.79 71.2787 126.887 71.8052C127.042 72.6518 126.494 73.4663 125.663 73.6245C124.831 73.7827 124.031 73.2247 123.876 72.3781C123.745 71.6658 123.678 70.9391 123.676 70.2003L123.676 68.9512ZM123.676 61.6743C123.676 60.8131 124.361 60.1149 125.207 60.1149C126.053 60.1149 126.739 60.8131 126.739 61.6743V64.7929C126.739 65.6541 126.053 66.3523 125.207 66.3523C124.361 66.3523 123.676 65.6541 123.676 64.7929V61.6743ZM123.676 54.3974C123.676 53.5362 124.361 52.8381 125.207 52.8381C126.053 52.8381 126.739 53.5362 126.739 54.3974V57.5161C126.739 58.3773 126.053 59.0754 125.207 59.0754C124.361 59.0754 123.676 58.3773 123.676 57.5161V54.3974ZM123.676 47.1205C123.676 46.2593 124.361 45.5611 125.207 45.5611C126.053 45.5611 126.739 46.2593 126.739 47.1205V50.2391C126.739 51.1003 126.053 51.7985 125.207 51.7985C124.361 51.7985 123.676 51.1003 123.676 50.2391V47.1205ZM123.676 39.8436C123.676 38.9824 124.361 38.2843 125.207 38.2843C126.053 38.2843 126.739 38.9824 126.739 39.8436V42.9623C126.739 43.8235 126.053 44.5216 125.207 44.5216C124.361 44.5216 123.676 43.8235 123.676 42.9623V39.8436ZM123.676 32.5667C123.676 31.7055 124.361 31.0073 125.207 31.0073C126.053 31.0073 126.739 31.7055 126.739 32.5667V35.6853C126.739 36.5465 126.053 37.2447 125.207 37.2447C124.361 37.2447 123.676 36.5465 123.676 35.6853V32.5667ZM123.676 25.2898C123.676 24.4286 124.361 23.7305 125.207 23.7305C126.053 23.7305 126.739 24.4286 126.739 25.2898V28.4085C126.739 29.2697 126.053 29.9678 125.207 29.9678C124.361 29.9678 123.676 29.2697 123.676 28.4085V25.2898ZM123.676 18.0129C123.676 17.1517 124.361 16.4535 125.207 16.4535C126.053 16.4535 126.739 17.1517 126.739 18.0129V21.1315C126.739 21.9927 126.053 22.6909 125.207 22.6909C124.361 22.6909 123.676 21.9927 123.676 21.1315V18.0129ZM123.755 10.5577C123.853 9.70233 124.614 9.08972 125.454 9.18944C126.294 9.28915 126.896 10.0634 126.798 10.9188C126.759 11.2607 126.739 11.6064 126.739 11.9549V13.8547C126.739 14.7159 126.053 15.414 125.207 15.414C124.361 15.414 123.676 14.7159 123.676 13.8547V11.9549C123.676 11.4856 123.702 11.0194 123.755 10.5577ZM127.444 3.17976C128.064 2.59476 129.033 2.63288 129.608 3.26489C130.183 3.89691 130.145 4.88349 129.524 5.46848C128.883 6.07254 128.334 6.77155 127.898 7.54079C127.474 8.2864 126.537 8.5415 125.805 8.11055C125.073 7.6796 124.822 6.72581 125.245 5.98019C125.836 4.94 126.578 3.99566 127.444 3.17976ZM134.94 0.00979562C135.785 -0.0247821 136.498 0.644762 136.532 1.50527C136.566 2.36577 135.908 3.09137 135.063 3.12595C134.182 3.162 133.323 3.33201 132.507 3.62763C131.71 3.91644 130.834 3.49285 130.55 2.68153C130.267 1.8702 130.683 0.978365 131.48 0.689559C132.585 0.28887 133.749 0.058513 134.94 0.00979562ZM142.121 0C142.967 0 143.652 0.698138 143.652 1.55934C143.652 2.42053 142.967 3.11867 142.121 3.11867H139.057C138.211 3.11867 137.526 2.42053 137.526 1.55934C137.526 0.698138 138.211 0 139.057 0H142.121ZM149.269 0C150.115 0 150.8 0.698138 150.8 1.55934C150.8 2.42053 150.115 3.11867 149.269 3.11867H146.205C145.359 3.11867 144.673 2.42053 144.673 1.55934C144.673 0.698138 145.359 0 146.205 0H149.269ZM156.416 0C157.262 0 157.948 0.698138 157.948 1.55934C157.948 2.42053 157.262 3.11867 156.416 3.11867H153.353C152.507 3.11867 151.821 2.42053 151.821 1.55934C151.821 0.698138 152.507 0 153.353 0H156.416ZM163.564 0C164.41 0 165.096 0.698138 165.096 1.55934C165.096 2.42053 164.41 3.11867 163.564 3.11867H160.501C159.655 3.11867 158.969 2.42053 158.969 1.55934C158.969 0.698138 159.655 0 160.501 0H163.564Z" fill="#E9ECEE"/>
<path fill-rule="evenodd" clip-rule="evenodd" d="M166.937 21.6746C164.996 21.5875 163.039 21.6238 161.128 21.9747H161.135C159.302 22.2894 157.509 22.8589 155.877 23.7584C152.544 25.6246 150.122 28.9154 149.041 32.5453C148.329 34.8177 148.168 37.2189 148.2 39.5874C149.922 39.9248 151.684 40.0191 153.435 40.0028C155.674 39.9493 157.923 39.6464 160.047 38.9146C161.501 38.4286 162.865 37.7085 164.086 36.7827C165.506 35.6796 166.708 34.3202 167.628 32.7747C169.527 29.5701 170.278 25.7679 170.089 22.07C169.055 21.8324 167.993 21.7508 166.937 21.6746ZM153.244 42.2779C151.558 42.2779 149.864 42.3785 148.204 42.6868C148.132 45.6375 148.468 48.649 149.637 51.3839C150.963 54.5133 153.313 57.2799 156.395 58.7752C159.177 60.1336 162.316 60.6242 165.391 60.5734C166.913 60.588 168.433 60.4599 169.932 60.1907C170.11 60.1928 170.106 60.0317 170.102 59.8877C170.101 59.8406 170.1 59.7953 170.106 59.7582C170.218 56.2189 169.471 52.5981 167.658 49.5331C166.059 46.8372 163.554 44.6718 160.609 43.5782C158.267 42.6678 155.744 42.3314 153.244 42.2779ZM145.496 21.875H133.396C133.396 34.5768 133.397 47.2782 133.398 59.9794H145.496V21.875Z" fill="#E9ECEE"/>
<path fill-rule="evenodd" clip-rule="evenodd" d="M48.0212 98.4102C48.8291 98.6653 49.2809 99.539 49.0303 100.362C48.7796 101.184 47.9214 101.644 47.1135 101.389C46.2875 101.128 45.4224 100.994 44.5378 100.994C43.6919 100.994 43.0061 100.296 43.0061 99.4343C43.0061 98.5731 43.6919 97.875 44.5378 97.875C45.731 97.875 46.9021 98.0567 48.0212 98.4102ZM54.4489 103.415C54.9033 104.142 54.6933 105.106 53.9798 105.568C53.2663 106.031 52.3195 105.817 51.8651 105.091C51.3961 104.341 50.8181 103.667 50.1523 103.091C49.5074 102.533 49.4286 101.549 49.9761 100.893C50.5237 100.237 51.4903 100.156 52.1351 100.714C53.0344 101.491 53.8151 102.402 54.4489 103.415ZM56.2808 111.276C56.2809 112.137 55.5951 112.835 54.7492 112.835C53.9033 112.835 53.2175 112.137 53.2175 111.276L53.2174 109.807C53.2162 109.327 53.1776 108.853 53.1027 108.388C52.9658 107.538 53.5316 106.736 54.3664 106.597C55.2012 106.457 55.9889 107.034 56.1257 107.883C56.2271 108.513 56.2792 109.153 56.2808 109.803L56.2808 111.276ZM56.2809 118.553C56.2809 119.414 55.5951 120.112 54.7492 120.112C53.9032 120.112 53.2175 119.414 53.2175 118.553V115.434C53.2175 114.573 53.9032 113.875 54.7492 113.875C55.5951 113.875 56.2809 114.573 56.2809 115.434V118.553ZM56.2809 125.83C56.2809 126.691 55.5951 127.389 54.7492 127.389C53.9032 127.389 53.2175 126.691 53.2175 125.83V122.711C53.2175 121.85 53.9032 121.152 54.7492 121.152C55.5951 121.152 56.2809 121.85 56.2809 122.711V125.83ZM56.2809 133.107C56.2809 133.968 55.5951 134.666 54.7492 134.666C53.9032 134.666 53.2175 133.968 53.2175 133.107V129.988C53.2175 129.127 53.9032 128.429 54.7492 128.429C55.5951 128.429 56.2809 129.127 56.2809 129.988V133.107ZM56.2809 140.383C56.2809 141.245 55.5951 141.943 54.7492 141.943C53.9032 141.943 53.2175 141.245 53.2175 140.383V137.265C53.2175 136.403 53.9032 135.705 54.7492 135.705C55.5951 135.705 56.2809 136.403 56.2809 137.265V140.383ZM56.2809 147.66C56.2809 148.521 55.5951 149.22 54.7492 149.22C53.9032 149.22 53.2175 148.521 53.2175 147.66V144.542C53.2175 143.68 53.9032 142.982 54.7492 142.982C55.5951 142.982 56.2809 143.68 56.2809 144.542V147.66ZM56.2809 154.937C56.2809 155.798 55.5951 156.497 54.7492 156.497C53.9032 156.497 53.2175 155.798 53.2175 154.937V151.819C53.2175 150.957 53.9032 150.259 54.7492 150.259C55.5951 150.259 56.2809 150.957 56.2809 151.819V154.937ZM56.2809 162.214C56.2809 163.075 55.5951 163.773 54.7492 163.773C53.9032 163.773 53.2175 163.075 53.2175 162.214V159.095C53.2175 158.234 53.9032 157.536 54.7492 157.536C55.5951 157.536 56.2809 158.234 56.2809 159.095V162.214ZM56.1688 169.702C56.0525 170.555 55.279 171.15 54.4411 171.032C53.6032 170.913 53.0182 170.126 53.1345 169.273C53.1896 168.869 53.2175 168.459 53.2175 168.045V166.372C53.2175 165.511 53.9032 164.813 54.7492 164.813C55.5951 164.813 56.2809 165.511 56.2809 166.372V168.045C56.2809 168.602 56.2433 169.156 56.1688 169.702ZM52.316 177.002C51.6824 177.572 50.7144 177.512 50.1539 176.867C49.5934 176.222 49.6526 175.237 50.2862 174.666C50.9404 174.077 51.5049 173.39 51.9586 172.631C52.3984 171.896 53.3407 171.662 54.0634 172.11C54.786 172.558 55.0153 173.517 54.5755 174.253C53.9621 175.279 53.1996 176.206 52.316 177.002ZM44.8394 179.996C43.9938 180.018 43.2909 179.338 43.2695 178.477C43.2481 177.616 43.9164 176.9 44.762 176.878C45.6446 176.856 46.5058 176.699 47.3254 176.416C48.1266 176.14 48.9962 176.577 49.2677 177.393C49.5392 178.208 49.1098 179.093 48.3087 179.37C47.1978 179.753 46.0313 179.965 44.8394 179.996ZM37.6128 180C36.7669 180 36.0811 179.302 36.0811 178.441C36.0811 177.58 36.7669 176.881 37.6128 176.881H40.6762C41.5221 176.881 42.2079 177.58 42.2079 178.441C42.2079 179.302 41.5221 180 40.6762 180H37.6128ZM30.4649 180C29.619 180 28.9332 179.302 28.9332 178.441C28.9332 177.58 29.619 176.881 30.4649 176.881H33.5283C34.3742 176.881 35.06 177.58 35.06 178.441C35.06 179.302 34.3742 180 33.5283 180H30.4649ZM23.317 180C22.471 180 21.7853 179.302 21.7853 178.441C21.7853 177.58 22.471 176.881 23.317 176.881H26.3804C27.2263 176.881 27.9121 177.58 27.9121 178.441C27.9121 179.302 27.2263 180 26.3804 180H23.317ZM16.169 180C15.3231 180 14.6373 179.302 14.6373 178.441C14.6373 177.58 15.3231 176.881 16.169 176.881H19.2324C20.0784 176.881 20.7641 177.58 20.7641 178.441C20.7641 179.302 20.0784 180 19.2324 180H16.169ZM8.6275 179.54C7.81417 179.304 7.34337 178.441 7.57594 177.613C7.80851 176.785 8.65639 176.305 9.46972 176.542C10.2402 176.766 11.0425 176.881 11.8616 176.881H12.0845C12.9304 176.881 13.6162 177.579 13.6162 178.441C13.6162 179.302 12.9304 180 12.0845 180H11.8616C10.757 180 9.67114 179.844 8.6275 179.54ZM2.09257 174.681C1.62249 173.965 1.81154 172.997 2.51483 172.518C3.21812 172.04 4.16933 172.232 4.63942 172.948C5.12456 173.687 5.71707 174.349 6.3951 174.909C7.05182 175.452 7.15194 176.434 6.61872 177.103C6.0855 177.771 5.12086 177.873 4.46414 177.33C3.54833 176.573 2.74817 175.68 2.09257 174.681ZM0.118591 166.826C0.118562 165.965 0.804303 165.267 1.65024 165.267C2.49617 165.267 3.18196 165.965 3.18199 166.826L3.18202 168.071C3.18354 168.616 3.23336 169.154 3.33002 169.68C3.48542 170.527 2.9373 171.341 2.10577 171.499C1.27423 171.658 0.474157 171.1 0.318757 170.253C0.187989 169.541 0.120684 168.814 0.118633 168.075L0.118591 166.826ZM0.118591 159.549C0.118591 158.688 0.804356 157.99 1.65029 157.99C2.49622 157.99 3.18199 158.688 3.18199 159.549V162.668C3.18199 163.529 2.49622 164.227 1.65029 164.227C0.804356 164.227 0.118591 163.529 0.118591 162.668V159.549ZM0.118591 152.272C0.118591 151.411 0.804356 150.713 1.65029 150.713C2.49622 150.713 3.18199 151.411 3.18199 152.272V155.391C3.18199 156.252 2.49622 156.95 1.65029 156.95C0.804356 156.95 0.118591 156.252 0.118591 155.391V152.272ZM0.118591 144.995C0.118591 144.134 0.804356 143.436 1.65029 143.436C2.49622 143.436 3.18199 144.134 3.18199 144.995V148.114C3.18199 148.975 2.49622 149.673 1.65029 149.673C0.804356 149.673 0.118591 148.975 0.118591 148.114V144.995ZM0.118591 137.719C0.118591 136.857 0.804356 136.159 1.65029 136.159C2.49622 136.159 3.18199 136.857 3.18199 137.719V140.837C3.18199 141.698 2.49622 142.397 1.65029 142.397C0.804356 142.397 0.118591 141.698 0.118591 140.837V137.719ZM0.118591 130.442C0.118591 129.581 0.804356 128.882 1.65029 128.882C2.49622 128.882 3.18199 129.581 3.18199 130.442V133.56C3.18199 134.422 2.49622 135.12 1.65029 135.12C0.804356 135.12 0.118591 134.422 0.118591 133.56V130.442ZM0.118591 123.165C0.118591 122.304 0.804356 121.605 1.65029 121.605C2.49622 121.605 3.18199 122.304 3.18199 123.165V126.283C3.18199 127.145 2.49622 127.843 1.65029 127.843C0.804356 127.843 0.118591 127.145 0.118591 126.283V123.165ZM0.118591 115.888C0.118591 115.027 0.804356 114.329 1.65029 114.329C2.49622 114.329 3.18199 115.027 3.18199 115.888V119.007C3.18199 119.868 2.49622 120.566 1.65029 120.566C0.804356 120.566 0.118591 119.868 0.118591 119.007V115.888ZM0.198083 108.433C0.29603 107.577 1.05658 106.965 1.89683 107.064C2.73707 107.164 3.33882 107.938 3.24088 108.794C3.20173 109.136 3.18199 109.481 3.18199 109.83V111.73C3.18199 112.591 2.49622 113.289 1.65029 113.289C0.804356 113.289 0.118591 112.591 0.118591 111.73V109.83C0.118591 109.361 0.145225 108.894 0.198083 108.433ZM3.88657 101.055C4.50738 100.47 5.47647 100.508 6.0511 101.14C6.62573 101.772 6.58829 102.758 5.96748 103.343C5.32643 103.947 4.77734 104.646 4.34063 105.416C3.91732 106.161 2.98043 106.416 2.24803 105.985C1.51562 105.555 1.26505 104.601 1.68836 103.855C2.27891 102.815 3.02072 101.871 3.88657 101.055ZM11.3829 97.8848C12.2282 97.8502 12.9409 98.5198 12.9749 99.3803C13.0089 100.241 12.3512 100.966 11.5059 101.001C10.6246 101.037 9.7659 101.207 8.95015 101.503C8.1532 101.791 7.27717 101.368 6.99349 100.557C6.7098 99.7452 7.12588 98.8534 7.92283 98.5646C9.02851 98.1639 10.192 97.9335 11.3829 97.8848ZM18.5637 97.875C19.4096 97.875 20.0954 98.5731 20.0954 99.4343C20.0954 100.296 19.4096 100.994 18.5637 100.994H15.5003C14.6544 100.994 13.9686 100.296 13.9686 99.4343C13.9686 98.5731 14.6544 97.875 15.5003 97.875H18.5637ZM25.7116 97.875C26.5576 97.875 27.2433 98.5731 27.2433 99.4343C27.2433 100.296 26.5576 100.994 25.7116 100.994H22.6482C21.8023 100.994 21.1165 100.296 21.1165 99.4343C21.1165 98.5731 21.8023 97.875 22.6482 97.875H25.7116ZM32.8595 97.875C33.7055 97.875 34.3912 98.5731 34.3912 99.4343C34.3912 100.296 33.7055 100.994 32.8595 100.994H29.7961C28.9502 100.994 28.2644 100.296 28.2644 99.4343C28.2644 98.5731 28.9502 97.875 29.7961 97.875H32.8595ZM40.0075 97.875C40.8534 97.875 41.5392 98.5731 41.5392 99.4343C41.5392 100.296 40.8534 100.994 40.0075 100.994H36.9441C36.0981 100.994 35.4124 100.296 35.4124 99.4343C35.4124 98.5731 36.0981 97.875 36.9441 97.875H40.0075Z" fill="#E9ECEE"/>
<path fill-rule="evenodd" clip-rule="evenodd" d="M43.3801 119.549C41.4392 119.462 39.482 119.499 37.5711 119.85H37.5783C35.7454 120.164 33.9523 120.734 32.3205 121.633C28.9872 123.499 26.565 126.79 25.4844 130.42C24.7719 132.693 24.6114 135.094 24.6432 137.462C26.3647 137.8 28.1269 137.894 29.8783 137.878C32.1175 137.824 34.3665 137.521 36.4905 136.789C37.9437 136.304 39.3079 135.583 40.5291 134.658C41.9495 133.555 43.1508 132.195 44.0709 130.65C45.97 127.445 46.7206 123.643 46.5321 119.945C45.4977 119.707 44.4362 119.626 43.3801 119.549ZM29.6873 140.153C28.0011 140.153 26.3069 140.254 24.647 140.562C24.5754 143.513 24.9108 146.524 26.0802 149.259C27.4065 152.388 29.7562 155.155 32.8383 156.65C35.6205 158.009 38.7588 158.499 41.8338 158.448C43.356 158.463 44.8762 158.335 46.3745 158.066C46.5528 158.068 46.5489 157.907 46.5454 157.763C46.5443 157.716 46.5432 157.67 46.5486 157.633C46.661 154.094 45.914 150.473 44.101 147.408C42.5019 144.712 39.9971 142.547 37.0519 141.453C34.7103 140.543 32.1866 140.206 29.6873 140.153ZM21.9392 119.75H9.83899C9.83899 132.452 9.83959 145.153 9.8408 157.854H21.9392V119.75Z" fill="#E9ECEE"/>
<path fill-rule="evenodd" clip-rule="evenodd" d="M109.8 98.4102C110.608 98.6653 111.059 99.539 110.809 100.362C110.558 101.184 109.7 101.644 108.892 101.389C108.066 101.128 107.201 100.994 106.316 100.994C105.47 100.994 104.785 100.296 104.785 99.4343C104.785 98.5731 105.47 97.875 106.316 97.875C107.51 97.875 108.681 98.0567 109.8 98.4102ZM116.227 103.415C116.682 104.142 116.472 105.106 115.758 105.568C115.045 106.031 114.098 105.817 113.644 105.091C113.175 104.341 112.597 103.667 111.931 103.091C111.286 102.533 111.207 101.549 111.755 100.893C112.302 100.237 113.269 100.156 113.914 100.714C114.813 101.491 115.594 102.402 116.227 103.415ZM118.059 111.276C118.059 112.137 117.374 112.835 116.528 112.835C115.682 112.835 114.996 112.137 114.996 111.276L114.996 109.807C114.995 109.327 114.956 108.853 114.881 108.388C114.744 107.538 115.31 106.736 116.145 106.597C116.98 106.457 117.767 107.034 117.904 107.883C118.006 108.513 118.058 109.153 118.059 109.803L118.059 111.276ZM118.059 118.553C118.059 119.414 117.374 120.112 116.528 120.112C115.682 120.112 114.996 119.414 114.996 118.553V115.434C114.996 114.573 115.682 113.875 116.528 113.875C117.374 113.875 118.059 114.573 118.059 115.434V118.553ZM118.059 125.83C118.059 126.691 117.374 127.389 116.528 127.389C115.682 127.389 114.996 126.691 114.996 125.83V122.711C114.996 121.85 115.682 121.152 116.528 121.152C117.374 121.152 118.059 121.85 118.059 122.711V125.83ZM118.059 133.107C118.059 133.968 117.374 134.666 116.528 134.666C115.682 134.666 114.996 133.968 114.996 133.107V129.988C114.996 129.127 115.682 128.429 116.528 128.429C117.374 128.429 118.059 129.127 118.059 129.988V133.107ZM118.059 140.383C118.059 141.245 117.374 141.943 116.528 141.943C115.682 141.943 114.996 141.245 114.996 140.383V137.265C114.996 136.403 115.682 135.705 116.528 135.705C117.374 135.705 118.059 136.403 118.059 137.265V140.383ZM118.059 147.66C118.059 148.521 117.374 149.22 116.528 149.22C115.682 149.22 114.996 148.521 114.996 147.66V144.542C114.996 143.68 115.682 142.982 116.528 142.982C117.374 142.982 118.059 143.68 118.059 144.542V147.66ZM118.059 154.937C118.059 155.798 117.374 156.497 116.528 156.497C115.682 156.497 114.996 155.798 114.996 154.937V151.819C114.996 150.957 115.682 150.259 116.528 150.259C117.374 150.259 118.059 150.957 118.059 151.819V154.937ZM118.059 162.214C118.059 163.075 117.374 163.773 116.528 163.773C115.682 163.773 114.996 163.075 114.996 162.214V159.095C114.996 158.234 115.682 157.536 116.528 157.536C117.374 157.536 118.059 158.234 118.059 159.095V162.214ZM117.947 169.702C117.831 170.555 117.058 171.15 116.22 171.032C115.382 170.913 114.797 170.126 114.913 169.273C114.968 168.869 114.996 168.459 114.996 168.045V166.372C114.996 165.511 115.682 164.813 116.528 164.813C117.374 164.813 118.059 165.511 118.059 166.372V168.045C118.059 168.602 118.022 169.156 117.947 169.702ZM114.094 177.002C113.461 177.572 112.493 177.512 111.932 176.867C111.372 176.222 111.431 175.237 112.065 174.666C112.719 174.077 113.283 173.39 113.737 172.631C114.177 171.896 115.119 171.662 115.842 172.11C116.564 172.558 116.794 173.517 116.354 174.253C115.741 175.279 114.978 176.206 114.094 177.002ZM106.618 179.996C105.772 180.018 105.069 179.338 105.048 178.477C105.027 177.616 105.695 176.9 106.541 176.878C107.423 176.856 108.284 176.699 109.104 176.416C109.905 176.14 110.775 176.577 111.046 177.393C111.318 178.208 110.888 179.093 110.087 179.37C108.976 179.753 107.81 179.965 106.618 179.996ZM99.3913 180C98.5454 180 97.8596 179.302 97.8596 178.441C97.8596 177.58 98.5454 176.881 99.3913 176.881H102.455C103.301 176.881 103.986 177.58 103.986 178.441C103.986 179.302 103.301 180 102.455 180H99.3913ZM92.2434 180C91.3975 180 90.7117 179.302 90.7117 178.441C90.7117 177.58 91.3975 176.881 92.2434 176.881H95.3068C96.1527 176.881 96.8385 177.58 96.8385 178.441C96.8385 179.302 96.1527 180 95.3068 180H92.2434ZM85.0955 180C84.2495 180 83.5638 179.302 83.5638 178.441C83.5638 177.58 84.2495 176.881 85.0955 176.881H88.1589C89.0048 176.881 89.6906 177.58 89.6906 178.441C89.6906 179.302 89.0048 180 88.1589 180H85.0955ZM77.9475 180C77.1016 180 76.4158 179.302 76.4158 178.441C76.4158 177.58 77.1016 176.881 77.9475 176.881H81.0109C81.8569 176.881 82.5426 177.58 82.5426 178.441C82.5426 179.302 81.8569 180 81.0109 180H77.9475ZM70.406 179.54C69.5927 179.304 69.1219 178.441 69.3544 177.613C69.587 176.785 70.4349 176.305 71.2482 176.542C72.0187 176.766 72.821 176.881 73.6401 176.881H73.863C74.7089 176.881 75.3947 177.579 75.3947 178.441C75.3947 179.302 74.7089 180 73.863 180H73.6401C72.5355 180 71.4496 179.844 70.406 179.54ZM63.8711 174.681C63.401 173.965 63.59 172.997 64.2933 172.518C64.9966 172.04 65.9478 172.232 66.4179 172.948C66.9031 173.687 67.4956 174.349 68.1736 174.909C68.8303 175.452 68.9304 176.434 68.3972 177.103C67.864 177.771 66.8994 177.873 66.2426 177.33C65.3268 176.573 64.5267 175.68 63.8711 174.681ZM61.8971 166.826C61.8971 165.965 62.5828 165.267 63.4287 165.267C64.2747 165.267 64.9605 165.965 64.9605 166.826L64.9605 168.071C64.962 168.616 65.0119 169.154 65.1085 169.68C65.2639 170.527 64.7158 171.341 63.8843 171.499C63.0527 171.658 62.2527 171.1 62.0973 170.253C61.9665 169.541 61.8992 168.814 61.8971 168.075L61.8971 166.826ZM61.8971 159.549C61.8971 158.688 62.5829 157.99 63.4288 157.99C64.2747 157.99 64.9605 158.688 64.9605 159.549V162.668C64.9605 163.529 64.2747 164.227 63.4288 164.227C62.5829 164.227 61.8971 163.529 61.8971 162.668V159.549ZM61.8971 152.272C61.8971 151.411 62.5829 150.713 63.4288 150.713C64.2747 150.713 64.9605 151.411 64.9605 152.272V155.391C64.9605 156.252 64.2747 156.95 63.4288 156.95C62.5829 156.95 61.8971 156.252 61.8971 155.391V152.272ZM61.8971 144.995C61.8971 144.134 62.5829 143.436 63.4288 143.436C64.2747 143.436 64.9605 144.134 64.9605 144.995V148.114C64.9605 148.975 64.2747 149.673 63.4288 149.673C62.5829 149.673 61.8971 148.975 61.8971 148.114V144.995ZM61.8971 137.719C61.8971 136.857 62.5829 136.159 63.4288 136.159C64.2747 136.159 64.9605 136.857 64.9605 137.719V140.837C64.9605 141.698 64.2747 142.397 63.4288 142.397C62.5829 142.397 61.8971 141.698 61.8971 140.837V137.719ZM61.8971 130.442C61.8971 129.581 62.5829 128.882 63.4288 128.882C64.2747 128.882 64.9605 129.581 64.9605 130.442V133.56C64.9605 134.422 64.2747 135.12 63.4288 135.12C62.5829 135.12 61.8971 134.422 61.8971 133.56V130.442ZM61.8971 123.165C61.8971 122.304 62.5829 121.605 63.4288 121.605C64.2747 121.605 64.9605 122.304 64.9605 123.165V126.283C64.9605 127.145 64.2747 127.843 63.4288 127.843C62.5829 127.843 61.8971 127.145 61.8971 126.283V123.165ZM61.8971 115.888C61.8971 115.027 62.5829 114.329 63.4288 114.329C64.2747 114.329 64.9605 115.027 64.9605 115.888V119.007C64.9605 119.868 64.2747 120.566 63.4288 120.566C62.5829 120.566 61.8971 119.868 61.8971 119.007V115.888ZM61.9766 108.433C62.0745 107.577 62.8351 106.965 63.6753 107.064C64.5156 107.164 65.1173 107.938 65.0194 108.794C64.9802 109.136 64.9605 109.481 64.9605 109.83V111.73C64.9605 112.591 64.2747 113.289 63.4288 113.289C62.5829 113.289 61.8971 112.591 61.8971 111.73V109.83C61.8971 109.361 61.9237 108.894 61.9766 108.433ZM65.6651 101.055C66.2859 100.47 67.255 100.508 67.8296 101.14C68.4042 101.772 68.3668 102.758 67.746 103.343C67.1049 103.947 66.5558 104.646 66.1191 105.416C65.6958 106.161 64.7589 106.416 64.0265 105.985C63.2941 105.555 63.0436 104.601 63.4669 103.855C64.0574 102.815 64.7992 101.871 65.6651 101.055ZM73.1614 97.8848C74.0067 97.8502 74.7194 98.5198 74.7534 99.3803C74.7874 100.241 74.1297 100.966 73.2844 101.001C72.4031 101.037 71.5444 101.207 70.7286 101.503C69.9317 101.791 69.0557 101.368 68.772 100.557C68.4883 99.7452 68.9044 98.8534 69.7013 98.5646C70.807 98.1639 71.9705 97.9335 73.1614 97.8848ZM80.3422 97.875C81.1881 97.875 81.8739 98.5731 81.8739 99.4343C81.8739 100.296 81.1881 100.994 80.3422 100.994H77.2788C76.4329 100.994 75.7471 100.296 75.7471 99.4343C75.7471 98.5731 76.4329 97.875 77.2788 97.875H80.3422ZM87.4901 97.875C88.3361 97.875 89.0218 98.5731 89.0218 99.4343C89.0218 100.296 88.3361 100.994 87.4901 100.994H84.4267C83.5808 100.994 82.895 100.296 82.895 99.4343C82.895 98.5731 83.5808 97.875 84.4267 97.875H87.4901ZM94.638 97.875C95.484 97.875 96.1697 98.5731 96.1697 99.4343C96.1697 100.296 95.484 100.994 94.638 100.994H91.5746C90.7287 100.994 90.0429 100.296 90.0429 99.4343C90.0429 98.5731 90.7287 97.875 91.5746 97.875H94.638ZM101.786 97.875C102.632 97.875 103.318 98.5731 103.318 99.4343C103.318 100.296 102.632 100.994 101.786 100.994H98.7226C97.8766 100.994 97.1909 100.296 97.1909 99.4343C97.1909 98.5731 97.8766 97.875 98.7226 97.875H101.786Z" fill="#E9ECEE"/>
<path fill-rule="evenodd" clip-rule="evenodd" d="M105.159 119.549C103.218 119.462 101.261 119.499 99.3496 119.85H99.3569C97.5239 120.164 95.7308 120.734 94.099 121.633C90.7657 123.499 88.3435 126.79 87.2629 130.42C86.5504 132.693 86.39 135.094 86.4217 137.462C88.1432 137.8 89.9055 137.894 91.6569 137.878C93.896 137.824 96.1451 137.521 98.269 136.789C99.7223 136.304 101.086 135.583 102.308 134.658C103.728 133.555 104.929 132.195 105.849 130.65C107.749 127.445 108.499 123.643 108.311 119.945C107.276 119.707 106.215 119.626 105.159 119.549ZM91.4658 140.153C89.7797 140.153 88.0854 140.254 86.4255 140.562C86.3539 143.513 86.6893 146.524 87.8587 149.259C89.185 152.388 91.5347 155.155 94.6169 156.65C97.399 158.009 100.537 158.499 103.612 158.448C105.134 158.463 106.655 158.335 108.153 158.066C108.331 158.068 108.327 157.907 108.324 157.763C108.323 157.716 108.322 157.67 108.327 157.633C108.44 154.094 107.693 150.473 105.879 147.408C104.28 144.712 101.776 142.547 98.8304 141.453C96.4888 140.543 93.9651 140.206 91.4658 140.153ZM83.7178 119.75H71.6175C71.6175 132.452 71.6181 145.153 71.6193 157.854H83.7178V119.75Z" fill="#E9ECEE"/>
<path fill-rule="evenodd" clip-rule="evenodd" d="M171.578 98.4102C172.386 98.6653 172.838 99.539 172.587 100.362C172.337 101.184 171.478 101.644 170.67 101.389C169.844 101.128 168.979 100.994 168.095 100.994C167.249 100.994 166.563 100.296 166.563 99.4343C166.563 98.5731 167.249 97.875 168.095 97.875C169.288 97.875 170.459 98.0567 171.578 98.4102ZM178.006 103.415C178.46 104.142 178.25 105.106 177.537 105.568C176.823 106.031 175.876 105.817 175.422 105.091C174.953 104.341 174.375 103.667 173.709 103.091C173.064 102.533 172.986 101.549 173.533 100.893C174.081 100.237 175.047 100.156 175.692 100.714C176.591 101.491 177.372 102.402 178.006 103.415ZM179.838 111.276C179.838 112.137 179.152 112.835 178.306 112.835C177.46 112.835 176.774 112.137 176.774 111.276L176.774 109.807C176.773 109.327 176.735 108.853 176.66 108.388C176.523 107.538 177.089 106.736 177.923 106.597C178.758 106.457 179.546 107.034 179.683 107.883C179.784 108.513 179.836 109.153 179.838 109.803L179.838 111.276ZM179.838 118.553C179.838 119.414 179.152 120.112 178.306 120.112C177.46 120.112 176.774 119.414 176.774 118.553V115.434C176.774 114.573 177.46 113.875 178.306 113.875C179.152 113.875 179.838 114.573 179.838 115.434V118.553ZM179.838 125.83C179.838 126.691 179.152 127.389 178.306 127.389C177.46 127.389 176.774 126.691 176.774 125.83V122.711C176.774 121.85 177.46 121.152 178.306 121.152C179.152 121.152 179.838 121.85 179.838 122.711V125.83ZM179.838 133.107C179.838 133.968 179.152 134.666 178.306 134.666C177.46 134.666 176.774 133.968 176.774 133.107V129.988C176.774 129.127 177.46 128.429 178.306 128.429C179.152 128.429 179.838 129.127 179.838 129.988V133.107ZM179.838 140.383C179.838 141.245 179.152 141.943 178.306 141.943C177.46 141.943 176.774 141.245 176.774 140.383V137.265C176.774 136.403 177.46 135.705 178.306 135.705C179.152 135.705 179.838 136.403 179.838 137.265V140.383ZM179.838 147.66C179.838 148.521 179.152 149.22 178.306 149.22C177.46 149.22 176.774 148.521 176.774 147.66V144.542C176.774 143.68 177.46 142.982 178.306 142.982C179.152 142.982 179.838 143.68 179.838 144.542V147.66ZM179.838 154.937C179.838 155.798 179.152 156.497 178.306 156.497C177.46 156.497 176.774 155.798 176.774 154.937V151.819C176.774 150.957 177.46 150.259 178.306 150.259C179.152 150.259 179.838 150.957 179.838 151.819V154.937ZM179.838 162.214C179.838 163.075 179.152 163.773 178.306 163.773C177.46 163.773 176.774 163.075 176.774 162.214V159.095C176.774 158.234 177.46 157.536 178.306 157.536C179.152 157.536 179.838 158.234 179.838 159.095V162.214ZM179.726 169.702C179.61 170.555 178.836 171.15 177.998 171.032C177.16 170.913 176.575 170.126 176.691 169.273C176.747 168.869 176.774 168.459 176.774 168.045V166.372C176.774 165.511 177.46 164.813 178.306 164.813C179.152 164.813 179.838 165.511 179.838 166.372V168.045C179.838 168.602 179.8 169.156 179.726 169.702ZM175.873 177.002C175.239 177.572 174.271 177.512 173.711 176.867C173.15 176.222 173.21 175.237 173.843 174.666C174.497 174.077 175.062 173.39 175.516 172.631C175.955 171.896 176.898 171.662 177.62 172.11C178.343 172.558 178.572 173.517 178.132 174.253C177.519 175.279 176.757 176.206 175.873 177.002ZM168.396 179.996C167.551 180.018 166.848 179.338 166.826 178.477C166.805 177.616 167.473 176.9 168.319 176.878C169.202 176.856 170.063 176.699 170.882 176.416C171.684 176.14 172.553 176.577 172.825 177.393C173.096 178.208 172.667 179.093 171.866 179.37C170.755 179.753 169.588 179.965 168.396 179.996ZM161.17 180C160.324 180 159.638 179.302 159.638 178.441C159.638 177.58 160.324 176.881 161.17 176.881H164.233C165.079 176.881 165.765 177.58 165.765 178.441C165.765 179.302 165.079 180 164.233 180H161.17ZM154.022 180C153.176 180 152.49 179.302 152.49 178.441C152.49 177.58 153.176 176.881 154.022 176.881H157.085C157.931 176.881 158.617 177.58 158.617 178.441C158.617 179.302 157.931 180 157.085 180H154.022ZM146.874 180C146.028 180 145.342 179.302 145.342 178.441C145.342 177.58 146.028 176.881 146.874 176.881H149.937C150.783 176.881 151.469 177.58 151.469 178.441C151.469 179.302 150.783 180 149.937 180H146.874ZM139.726 180C138.88 180 138.194 179.302 138.194 178.441C138.194 177.58 138.88 176.881 139.726 176.881H142.789C143.635 176.881 144.321 177.58 144.321 178.441C144.321 179.302 143.635 180 142.789 180H139.726ZM132.184 179.54C131.371 179.304 130.9 178.441 131.133 177.613C131.365 176.785 132.213 176.305 133.027 176.542C133.797 176.766 134.599 176.881 135.419 176.881H135.641C136.487 176.881 137.173 177.579 137.173 178.441C137.173 179.302 136.487 180 135.641 180H135.419C134.314 180 133.228 179.844 132.184 179.54ZM125.65 174.681C125.179 173.965 125.368 172.997 126.072 172.518C126.775 172.04 127.726 172.232 128.196 172.948C128.682 173.687 129.274 174.349 129.952 174.909C130.609 175.452 130.709 176.434 130.176 177.103C129.642 177.771 128.678 177.873 128.021 177.33C127.105 176.573 126.305 175.68 125.65 174.681ZM123.676 166.826C123.676 165.965 124.361 165.267 125.207 165.267C126.053 165.267 126.739 165.965 126.739 166.826L126.739 168.071C126.74 168.616 126.79 169.154 126.887 169.68C127.042 170.527 126.494 171.341 125.663 171.499C124.831 171.658 124.031 171.1 123.876 170.253C123.745 169.541 123.678 168.814 123.676 168.075L123.676 166.826ZM123.676 159.549C123.676 158.688 124.361 157.99 125.207 157.99C126.053 157.99 126.739 158.688 126.739 159.549V162.668C126.739 163.529 126.053 164.227 125.207 164.227C124.361 164.227 123.676 163.529 123.676 162.668V159.549ZM123.676 152.272C123.676 151.411 124.361 150.713 125.207 150.713C126.053 150.713 126.739 151.411 126.739 152.272V155.391C126.739 156.252 126.053 156.95 125.207 156.95C124.361 156.95 123.676 156.252 123.676 155.391V152.272ZM123.676 144.995C123.676 144.134 124.361 143.436 125.207 143.436C126.053 143.436 126.739 144.134 126.739 144.995V148.114C126.739 148.975 126.053 149.673 125.207 149.673C124.361 149.673 123.676 148.975 123.676 148.114V144.995ZM123.676 137.719C123.676 136.857 124.361 136.159 125.207 136.159C126.053 136.159 126.739 136.857 126.739 137.719V140.837C126.739 141.698 126.053 142.397 125.207 142.397C124.361 142.397 123.676 141.698 123.676 140.837V137.719ZM123.676 130.442C123.676 129.581 124.361 128.882 125.207 128.882C126.053 128.882 126.739 129.581 126.739 130.442V133.56C126.739 134.422 126.053 135.12 125.207 135.12C124.361 135.12 123.676 134.422 123.676 133.56V130.442ZM123.676 123.165C123.676 122.304 124.361 121.605 125.207 121.605C126.053 121.605 126.739 122.304 126.739 123.165V126.283C126.739 127.145 126.053 127.843 125.207 127.843C124.361 127.843 123.676 127.145 123.676 126.283V123.165ZM123.676 115.888C123.676 115.027 124.361 114.329 125.207 114.329C126.053 114.329 126.739 115.027 126.739 115.888V119.007C126.739 119.868 126.053 120.566 125.207 120.566C124.361 120.566 123.676 119.868 123.676 119.007V115.888ZM123.755 108.433C123.853 107.577 124.614 106.965 125.454 107.064C126.294 107.164 126.896 107.938 126.798 108.794C126.759 109.136 126.739 109.481 126.739 109.83V111.73C126.739 112.591 126.053 113.289 125.207 113.289C124.361 113.289 123.676 112.591 123.676 111.73V109.83C123.676 109.361 123.702 108.894 123.755 108.433ZM127.444 101.055C128.064 100.47 129.033 100.508 129.608 101.14C130.183 101.772 130.145 102.758 129.524 103.343C128.883 103.947 128.334 104.646 127.898 105.416C127.474 106.161 126.537 106.416 125.805 105.985C125.073 105.555 124.822 104.601 125.245 103.855C125.836 102.815 126.578 101.871 127.444 101.055ZM134.94 97.8848C135.785 97.8502 136.498 98.5198 136.532 99.3803C136.566 100.241 135.908 100.966 135.063 101.001C134.182 101.037 133.323 101.207 132.507 101.503C131.71 101.791 130.834 101.368 130.55 100.557C130.267 99.7452 130.683 98.8534 131.48 98.5646C132.585 98.1639 133.749 97.9335 134.94 97.8848ZM142.121 97.875C142.967 97.875 143.652 98.5731 143.652 99.4343C143.652 100.296 142.967 100.994 142.121 100.994H139.057C138.211 100.994 137.526 100.296 137.526 99.4343C137.526 98.5731 138.211 97.875 139.057 97.875H142.121ZM149.269 97.875C150.115 97.875 150.8 98.5731 150.8 99.4343C150.8 100.296 150.115 100.994 149.269 100.994H146.205C145.359 100.994 144.673 100.296 144.673 99.4343C144.673 98.5731 145.359 97.875 146.205 97.875H149.269ZM156.416 97.875C157.262 97.875 157.948 98.5731 157.948 99.4343C157.948 100.296 157.262 100.994 156.416 100.994H153.353C152.507 100.994 151.821 100.296 151.821 99.4343C151.821 98.5731 152.507 97.875 153.353 97.875H156.416ZM163.564 97.875C164.41 97.875 165.096 98.5731 165.096 99.4343C165.096 100.296 164.41 100.994 163.564 100.994H160.501C159.655 100.994 158.969 100.296 158.969 99.4343C158.969 98.5731 159.655 97.875 160.501 97.875H163.564Z" fill="#E9ECEE"/>
<path fill-rule="evenodd" clip-rule="evenodd" d="M166.937 119.549C164.996 119.462 163.039 119.499 161.128 119.85H161.135C159.302 120.164 157.509 120.734 155.877 121.633C152.544 123.499 150.122 126.79 149.041 130.42C148.329 132.693 148.168 135.094 148.2 137.462C149.922 137.8 151.684 137.894 153.435 137.878C155.674 137.824 157.923 137.521 160.047 136.789C161.501 136.304 162.865 135.583 164.086 134.658C165.506 133.555 166.708 132.195 167.628 130.65C169.527 127.445 170.278 123.643 170.089 119.945C169.055 119.707 167.993 119.626 166.937 119.549ZM153.244 140.153C151.558 140.153 149.864 140.254 148.204 140.562C148.132 143.513 148.468 146.524 149.637 149.259C150.963 152.388 153.313 155.155 156.395 156.65C159.177 158.009 162.316 158.499 165.391 158.448C166.913 158.463 168.433 158.335 169.932 158.066C170.11 158.068 170.106 157.907 170.102 157.763C170.101 157.716 170.1 157.67 170.106 157.633C170.218 154.094 169.471 150.473 167.658 147.408C166.059 144.712 163.554 142.547 160.609 141.453C158.267 140.543 155.744 140.206 153.244 140.153ZM145.496 119.75H133.396C133.396 132.452 133.397 145.153 133.398 157.854H145.496V119.75Z" fill="#E9ECEE"/>
</svg>
