<svg width="240" height="240" viewBox="0 0 240 240" fill="none" xmlns="http://www.w3.org/2000/svg">
<g filter="url(#filter0_d)">
<path fill-rule="evenodd" clip-rule="evenodd" d="M131.372 28.7104L205.29 102.628C211.57 108.909 211.57 119.091 205.29 125.372L131.372 199.29C125.091 205.57 114.909 205.57 108.628 199.29L34.7104 125.372C28.4299 119.091 28.4299 108.909 34.7104 102.628L108.628 28.7104C114.909 22.4299 125.091 22.4299 131.372 28.7104Z" fill="white"/>
</g>
<path fill-rule="evenodd" clip-rule="evenodd" d="M82.0397 75.8823C85.4715 75.8823 88.4824 78.1422 89.4567 81.4154L89.5243 81.6567L90.9845 87.2071H156.883C159.909 87.2071 161.795 89.8888 161.012 92.804L160.957 92.9944L151.264 124.492C150.071 128.369 146.19 131.43 142.288 131.558L142.034 131.563H102.653L103.889 136.26L155.994 136.261C157.249 136.261 158.276 137.239 158.356 138.475L158.361 138.63C158.361 139.887 157.385 140.915 156.15 140.995L155.994 141H103.446C101.625 141 100.024 139.815 99.4811 138.092L99.4251 137.898L84.946 82.8635C84.6134 81.5996 83.5069 80.7022 82.2167 80.6265L82.0397 80.6213H71.1908C69.8834 80.6213 68.8235 79.5605 68.8235 78.2518C68.8235 76.9955 69.8003 75.9676 71.0351 75.8874L71.1908 75.8823H82.0397ZM101.401 126.804L92.2362 91.9654L156.355 91.9646L146.782 123.076L146.715 123.275C146.017 125.192 143.869 126.804 142.034 126.804H101.401ZM98.9838 153.268C98.9838 148.056 103.204 143.831 108.409 143.831C113.614 143.831 117.834 148.056 117.834 153.268C117.834 158.481 113.614 162.706 108.409 162.706C103.204 162.706 98.9838 158.481 98.9838 153.268ZM113.121 153.269C113.121 150.662 111.012 148.55 108.409 148.55C105.806 148.55 103.696 150.662 103.696 153.269C103.696 155.875 105.806 157.987 108.409 157.987C111.012 157.987 113.121 155.875 113.121 153.269ZM146.109 143.831C140.904 143.831 136.684 148.056 136.684 153.268C136.684 158.481 140.904 162.706 146.109 162.706C151.314 162.706 155.534 158.481 155.534 153.268C155.534 148.056 151.314 143.831 146.109 143.831ZM146.109 148.55C148.712 148.55 150.822 150.662 150.822 153.269C150.822 155.875 148.712 157.987 146.109 157.987C143.506 157.987 141.396 155.875 141.396 153.269C141.396 150.662 143.506 148.55 146.109 148.55ZM147.051 99.9476C147.051 98.6445 145.986 97.5882 144.671 97.5882H103.249L103.093 97.5933C101.851 97.6731 100.869 98.6967 100.869 99.9476C100.869 101.251 101.935 102.307 103.249 102.307H144.671L144.827 102.302C146.069 102.222 147.051 101.198 147.051 99.9476ZM141.857 107.026C143.163 107.025 144.223 108.075 144.224 109.371C144.225 110.616 143.249 111.635 142.015 111.715L141.86 111.72L106.064 111.744C104.757 111.745 103.697 110.695 103.696 109.398C103.695 108.154 104.671 107.135 105.905 107.055L106.061 107.049L141.857 107.026ZM140.454 119.766C140.454 118.463 139.405 117.407 138.111 117.407H108.867L108.713 117.412C107.491 117.492 106.524 118.515 106.524 119.766C106.524 121.069 107.573 122.125 108.867 122.125H138.111L138.265 122.12C139.487 122.04 140.454 121.017 140.454 119.766Z" fill="#9C333A"/>
<defs>
<filter id="filter0_d" x="0" y="0" width="240" height="240" filterUnits="userSpaceOnUse" color-interpolation-filters="sRGB">
<feFlood flood-opacity="0" result="BackgroundImageFix"/>
<feColorMatrix in="SourceAlpha" type="matrix" values="0 0 0 0 0 0 0 0 0 0 0 0 0 0 0 0 0 0 127 0"/>
<feOffset dy="6"/>
<feGaussianBlur stdDeviation="15"/>
<feColorMatrix type="matrix" values="0 0 0 0 0 0 0 0 0 0 0 0 0 0 0 0 0 0 0.12 0"/>
<feBlend mode="normal" in2="BackgroundImageFix" result="effect1_dropShadow"/>
<feBlend mode="normal" in="SourceGraphic" in2="effect1_dropShadow" result="shape"/>
</filter>
</defs>
</svg>
