<svg width="241" height="240" viewBox="0 0 241 240" fill="none" xmlns="http://www.w3.org/2000/svg">
<g filter="url(#filter0_d)">
<path fill-rule="evenodd" clip-rule="evenodd" d="M132.238 28.7104L206.098 102.628C212.374 108.909 212.374 119.091 206.098 125.372L132.238 199.29C125.963 205.57 115.788 205.57 109.512 199.29L35.6521 125.372C29.3765 119.091 29.3765 108.909 35.6521 102.628L109.512 28.7104C115.788 22.4299 125.963 22.4299 132.238 28.7104Z" fill="white"/>
</g>
<path d="M103.804 155.494L116.77 82.7482V75.1753H92.4445V85.7315H108.164L97.2636 144.364V155.494H103.804ZM136.536 103.516C134.471 103.746 132.75 105.008 131.603 106.27L132.406 84.6988H146.06L146.289 75.1753H126.095L124.718 115.105H130.57C131.144 113.958 132.176 112.81 133.553 112.581H135.274C138.946 113.384 139.405 120.039 139.405 128.645C139.405 137.021 138.602 146.429 135.619 146.774H134.356C131.832 146.315 130.57 142.758 131.258 135.414V129.104H124.374C122.423 142.528 122.653 155.035 132.75 155.494H137.11C144.683 155.035 147.552 144.135 147.552 128.186C147.552 111.778 144.568 104.549 138.717 103.516H136.536Z" fill="#9C333A"/>
<path d="M163.961 97.3446C161.164 97.3446 158.959 100.41 158.959 105.574C158.959 110.737 161.164 113.857 163.961 113.857C166.704 113.857 168.963 110.737 168.963 105.574C168.963 100.41 166.704 97.3446 163.961 97.3446ZM179.72 100.088V97.7211H178.106L159.604 133.165V135.371H161.272L179.72 100.088ZM163.961 100.626C165.252 100.626 166.112 102.562 166.112 105.574C166.112 108.639 165.252 110.522 163.961 110.522C162.67 110.522 161.81 108.639 161.81 105.574C161.81 102.562 162.67 100.626 163.961 100.626ZM175.471 119.128C172.674 119.128 170.469 122.193 170.469 127.357C170.469 132.52 172.674 135.639 175.471 135.639C178.214 135.639 180.473 132.52 180.473 127.357C180.473 122.193 178.214 119.128 175.471 119.128ZM175.471 122.408C176.762 122.408 177.622 124.345 177.622 127.357C177.622 130.422 176.762 132.305 175.471 132.305C174.18 132.305 173.32 130.422 173.32 127.357C173.32 124.345 174.18 122.408 175.471 122.408Z" fill="#9C333A"/>
<path d="M69.7175 125.546H67.7812V103.028H62.1517C61.578 113.283 60.7892 123.574 58.8171 125.546H57.8848V128.128H69.2513L69.7175 125.546ZM65.4864 105.789L65.3788 125.653H61.6497C62.6896 122.892 63.4784 117.586 64.2673 105.789H65.4864ZM74.8752 103.028C72.6162 103.458 71.5764 107.51 71.5764 115.363C71.5764 123.072 72.5445 127.805 74.8393 128.128H77.0624C79.3573 127.805 80.2537 123.072 80.2537 115.363C80.2537 107.51 79.2856 103.458 77.1342 103.028H74.8752ZM76.166 106.076C77.3852 106.255 77.6362 110.199 77.6362 115.363C77.6362 120.418 77.3493 124.829 76.2019 124.972H75.6999C74.5166 124.829 74.1939 120.418 74.1939 115.363C74.1939 110.199 74.5525 106.255 75.7358 106.076H76.166Z" fill="#9C333A"/>
<defs>
<filter id="filter0_d" x="0.945374" y="0" width="239.859" height="240" filterUnits="userSpaceOnUse" color-interpolation-filters="sRGB">
<feFlood flood-opacity="0" result="BackgroundImageFix"/>
<feColorMatrix in="SourceAlpha" type="matrix" values="0 0 0 0 0 0 0 0 0 0 0 0 0 0 0 0 0 0 127 0"/>
<feOffset dy="6"/>
<feGaussianBlur stdDeviation="15"/>
<feColorMatrix type="matrix" values="0 0 0 0 0 0 0 0 0 0 0 0 0 0 0 0 0 0 0.12 0"/>
<feBlend mode="normal" in2="BackgroundImageFix" result="effect1_dropShadow"/>
<feBlend mode="normal" in="SourceGraphic" in2="effect1_dropShadow" result="shape"/>
</filter>
</defs>
</svg>
