<svg xmlns="http://www.w3.org/2000/svg" width="50" height="50" viewBox="0 0 50 50">
    <g fill="#FFF" fill-rule="evenodd">
        <circle cx="25" cy="25" r="25" opacity=".2"/>
        <path fill-rule="nonzero" d="M15.462 21.115c0 .468.169.845.507 1.17l7.756 7.67c.455.428.899.631 1.459.641.55 0 1.014-.203 1.458-.641l7.767-7.67c.328-.325.497-.712.497-1.17 0-.948-.782-1.711-1.754-1.711-.486 0-.93.193-1.3.55l-6.679 6.64-6.657-6.64c-.37-.357-.814-.55-1.3-.55-.962 0-1.754.763-1.754 1.71z"/>
    </g>
</svg>
