<svg xmlns="http://www.w3.org/2000/svg" width="272" height="29" viewBox="0 0 272 29">
    <g fill="#FFF">
        <path d="M15.15 6.93h1.06c1.75 0 2.64.65 3.09 1.75.45 1.1.29 3.09-.28 5.75-.57 2.66-1.2 4.61-2.17 5.76-.926 1.17-2.36 1.821-3.85 1.75h-1M0 28.16h13.52c8.48 0 14.92-5.16 16.69-13.42 1.77-8.26-.52-14-11.5-14H5.84L0 28.16zM58.08 19c-1.4 6.61-6.86 9.91-15.14 9.91-8.28 0-12.33-3.34-10.94-9.91L35.89.71h10.87L43 18.51c-.46 2.16.38 3 1.53 3s2.34-.84 2.8-3L51.09.71H62M87.85 18c-1.61 7.56-8.34 10.87-15.13 10.87-9.61 0-12.81-5.85-11-14.55C63.3 5.78 69.62 0 78.89 0 85.8 0 91 2.81 89.37 10.87h-9.94c.51-3.12-.5-3.73-1.82-3.75-2.81 0-3.69 2.88-4.61 7.31-.89 4.19-1.33 7.32 1.4 7.32 1.41 0 2.54-.84 3.31-3.75M100.69 17.05l4.59-10.36h.08v10.36M85.19 28.16H95.6l2-4.42h7.86l.12 4.42h11.25l-3-27.45H99.8L85.19 28.16zM124.46 8.07L117.69 8.07 119.26.71 143.65.71 142.09 8.07 135.32 8.07 131.05 28.16 120.19 28.16M145.7.71L156.57.71 150.74 28.16 139.87 28.16M179.36 7.13c.26-3.34-2.34-4.71-5.45-4.71-7 0-10.52 6.39-11.71 12-1.19 5.61-.43 12 6.6 12 3.367.1 6.458-1.855 7.81-4.94h2.66c-1.869 4.41-6.21 7.26-11 7.22-8.32 0-10.39-6.69-8.77-14.3C161.12 6.79 166.11.14 174.39.14c4.49 0 8.31 2.05 7.63 7M185.12 14.43c1.27-6 5.29-12 12.12-12 6.83 0 8.29 6 7 12-1.29 6-5.29 12-12.13 12-6.84 0-8.29-6-7-12m21.8 0c1.83-8.55-1.32-14.29-9.18-14.29-7.86 0-13.45 5.74-15.27 14.29-1.82 8.55 1.33 14.3 9.19 14.3 7.86 0 13.45-5.73 15.27-14.3h-.01zM212.74 12.82L214.83 3h5.55c2.62 0 7.62-.39 6.51 4.9-1 4.69-5.37 4.92-8.87 4.92m-5.76 2.28h6.8c5 0 5.13 1.1 4.36 7.37-.335 1.877-.42 3.79-.25 5.69H226c-.74-1.67-.16-3.72.29-8.16.34-3.19.08-5.54-3.3-6.11v-.08c3.36-.8 5.9-2.93 6.53-5.9.56-2.64.07-4.62-1.59-5.76-1.78-1.29-3.72-1.44-6.12-1.44h-9L207 28.16h2.47l2.79-13.06zM235.27 28.73c-4.37 0-7.37-3.19-6.53-7.71h2.66c-.82 4.21 2 5.43 5.73 5.43 3.07 0 7-1.79 7.73-5.28.58-2.74-1.12-4-3.25-4.81-4.13-1.48-10.6-2.89-9.34-8.81 1-4.79 6-7.41 10.32-7.41 3.6 0 8 1.25 7.54 6.53h-2.67c.65-3.38-2.24-4.25-5.07-4.25s-6.68 1.44-7.39 4.79c-1.65 7.79 14.58 4.26 12.57 13.73-1.27 6-6.78 7.79-12.3 7.79M248.92 28.16L254.75.71 271.06.71 270.57 2.99 256.74 2.99 254.64 12.87 267.94 12.87 267.45 15.15 254.16 15.15 251.87 25.88 266.27 25.88 265.79 28.16"/>
    </g>
</svg>
