<svg xmlns="http://www.w3.org/2000/svg" width="24" height="24" viewBox="0 0 24 24">
    <defs>
        <filter id="rxbocr5p9a">
            <feColorMatrix in="SourceGraphic" values="0 0 0 0 1.000000 0 0 0 0 1.000000 0 0 0 0 1.000000 0 0 0 1.000000 0"/>
        </filter>
    </defs>
    <g fill="none" fill-rule="evenodd">
        <g>
            <g>
                <g>
                    <g>
                        <g filter="url(#rxbocr5p9a)" transform="translate(-490 -9113) translate(370 1800) translate(0 6960) translate(0 81) translate(0 272)">
                            <path fill="#18191B" fill-rule="nonzero" d="M20.48 3.51c3.435 3.43 4.464 8.593 2.608 13.079C21.23 21.075 16.855 24 12 24 5.378 24 .008 18.636 0 12.014-.006 7.16 2.914 2.78 7.398.918 11.88-.944 17.045.079 20.48 3.51zM12 .423C5.6.431.41 5.613.395 12.014c-.006 4.695 2.818 8.931 7.154 10.732 4.336 1.8 9.33.811 12.652-2.507 3.322-3.318 4.317-8.31 2.522-12.648C20.927 3.252 16.695.423 12 .423zm.052 1.17c5.753-.002 10.42 4.659 10.425 10.412.005 5.753-4.653 10.422-10.407 10.43-2.778.022-5.45-1.066-7.423-3.022-1.972-1.957-3.082-4.62-3.082-7.399h.07c0-5.753 4.663-10.418 10.417-10.42zM12 2.85c-5.049.038-9.134 4.117-9.18 9.165-.034 3.756 2.205 7.159 5.668 8.613 3.462 1.454 7.46.67 10.118-1.983 2.657-2.653 3.447-6.65 1.998-10.114-1.45-3.465-4.849-5.71-8.604-5.681zm-.09 1.636c4.152-.01 7.528 3.34 7.55 7.492.02 4.151-3.323 7.536-7.474 7.567-1.996 0-3.91-.794-5.32-2.206-1.41-1.413-2.2-3.328-2.196-5.324H4.4c0-4.151 3.36-7.52 7.51-7.53zm.076 1.353c-3.411 0-6.176 2.765-6.176 6.176-.006 2.507 1.5 4.769 3.814 5.73 2.315.962 4.98.434 6.753-1.338 1.772-1.773 2.3-4.439 1.34-6.753-.963-2.314-3.225-3.82-5.731-3.815zM11.9 7.474c2.505-.007 4.545 2.009 4.569 4.513.023 2.504-1.98 4.557-4.484 4.596-1.21 0-2.371-.482-3.226-1.339-.854-.857-1.333-2.02-1.329-3.23h-.07c.008-2.504 2.036-4.532 4.54-4.54zm.085 1.325c-1.773.008-3.208 1.443-3.215 3.215 0 1.776 1.44 3.215 3.215 3.215s3.215-1.44 3.215-3.215S13.76 8.8 11.986 8.8z" transform="translate(120)"/>
                        </g>
                    </g>
                </g>
            </g>
        </g>
    </g>
</svg>
