<svg xmlns="http://www.w3.org/2000/svg" width="24" height="24" viewBox="0 0 24 24">
    <defs>
        <filter id="oumk565jra">
            <feColorMatrix in="SourceGraphic" values="0 0 0 0 1.000000 0 0 0 0 1.000000 0 0 0 0 1.000000 0 0 0 1.000000 0"/>
        </filter>
        <filter id="hfuk4ewogb">
            <feColorMatrix in="SourceGraphic" values="0 0 0 0 0.000000 0 0 0 0 0.000000 0 0 0 0 0.000000 0 0 0 1.000000 0"/>
        </filter>
    </defs>
    <g fill="none" fill-rule="evenodd">
        <g>
            <g>
                <g>
                    <g>
                        <g filter="url(#oumk565jra)" transform="translate(-410 -7859) translate(370 1800) translate(0 5686) translate(0 129) translate(0 244)">
                            <g filter="url(#hfuk4ewogb)" transform="translate(40)">
                                <g>
                                    <path stroke="#FFF" stroke-linejoin="round" d="M15 14.76c.27-.065.548-.097.827-.093.969-.018 1.905.35 2.603 1.022.697.673 1.1 1.595 1.117 2.564-.002.233-.025.465-.067.694m-1 1.813c-.772.75-1.825 1.139-2.9 1.07-1.074-.068-2.07-.588-2.74-1.43m-1.12-2.48c.485-.621.752-1.385.76-2.173-.037-2.013-1.694-3.617-3.707-3.587-.97-.021-1.91.345-2.611 1.018-.7.673-1.105 1.597-1.122 2.569.001.78.27 1.538.76 2.146m-1.467 2.174c2.594 2.45 6.678 2.349 9.147-.227m1.24-1.947c.263-.685.398-1.412.4-2.146-.035-1.648-.723-3.215-1.914-4.355-1.19-1.14-2.785-1.761-4.433-1.725-1.65-.032-3.245.593-4.433 1.739-1.188 1.146-1.872 2.717-1.9 4.367.004.854.195 1.696.56 2.467m18.053 3.6L18.067 19H3.56L.893 21.867l20.16-.027z" transform="translate(1 1)"/>
                                    <path fill="#FFF" fill-rule="nonzero" d="M11.587.92c0-.324-.263-.587-.587-.587-.324 0-.587.263-.587.587-.003.158.057.31.167.423.11.113.262.177.42.177.326-.007.587-.274.587-.6M13.96 2.507c.005-.245-.139-.469-.364-.565-.226-.097-.487-.046-.66.127-.173.174-.224.435-.128.66.097.226.32.37.565.364.324 0 .587-.262.587-.586M8.04 2.507c-.005-.245.139-.469.364-.565.226-.097.487-.046.66.127.173.174.224.435.128.66-.097.226-.32.37-.565.364-.324 0-.587-.262-.587-.586M13.76 5.267c0-.324-.263-.587-.587-.587-.293.044-.51.296-.51.593s.217.55.51.594c.326-.008.587-.274.587-.6M8.24 5.267c0-.324.263-.587.587-.587.293.044.51.296.51.593s-.217.55-.51.594c-.326-.008-.587-.274-.587-.6M15 7.44c0-.244-.148-.463-.374-.555-.225-.093-.485-.039-.655.136-.17.174-.218.434-.121.658.097.224.32.366.563.361.158 0 .31-.064.42-.177.11-.112.17-.265.167-.423M7 7.44c0-.244.148-.463.374-.555.225-.093.485-.039.655.136.17.174.218.434.121.658-.097.224-.32.366-.563.361-.158 0-.31-.064-.42-.177-.11-.112-.17-.265-.167-.423M16.133 9.667c0-.244-.147-.464-.373-.556-.226-.092-.485-.038-.656.136-.17.175-.218.435-.121.659.097.223.32.366.564.36.158 0 .309-.063.42-.176.11-.113.17-.265.166-.423M17.32 11.787c.022-.248-.11-.483-.334-.593-.223-.109-.49-.069-.673.1-.182.17-.24.434-.147.664.093.23.319.38.567.375.158 0 .31-.063.42-.176.11-.113.17-.266.167-.424M15.933 4.48c0-.244-.147-.463-.373-.555-.226-.093-.485-.039-.656.136-.17.174-.218.434-.121.658.097.224.32.366.564.361.158 0 .309-.064.42-.177.11-.112.17-.265.166-.423M6.067 4.48c0-.244.147-.463.373-.555.226-.093.485-.039.656.136.17.174.218.434.121.658-.097.224-.32.366-.564.361-.158 0-.309-.064-.42-.177-.11-.112-.17-.265-.166-.423M17.92 6.453c0-.242-.146-.461-.37-.554-.225-.093-.483-.042-.654.13-.172.172-.223.43-.13.654.093.224.311.37.554.37.331 0 .6-.268.6-.6M4.08 6.453c-.022-.246.11-.48.331-.59.222-.11.488-.073.67.093.184.167.245.429.157.66-.09.23-.31.383-.558.384-.331 0-.6-.269-.6-.6M19.893 8.427c0-.332-.268-.6-.6-.6-.331 0-.6.268-.6.6 0 .331.269.6.6.6.332 0 .6-.269.6-.6M2.107 8.427c0-.332.268-.6.6-.6.331 0 .6.268.6.6 0 .331-.269.6-.6.6-.332 0-.6-.269-.6-.6M21.667 10.413c.005-.245-.14-.468-.364-.565-.226-.096-.487-.045-.66.128-.174.173-.224.434-.128.66.096.225.32.37.565.364.321-.007.58-.266.587-.587M.333 10.413c-.005-.245.14-.468.364-.565.226-.096.487-.045.66.128.174.173.224.434.128.66-.096.225-.32.37-.565.364-.321-.007-.58-.266-.587-.587M11.587 2.907c0-.327-.26-.593-.587-.6-.244-.006-.467.137-.564.36-.097.224-.049.485.122.659.17.174.43.228.655.136.226-.092.374-.311.374-.555M11.587 4.88c-.028-.305-.28-.541-.587-.547-.244-.005-.467.138-.564.361-.097.224-.049.484.122.659.17.174.43.228.655.136.226-.092.374-.312.374-.556M11.587 6.853c0-.324-.263-.586-.587-.586-.157-.004-.308.057-.419.167-.11.111-.171.263-.168.42 0 .323.263.586.587.586.156 0 .305-.062.415-.172.11-.11.172-.26.172-.415" transform="translate(1 1)"/>
                                </g>
                            </g>
                        </g>
                    </g>
                </g>
            </g>
        </g>
    </g>
</svg>
