<svg xmlns="http://www.w3.org/2000/svg" width="24" height="24" viewBox="0 0 24 24">
    <defs>
        <filter id="nd49cahrma">
            <feColorMatrix in="SourceGraphic" values="0 0 0 0 1.000000 0 0 0 0 1.000000 0 0 0 0 1.000000 0 0 0 1.000000 0"/>
        </filter>
        <filter id="5shb03wc5b">
            <feColorMatrix in="SourceGraphic" values="0 0 0 0 0.000000 0 0 0 0 0.000000 0 0 0 0 0.000000 0 0 0 1.000000 0"/>
        </filter>
    </defs>
    <g fill="none" fill-rule="evenodd" stroke-linecap="round" stroke-linejoin="round">
        <g>
            <g>
                <g>
                    <g>
                        <g filter="url(#nd49cahrma)" transform="translate(-450 -9113) translate(370 1800) translate(0 6960) translate(0 81) translate(0 272)">
                            <g filter="url(#5shb03wc5b)" transform="translate(80)">
                                <g>
                                    <path stroke="#FFF" stroke-width="1.125" d="M7.245 16.65v-2.745m2.88 3.45V14.61m7.155 1.83v-2.73m-3.345 3.645V14.61m-10.5-4.905c-.03-.387.106-.77.375-1.05.28-.286.664-.448 1.065-.45C4.362 6.259 2.582 4.919.57 4.965m20.07 4.74c.03-.387-.106-.77-.375-1.05-.28-.286-.664-.448-1.065-.45.512-1.94 2.284-3.279 4.29-3.24m-17.7-3.27c-.93 1.866-.528 4.121.99 5.55.14-.323.414-.57.75-.675.365-.104.757-.05 1.08.15.256-2.11-.885-4.144-2.82-5.025zm12.48 0c.93 1.866.528 4.121-.99 5.55-.14-.323-.414-.57-.75-.675-.365-.104-.757-.05-1.08.15-.256-2.11.885-4.144 2.82-5.025h0zM12.03.555c1.655 1.495 2.054 3.937.96 5.88-.535-.518-1.385-.518-1.92 0-1.094-1.943-.695-4.385.96-5.88zm-8.61 9.15C1.621 8.822.506 6.968.57 4.965m20.07 4.74c1.799-.883 2.914-2.737 2.85-4.74m-18.63 6.57v2.73c0 1.77 3.21 3.21 7.17 3.21s7.17-1.5 7.17-3.21v-2.73m0 .735c1.099.572 1.82 1.674 1.905 2.91 0 2.655-3.81 4.575-9.075 4.575-5.265 0-9-1.92-9-4.575.07-1.22.76-2.319 1.83-2.91m14.34-.735c0-1.77-3.21-3.21-7.17-3.21s-7.17 1.5-7.17 3.21 3.21 3.195 7.17 3.195 7.17-1.44 7.17-3.195h0z" transform="translate(0 1.5)"/>
                                </g>
                            </g>
                        </g>
                    </g>
                </g>
            </g>
        </g>
    </g>
</svg>
