<svg xmlns="http://www.w3.org/2000/svg" width="24" height="24" viewBox="0 0 24 24">
    <defs>
        <filter id="q414xqnoja">
            <feColorMatrix in="SourceGraphic" values="0 0 0 0 1.000000 0 0 0 0 1.000000 0 0 0 0 1.000000 0 0 0 1.000000 0"/>
        </filter>
        <filter id="w4q1f95oub">
            <feColorMatrix in="SourceGraphic" values="0 0 0 0 0.000000 0 0 0 0 0.000000 0 0 0 0 0.000000 0 0 0 1.000000 0"/>
        </filter>
    </defs>
    <g fill="none" fill-rule="evenodd">
        <g>
            <g>
                <g>
                    <g>
                        <g>
                            <g filter="url(#q414xqnoja)" transform="translate(-1170 -9730) translate(370 1800) translate(0 7580) translate(680 84) translate(0 266) translate(120)">
                                <g fill="#FFF" fill-rule="nonzero" filter="url(#w4q1f95oub)">
                                    <path d="M.39 12c0 6.412 5.198 11.61 11.61 11.61 6.412 0 11.61-5.198 11.61-11.61C23.61 5.588 18.412.39 12 .39 5.595.406.406 5.595.39 12M0 12C0 5.373 5.373 0 12 0s12 5.373 12 12-5.373 12-12 12c-3.183 0-6.235-1.264-8.485-3.515C1.265 18.235 0 15.183 0 12"/>
                                    <path d="M19.815 5.505c1.415 1.656 2.261 3.722 2.415 5.895h.165c-.15-2.213-1.013-4.319-2.46-6l-.12.105zM19.725 18.795l.12.12c1.473-1.674 2.367-3.778 2.55-6h-.18c-.18 2.158-1.054 4.2-2.49 5.82M4.305 5.595l-.12-.12c-1.42 1.69-2.257 3.795-2.385 6h.18c.12-2.16.936-4.222 2.325-5.88M1.98 12.975h-.165c.185 2.16 1.046 4.207 2.46 5.85l.12-.135c-1.386-1.604-2.23-3.603-2.415-5.715M18.705 4.395l.12-.135c-1.683-1.445-3.787-2.308-6-2.46v.18c2.176.141 4.246.99 5.895 2.415M11.22 1.98v-.165c-2.222.173-4.327 1.063-6 2.535l.195.15c1.617-1.438 3.65-2.32 5.805-2.52M5.505 19.815l-.12.105c1.635 1.417 3.679 2.279 5.835 2.46v-.165c-2.107-.19-4.104-1.03-5.715-2.4M12.795 22.215v.18c2.205-.128 4.31-.964 6-2.385l-.12-.12c-1.637 1.374-3.672 2.19-5.805 2.325"/>
                                    <path d="M11.22 2.145V1.98c-2.154.2-4.188 1.082-5.805 2.52l.12.12c1.586-1.404 3.576-2.27 5.685-2.475M2.16 12.975h-.18c.184 2.112 1.03 4.111 2.415 5.715l.105-.12c-1.346-1.574-2.165-3.531-2.34-5.595M18.585 4.5l.12-.12c-1.651-1.42-3.721-2.263-5.895-2.4v.165c2.13.138 4.156.965 5.775 2.355M4.5 5.7l-.12-.105C2.978 7.223 2.137 9.258 1.98 11.4h.165c.168-2.1.992-4.094 2.355-5.7M22.05 11.4h.18c-.154-2.173-1-4.239-2.415-5.895l-.12.12c1.382 1.624 2.207 3.648 2.355 5.775M19.605 18.66l.12.135c1.436-1.62 2.31-3.662 2.49-5.82h-.18c-.176 2.107-1.028 4.101-2.43 5.685M5.625 19.695l-.12.12c1.611 1.37 3.608 2.21 5.715 2.4v-.18c-2.067-.18-4.027-.998-5.61-2.34M12.795 22.05v.165c2.133-.136 4.168-.95 5.805-2.325l-.12-.12c-1.605 1.345-3.596 2.143-5.685 2.28M6.33 18.975l-.105.12c1.418 1.183 3.158 1.915 4.995 2.1V21c-1.801-.182-3.505-.904-4.89-2.07M12.795 21v.135c1.863-.136 3.639-.843 5.085-2.025l-.105-.105c-1.419 1.156-3.156 1.852-4.98 1.995M3.165 12.975H3c.178 1.851.916 3.604 2.115 5.025l.105-.09c-1.169-1.399-1.886-3.12-2.055-4.935M5.13 6.42l-.105-.105C3.843 7.761 3.135 9.537 3 11.4h.15c.139-1.823.83-3.56 1.98-4.98M11.22 3.15V3c-1.881.185-3.658.95-5.085 2.19l.105.105c1.4-1.21 3.139-1.959 4.98-2.145M21 11.4h.135c-.134-1.904-.869-3.716-2.1-5.175l-.105.105c1.2 1.434 1.923 3.206 2.07 5.07M18.9 18l.105.105c1.24-1.427 2.005-3.204 2.19-5.085H21c-.173 1.836-.906 3.574-2.1 4.98M17.88 5.22l.12-.105c-1.46-1.24-3.279-1.98-5.19-2.115v.15c1.87.137 3.65.861 5.085 2.07"/>
                                    <path d="M18.795 17.85l.105.105c1.194-1.406 1.927-3.144 2.1-4.98h-.15c-.184 1.802-.917 3.504-2.1 4.875M17.76 5.325l.12-.105c-1.434-1.209-3.214-1.933-5.085-2.07v.15c1.827.134 3.565.843 4.965 2.025M20.895 11.4H21c-.147-1.864-.87-3.636-2.07-5.07l-.105.105c1.188 1.4 1.912 3.135 2.07 4.965M6.345 5.4c1.371-1.183 3.073-1.916 4.875-2.1v-.15c-1.841.186-3.58.935-4.98 2.145l.105.105zM3.315 12.975h-.15c.175 1.805.892 3.514 2.055 4.905l.105-.12c-1.138-1.355-1.839-3.024-2.01-4.785M12.795 20.895V21c1.825-.127 3.566-.82 4.98-1.98l-.105-.105c-1.391 1.124-3.091 1.8-4.875 1.935M5.235 6.525L5.13 6.42C3.98 7.84 3.289 9.577 3.15 11.4h.15c.136-1.784.81-3.484 1.935-4.875M6.435 18.87l-.105.105c1.39 1.15 3.094 1.855 4.89 2.025v-.165c-1.76-.174-3.428-.874-4.785-2.01M7.11 18.21l-.09.105c1.206.982 2.67 1.596 4.215 1.77v-.135c-1.509-.172-2.936-.777-4.11-1.74M12.795 19.965v.135c1.575-.134 3.073-.735 4.305-1.725l-.105-.09c-1.205.96-2.665 1.545-4.2 1.68M11.22 4.245V4.11C9.63 4.3 8.132 4.958 6.915 6l.09.105c1.19-1.023 2.657-1.67 4.215-1.86M17.1 6l.09-.09c-1.245-1.038-2.78-1.667-4.395-1.8v.12c1.58.147 3.079.764 4.305 1.77M4.26 12.975h-.135c.165 1.548.78 3.013 1.77 4.215L6 17.1c-.972-1.175-1.577-2.61-1.74-4.125M19.965 11.4h.135c-.137-1.614-.765-3.148-1.8-4.395l-.09.09c1.005 1.226 1.617 2.726 1.755 4.305M18.12 17.19l.105.09c1.03-1.22 1.678-2.718 1.86-4.305h-.135c-.172 1.557-.81 3.026-1.83 4.215M5.91 7.2l-.09-.105C4.837 8.329 4.242 9.827 4.11 11.4h.12c.142-1.533.726-2.992 1.68-4.2"/>
                                    <path d="M19.83 11.4h.135c-.138-1.579-.75-3.08-1.755-4.305l-.09.105c.977 1.197 1.573 2.66 1.71 4.2M18 17.1l.075.09c1.036-1.183 1.69-2.653 1.875-4.215h-.135c-.186 1.524-.817 2.959-1.815 4.125M4.395 12.975H4.26c.163 1.516.768 2.95 1.74 4.125l.09-.105c-.95-1.142-1.54-2.542-1.695-4.02M12.795 19.83v.135c1.535-.135 2.995-.72 4.2-1.68l-.09-.09c-1.182.933-2.61 1.501-4.11 1.635M17.01 6.09L17.1 6c-1.23-1-2.727-1.617-4.305-1.77v.15c1.548.12 3.02.717 4.215 1.71M7.2 18.12l-.09.09c1.174.963 2.601 1.568 4.11 1.74v-.15c-1.475-.158-2.872-.741-4.02-1.68M11.22 4.38v-.135c-1.555.18-3.021.818-4.215 1.83l.09.09c1.167-.991 2.603-1.613 4.125-1.785M4.365 11.4c.14-1.498.708-2.925 1.635-4.11l-.09-.09c-.954 1.208-1.538 2.667-1.68 4.2h.135zM7.89 17.43v.075c.972.81 2.152 1.33 3.405 1.5V18.9c-1.216-.166-2.365-.652-3.33-1.41M6.69 7.98v-.075c-.806 1.004-1.31 2.216-1.455 3.495h.12c.124-1.24.585-2.424 1.335-3.42M11.22 5.355V5.25c-1.29.152-2.509.673-3.51 1.5l.075.09c.982-.812 2.172-1.332 3.435-1.5M16.32 6.78v-.09c-1.029-.84-2.28-1.36-3.6-1.5v.105c1.288.158 2.505.678 3.51 1.5M18.855 11.4h.12c-.14-1.32-.661-2.571-1.5-3.6l-.075.09c.834.997 1.356 2.218 1.5 3.51M6.78 16.305c-.77-.96-1.263-2.11-1.425-3.33H5.25c.177 1.256.696 2.44 1.5 3.42l.03-.09zM17.34 16.41l.09.075c.83-1.005 1.35-2.23 1.5-3.525h-.105c-.168 1.263-.688 2.453-1.5 3.435M12.795 18.855v.105c1.274-.113 2.487-.593 3.495-1.38v-.075c-.992.76-2.176 1.227-3.42 1.35"/>
                                    <path d="M17.265 16.335h.075c.812-.982 1.332-2.172 1.5-3.435h-.12c-.175 1.238-.695 2.403-1.5 3.36M7.965 17.34v.09c.965.758 2.114 1.244 3.33 1.41v-.12c-1.19-.158-2.314-.635-3.255-1.38M18.735 11.4h.12c-.144-1.292-.666-2.513-1.5-3.51l-.09.09c.79.979 1.275 2.168 1.395 3.42M5.475 12.975h-.12c.162 1.22.655 2.37 1.425 3.33h.075c-.745-.94-1.222-2.065-1.38-3.255M11.22 5.475v-.12c-1.263.168-2.453.688-3.435 1.5h.09c.95-.807 2.11-1.328 3.345-1.5M12.795 18.735v.12c1.244-.123 2.428-.59 3.42-1.35l-.075-.09c-.971.741-2.13 1.198-3.345 1.32M6.78 8.07l-.09-.09c-.75.996-1.211 2.18-1.335 3.42h.105c.12-1.212.577-2.366 1.32-3.33M16.23 6.855l.09-.075c-1.005-.822-2.222-1.342-3.51-1.5v.12c1.25.125 2.439.61 3.42 1.395M6.66 9.345H17.58V10.345H6.66zM6.66 14.07H17.58V15.07H6.66z"/>
                                </g>
                            </g>
                        </g>
                    </g>
                </g>
            </g>
        </g>
    </g>
</svg>
