<svg xmlns="http://www.w3.org/2000/svg" width="24" height="24" viewBox="0 0 24 24">
    <defs>
        <filter id="tf8oni02fa">
            <feColorMatrix in="SourceGraphic" values="0 0 0 0 1.000000 0 0 0 0 1.000000 0 0 0 0 1.000000 0 0 0 1.000000 0"/>
        </filter>
        <filter id="92i7406kzb">
            <feColorMatrix in="SourceGraphic" values="0 0 0 0 0.000000 0 0 0 0 0.000000 0 0 0 0 0.000000 0 0 0 1.000000 0"/>
        </filter>
    </defs>
    <g fill="none" fill-rule="evenodd" stroke-linecap="round" stroke-linejoin="round">
        <g>
            <g>
                <g>
                    <g>
                        <g filter="url(#tf8oni02fa)" transform="translate(-410 -9113) translate(370 1800) translate(0 6960) translate(0 81) translate(0 272)">
                            <g filter="url(#92i7406kzb)" transform="translate(40)">
                                <g>
                                    <path stroke="#FFF" stroke-width="1.125" d="M23.505 11.67h-.45c-3.615 0-3.96-5.1-3.96-7.26S20.025.555 20.85.555c.825 0 1.77 1.695 1.77 3.855s-.345 7.26-3.975 7.26-3.975-5.1-3.975-7.26.945-3.855 1.77-3.855c.825 0 1.77 1.695 1.77 3.855s-.345 7.26-3.975 7.26-3.975-5.1-3.975-7.26.945-3.855 1.77-3.855c.825 0 1.77 1.695 1.77 3.855s-.27 7.26-3.975 7.26S5.85 6.57 5.85 4.41 6.795.555 7.62.555c.825 0 1.77 1.695 1.77 3.855s-.36 7.26-3.975 7.26S1.44 6.57 1.44 4.41 2.385.555 3.21.555c.825 0 1.755 1.695 1.755 3.855s-.345 7.26-3.96 7.26h-.45" transform="translate(0 6)"/>
                                </g>
                            </g>
                        </g>
                    </g>
                </g>
            </g>
        </g>
    </g>
</svg>
